<svg xmlns="http://www.w3.org/2000/svg" width="1024" height="1024" viewBox="0 0 1024 1024">
<g>
<path d="M 247.00 684.32 C237.81,688.10 236.01,687.18 243.92,682.74 C248.51,680.16 258.00,670.85 258.00,668.92 C258.00,668.45 260.41,666.28 263.36,664.10 C269.24,659.76 278.00,648.89 278.00,645.94 C278.00,642.30 283.75,637.21 289.81,635.49 C295.93,633.75 304.73,628.37 317.50,618.57 C327.82,610.65 330.01,609.73 336.58,610.55 C344.08,611.49 350.68,609.06 357.47,602.86 C364.14,596.75 366.37,593.24 369.03,584.65 C370.28,580.60 372.25,576.79 374.04,574.95 C377.77,571.14 379.70,566.61 381.91,556.50 C382.87,552.10 384.07,548.63 384.58,548.79 C385.69,549.13 385.35,554.96 383.88,560.63 C383.29,562.90 382.99,565.60 383.21,566.63 C383.54,568.20 384.39,567.73 388.44,563.75 C391.09,561.14 393.81,559.00 394.48,559.00 C395.14,559.00 396.50,558.10 397.50,557.00 C399.28,555.04 402.01,554.28 401.99,555.75 C401.98,556.82 388.33,569.98 383.90,573.19 C378.21,577.31 374.13,583.94 373.13,590.69 C372.66,593.88 371.96,597.22 371.58,598.11 C371.05,599.37 371.88,599.99 375.48,600.99 C379.71,602.18 380.70,602.06 388.56,599.45 C393.24,597.90 397.48,596.13 397.98,595.53 C398.48,594.92 402.32,585.67 406.51,574.96 C414.71,554.03 445.33,477.06 485.06,377.50 C507.48,321.34 510.03,315.47 512.18,315.21 C514.35,314.94 515.09,316.21 521.21,330.71 C524.88,339.39 532.57,357.30 538.29,370.50 C554.34,407.50 564.14,431.20 563.61,431.72 C563.35,431.99 561.41,432.30 559.32,432.41 C557.22,432.53 554.46,433.19 553.20,433.87 C549.83,435.71 547.01,440.94 547.00,445.36 C547.00,448.68 546.76,449.10 545.25,448.37 C544.29,447.91 540.98,447.52 537.89,447.51 L 532.29 447.50 L 515.98 409.22 C506.90,387.89 499.20,371.10 498.59,371.30 C498.00,371.50 495.35,377.03 492.71,383.58 C487.13,397.44 453.33,483.01 445.92,502.01 C443.15,509.13 440.45,515.22 439.94,515.54 C439.42,515.86 439.00,516.94 439.00,517.95 C439.00,518.96 437.65,522.96 436.00,526.84 C431.75,536.83 431.86,537.24 438.25,534.83 C441.14,533.74 443.93,532.43 444.45,531.92 C446.09,530.33 447.31,530.92 445.89,532.63 C445.15,533.53 441.32,535.73 437.38,537.52 C430.51,540.65 430.14,541.00 428.20,546.14 C427.09,549.09 422.72,560.28 418.50,571.00 C394.44,632.12 387.70,655.36 390.92,666.15 C392.72,672.17 398.34,677.26 406.11,679.88 C409.56,681.05 413.39,682.00 414.61,682.00 C418.15,682.00 420.00,683.07 420.00,685.11 C420.00,686.93 418.55,687.00 378.50,687.00 C337.80,687.00 337.00,686.96 337.00,685.02 C337.00,683.67 337.88,682.84 339.75,682.43 C362.15,677.49 368.47,670.11 384.94,629.62 L 390.99 614.75 L 386.79 615.42 C382.69,616.07 377.06,618.34 372.00,621.38 C368.39,623.55 359.75,625.69 350.13,626.81 C339.22,628.09 327.54,633.70 318.72,641.92 C315.30,645.11 310.25,648.70 307.50,649.91 C301.60,652.50 297.85,655.88 294.48,661.62 C291.53,666.66 287.05,670.28 276.80,675.88 C270.63,679.25 267.26,680.36 259.80,681.48 C254.69,682.25 248.93,683.53 247.00,684.32 ZM 702.82 684.81 L 703.14 687.00 L 645.63 687.00 C611.73,687.00 587.88,686.62 587.55,686.08 C586.60,684.54 589.97,682.00 592.96,682.00 C597.57,682.00 605.61,678.95 609.55,675.70 C614.22,671.85 616.00,667.60 616.00,660.35 C616.00,649.33 611.27,636.48 581.79,567.50 C572.16,544.95 562.03,521.10 559.27,514.50 L 554.27 502.50 L 557.64 500.21 C559.49,498.96 561.01,497.61 561.03,497.21 C561.05,496.82 561.70,495.65 562.49,494.62 C563.85,492.82 564.03,492.88 566.57,495.91 C572.41,502.84 581.15,504.19 586.07,498.92 C587.65,497.23 589.65,495.99 590.51,496.17 C591.50,496.38 596.15,506.08 603.14,522.50 C654.47,643.09 662.05,659.61 669.98,668.29 C676.31,675.21 684.85,679.66 695.12,681.39 C701.48,682.45 702.54,682.93 702.82,684.81 ZM 417.52 609.35 C415.27,609.04 411.76,609.25 409.72,609.81 C407.67,610.38 406.00,610.54 405.99,610.17 C405.99,609.55 412.04,593.89 412.56,593.19 C412.68,593.02 415.67,592.47 419.19,591.97 C422.72,591.47 427.60,590.22 430.05,589.18 C432.50,588.15 436.65,586.52 439.27,585.56 C441.89,584.60 446.39,581.68 449.27,579.06 C455.62,573.29 457.93,572.00 461.96,572.00 C465.19,572.00 474.63,567.68 481.50,563.05 C483.70,561.57 487.98,558.71 491.00,556.71 C499.06,551.37 509.47,541.62 516.15,533.15 C519.37,529.07 522.00,525.39 522.00,524.98 C522.00,523.29 531.53,516.58 534.19,516.39 C535.77,516.28 538.28,515.38 539.78,514.39 C543.16,512.15 553.26,506.92 553.57,507.26 C554.08,507.82 557.00,515.31 557.00,516.08 C557.00,516.53 554.91,517.83 552.35,518.96 C549.79,520.10 545.71,522.71 543.29,524.76 C537.08,530.03 521.79,545.75 516.92,551.86 C512.42,557.52 512.96,558.86 519.25,557.60 C523.80,556.69 535.02,552.10 538.22,549.83 C539.72,548.77 543.54,547.48 546.72,546.97 C549.90,546.45 555.42,544.56 559.00,542.76 C562.58,540.97 565.75,539.38 566.06,539.23 C566.36,539.08 567.36,540.52 568.26,542.43 L 569.92 545.89 L 564.31 548.46 C561.23,549.87 556.86,551.31 554.60,551.66 C550.20,552.35 538.88,557.99 530.10,563.88 C527.12,565.87 523.52,568.29 522.10,569.24 C520.23,570.50 517.49,570.99 512.36,570.99 C502.74,571.00 494.15,573.84 485.17,579.99 C481.14,582.74 476.96,585.00 475.89,585.00 C472.62,585.00 463.81,590.01 458.03,595.16 C451.77,600.74 445.67,603.99 441.43,604.01 C439.82,604.02 434.70,605.35 430.05,606.97 C423.80,609.14 420.54,609.76 417.52,609.35 ZM 602.00 492.00 C600.85,492.00 598.64,492.65 597.11,493.44 L 594.32 494.89 L 594.50 482.27 L 600.78 479.01 C604.23,477.22 608.51,474.05 610.28,471.98 C614.24,467.34 620.01,452.88 620.00,447.61 C620.00,443.61 625.48,424.25 627.10,422.55 C628.30,421.28 628.25,421.85 626.53,428.67 C625.23,433.79 622.65,461.99 623.41,462.74 C623.57,462.90 626.50,460.43 629.93,457.26 C635.10,452.48 637.14,449.54 641.87,440.03 C647.05,429.63 647.88,428.50 650.78,427.91 C652.53,427.55 655.76,425.74 657.94,423.88 C661.44,420.91 661.85,420.10 661.40,417.18 C661.11,415.35 660.65,413.25 660.36,412.51 C659.68,410.71 662.39,409.42 668.50,408.63 L 673.50 407.99 L 670.50 409.85 C666.24,412.49 663.17,416.18 664.75,416.73 C666.62,417.38 666.26,420.77 664.25,421.49 C660.34,422.87 653.91,432.53 646.61,448.00 C644.60,452.27 640.65,458.19 637.45,461.75 C634.36,465.19 632.02,468.55 632.24,469.22 C632.47,469.91 629.13,472.45 624.57,475.06 C620.13,477.60 616.00,480.67 615.39,481.88 C612.75,487.10 606.27,492.00 602.00,492.00 ZM 612.41 521.49 L 612.01 521.61 C608.52,522.67 607.08,523.11 606.20,522.59 C605.54,522.21 605.19,521.31 604.54,519.76 C602.84,515.72 603.69,515.04 610.50,515.00 C624.04,514.93 648.20,505.66 658.67,496.52 C664.55,491.38 668.24,489.44 673.50,488.74 C678.06,488.12 688.92,481.98 693.45,477.45 C695.13,475.78 698.90,470.93 701.82,466.68 C706.24,460.27 707.04,458.47 706.52,456.07 C705.84,452.98 707.59,450.78 708.61,453.44 C708.94,454.30 709.79,455.00 710.50,455.00 C711.53,455.00 713.00,457.03 713.00,458.46 C713.00,458.62 711.71,459.01 710.14,459.32 C707.76,459.80 706.55,461.30 702.98,468.15 C700.23,473.44 699.11,476.54 699.86,476.79 C700.51,477.00 699.29,478.38 697.17,479.84 C692.28,483.20 688.00,486.65 688.00,487.23 C688.00,487.48 690.50,488.24 693.56,488.93 C699.08,490.16 706.45,489.31 711.15,486.89 C712.28,486.30 712.98,486.51 713.37,487.53 C713.78,488.58 712.46,489.74 708.88,491.46 C703.73,493.95 702.23,494.09 684.50,493.76 C678.30,493.64 676.70,494.04 670.45,497.22 C666.57,499.20 661.57,502.35 659.34,504.22 C653.40,509.18 627.24,520.00 621.18,520.00 C619.06,520.00 615.11,520.67 612.41,521.49 ZM 753.39 308.05 C751.30,311.32 749.28,314.00 748.90,314.00 C746.67,314.00 747.40,310.15 750.63,304.92 C753.61,300.09 754.35,297.82 754.74,292.27 C755.21,285.63 755.16,285.46 752.11,283.22 C748.18,280.34 748.06,278.64 751.84,279.46 C753.79,279.89 755.08,279.60 755.96,278.54 C758.83,275.10 760.18,278.19 757.61,282.29 C756.66,283.80 756.42,285.89 756.86,288.88 L 757.50 293.26 L 762.16 285.88 C764.72,281.82 767.61,276.81 768.59,274.75 C769.57,272.69 770.71,271.00 771.13,271.00 C771.92,271.00 768.81,278.50 764.48,287.03 C763.12,289.73 762.00,292.19 762.00,292.50 C762.00,292.82 763.68,291.93 765.73,290.54 C767.78,289.14 770.27,288.00 771.27,288.00 C772.26,288.00 775.35,286.84 778.13,285.43 C785.91,281.49 784.81,283.04 776.13,288.24 C764.97,294.93 757.73,301.23 753.39,308.05 ZM 700.29 372.52 C700.92,374.33 700.57,374.55 697.00,374.55 C694.80,374.55 693.00,374.24 693.00,373.86 C693.00,373.48 693.94,370.99 695.09,368.33 C696.24,365.67 698.53,359.79 700.19,355.25 C703.72,345.55 705.61,343.46 704.57,350.41 L 703.86 355.10 L 710.13 350.05 C714.34,346.66 716.73,345.33 717.41,346.01 C718.08,346.68 716.90,348.57 713.82,351.76 C711.30,354.37 708.71,357.51 708.08,358.75 C707.38,360.12 706.01,361.00 704.59,361.00 C703.30,361.00 701.75,361.60 701.13,362.34 C699.80,363.95 699.32,369.72 700.29,372.52 ZM 685.44 393.62 C682.91,396.58 680.50,399.00 680.08,399.00 C679.66,399.00 678.80,397.85 678.15,396.44 C677.08,394.09 677.38,393.42 681.74,388.45 C684.36,385.47 686.85,383.02 687.27,383.01 C687.70,383.01 688.50,384.18 689.05,385.62 C689.93,387.95 689.53,388.84 685.44,393.62 ZM 689.75 402.26 C686.31,403.67 681.81,405.06 679.75,405.35 L 676.00 405.87 L 677.75 403.47 C678.93,401.84 680.50,401.05 682.59,401.03 C684.29,401.01 687.89,400.33 690.59,399.51 C690.98,399.39 691.35,399.28 691.68,399.18 C694.90,398.20 695.73,397.95 695.94,398.20 C696.01,398.29 696.01,398.44 696.00,398.65 C696.00,398.71 696.00,398.78 696.00,398.85 C696.00,399.32 693.19,400.85 689.75,402.26 ZM 394.00 523.39 C394.00,524.15 392.95,525.46 391.67,526.30 C389.42,527.77 389.29,527.70 388.08,524.34 C386.63,520.33 387.27,518.76 389.01,522.02 C389.87,523.63 390.48,523.92 391.29,523.11 C392.81,521.59 394.00,521.72 394.00,523.39 ZM 793.00 281.00 C793.00,281.55 792.44,281.95 791.75,281.88 C788.19,281.55 787.00,280.69 787.00,278.43 C787.00,277.09 787.19,276.00 787.42,276.00 C789.02,276.00 791.00,277.44 791.00,278.61 C791.00,279.37 791.45,280.00 792.00,280.00 C792.55,280.00 793.00,280.45 793.00,281.00 ZM 759.00 450.47 C759.00,451.44 758.08,452.00 756.50,452.00 C754.40,452.00 754.00,451.53 754.00,449.06 C754.00,447.44 754.45,445.84 755.00,445.50 C755.55,445.16 756.00,445.54 756.00,446.33 C756.00,447.13 756.67,448.05 757.50,448.36 C758.33,448.68 759.00,449.63 759.00,450.47 ZM 778.87 261.41 C778.67,261.59 777.54,262.23 776.36,262.84 C774.52,263.80 774.14,263.64 773.62,261.73 C773.30,260.50 773.03,258.83 773.03,258.00 C773.03,256.69 773.15,256.68 773.96,257.97 C774.47,258.78 775.19,259.14 775.56,258.77 C775.94,258.40 776.91,258.77 777.74,259.60 C778.56,260.42 779.07,261.24 778.87,261.41 ZM 752.32 384.60 C751.78,386.03 750.52,386.25 748.21,385.32 C747.27,384.95 747.21,384.45 748.00,383.51 C749.40,381.82 753.04,382.73 752.32,384.60 ZM 768.00 301.56 C768.00,303.24 767.10,303.36 765.00,301.98 C763.69,301.13 763.69,300.88 764.95,300.07 C766.70,298.95 768.00,299.58 768.00,301.56 Z" fill="rgb(26,26,25)"/>
<path d="M 743.89 386.54 C739.09,388.23 738.00,388.34 738.00,387.11 C738.00,386.62 739.69,385.91 741.75,385.54 C743.81,385.16 746.40,384.28 747.50,383.57 C747.81,383.37 748.13,383.21 748.46,383.09 C748.29,383.21 748.13,383.34 748.00,383.51 C747.21,384.45 747.27,384.95 748.21,385.32 C748.44,385.42 748.66,385.50 748.87,385.57 C747.68,385.53 745.69,385.90 743.89,386.54 ZM 391.51 526.40 C390.63,527.27 389.74,528.95 389.35,530.56 C388.88,532.55 388.21,533.88 387.85,533.52 C387.49,533.16 387.62,531.33 388.14,529.45 C388.56,527.92 388.68,526.59 388.50,525.49 C389.34,527.63 389.69,527.58 391.51,526.40 ZM 387.30 520.60 C387.20,521.13 387.37,522.24 387.88,523.77 C386.95,521.92 386.82,520.69 387.30,520.60 ZM 389.07 522.13 C389.75,522.98 390.32,523.43 390.75,523.49 C390.20,523.70 389.70,523.28 389.07,522.13 ZM 392.30 525.83 C393.26,525.04 393.98,524.05 394.00,523.41 C394.00,523.43 394.00,523.45 394.00,523.46 C394.00,524.22 393.25,525.24 392.30,525.83 ZM 393.11 522.05 C392.73,522.05 392.26,522.27 391.73,522.71 C392.18,522.20 392.68,521.98 393.11,522.05 Z" fill="rgb(75,73,71)"/>
<path d="M 398.84 555.85 C399.12,555.59 399.41,555.33 399.70,555.05 C404.02,550.99 408.90,548.00 411.23,548.00 C412.17,548.00 412.44,549.16 412.16,552.07 C411.70,556.91 408.73,559.00 405.09,557.05 C403.24,556.06 402.38,556.40 398.20,560.12 C400.43,557.85 401.99,556.11 401.99,555.75 C402.00,554.62 400.39,554.80 398.84,555.85 ZM 472.50 527.00 C473.50,528.10 474.13,528.95 473.90,528.88 C473.68,528.82 472.60,528.54 471.50,528.26 C470.40,527.99 468.61,527.14 467.53,526.38 C465.63,525.05 465.65,525.00 468.12,525.00 C469.53,525.00 471.50,525.90 472.50,527.00 ZM 714.52 331.20 C714.84,332.04 714.32,332.63 713.18,332.71 C711.71,332.82 711.41,332.33 711.77,330.43 C712.21,328.14 714.00,326.93 714.00,328.92 C714.00,329.42 714.24,330.45 714.52,331.20 ZM 392.23 565.92 C391.97,566.23 391.79,566.46 391.70,566.62 C391.25,567.39 388.46,569.81 385.50,572.00 C381.39,575.04 378.33,578.27 376.24,581.82 C378.15,578.45 380.78,575.45 383.90,573.19 C385.68,571.90 388.95,569.00 392.23,565.92 ZM 394.48 559.00 C393.81,559.00 391.09,561.14 388.44,563.75 C391.09,561.14 393.77,559.00 394.39,559.00 C394.81,559.00 396.06,558.17 397.54,556.96 C397.53,556.97 397.51,556.99 397.50,557.00 C396.50,558.10 395.14,559.00 394.48,559.00 Z" fill="rgb(182,22,18)"/>
<path d="M 554.27 499.34 C552.75,500.12 550.06,501.07 548.30,501.45 C545.64,502.02 544.73,501.71 542.87,499.57 C541.64,498.16 539.67,497.00 538.48,497.00 C536.22,497.00 534.00,493.52 534.00,489.97 C534.00,485.79 537.38,479.74 541.30,476.90 L 545.30 474.00 L 540.58 474.00 C535.33,474.00 532.80,472.97 528.75,469.19 C525.91,466.54 524.90,460.80 527.04,459.47 C527.61,459.12 527.82,458.00 527.50,456.99 C526.74,454.60 530.27,451.30 535.16,449.83 C539.65,448.49 543.57,449.81 548.84,454.43 L 552.29 457.46 L 550.65 454.28 C546.17,445.62 552.32,431.42 559.00,435.00 C560.34,435.72 561.61,435.74 562.85,435.08 C568.55,432.03 574.67,445.94 570.88,453.32 C570.10,454.83 570.94,454.39 573.63,451.87 C578.40,447.40 581.03,446.00 584.71,446.00 C588.03,446.00 592.00,448.48 592.00,450.56 C592.00,451.35 592.95,452.95 594.10,454.10 C598.18,458.18 594.66,465.94 587.24,469.22 C581.59,471.72 571.10,471.31 567.95,468.46 C565.81,466.51 565.41,465.00 567.06,465.00 C567.64,465.00 567.84,465.45 567.50,466.00 C566.54,467.56 567.61,467.17 569.05,465.44 C570.11,464.16 570.09,463.94 568.92,464.19 C567.43,464.51 567.36,463.76 568.60,460.59 C569.12,459.25 568.99,458.89 568.17,459.39 C567.53,459.79 567.00,460.74 567.00,461.50 C567.00,462.26 566.44,463.21 565.75,463.60 C565.06,464.00 564.82,463.97 565.20,463.54 C566.11,462.54 563.59,460.00 561.68,460.00 C560.88,460.00 559.48,461.85 558.57,464.11 C557.09,467.83 556.65,468.18 553.96,467.78 C552.33,467.54 551.00,467.72 551.00,468.17 C551.00,468.63 552.46,469.01 554.25,469.03 C557.24,469.06 557.35,469.18 555.67,470.45 C553.93,471.77 553.95,471.86 556.11,472.17 C558.23,472.48 558.27,472.60 556.69,474.18 C554.00,476.85 554.74,477.60 557.50,475.00 L 560.00 472.65 L 560.00 475.02 C560.00,477.28 560.06,477.30 561.39,475.48 C562.54,473.91 563.05,473.80 564.31,474.84 C565.62,475.93 565.76,475.81 565.30,474.06 C564.65,471.54 565.67,471.44 568.42,473.75 C570.47,475.47 570.47,475.47 568.75,473.42 C567.79,472.28 567.00,471.03 567.00,470.65 C567.00,469.88 572.22,470.97 573.00,471.90 C573.28,472.23 575.43,472.54 577.80,472.59 C582.66,472.69 586.33,474.96 589.75,479.99 C593.73,485.84 592.13,494.00 587.00,494.00 C585.97,494.00 584.84,494.93 584.48,496.06 C583.48,499.21 580.03,500.35 575.35,499.10 C570.42,497.77 567.48,494.72 565.00,488.39 C563.23,483.86 563.09,483.73 563.05,486.60 C562.99,490.34 558.16,497.36 554.27,499.34 ZM 680.04 400.25 C680.00,400.96 682.09,401.13 684.79,400.82 C683.92,400.95 683.15,401.03 682.59,401.03 C680.50,401.05 678.93,401.84 677.75,403.47 L 676.00 405.87 L 679.01 405.45 C677.03,405.97 675.12,406.81 673.10,408.04 L 668.50 408.63 C662.39,409.42 659.68,410.71 660.36,412.51 C660.65,413.25 661.11,415.35 661.40,417.18 C661.85,420.10 661.44,420.91 657.94,423.88 C655.76,425.74 652.53,427.55 650.78,427.91 C648.16,428.45 647.23,429.41 643.26,437.26 C647.29,428.98 647.50,427.98 645.93,427.48 C642.90,426.52 639.04,421.11 638.36,416.88 L 637.73 412.91 L 635.91 415.90 C634.91,417.55 632.89,419.68 631.41,420.65 C629.93,421.62 628.13,423.84 627.40,425.59 C627.28,425.87 627.16,426.22 627.04,426.62 C628.25,421.74 628.17,421.42 627.10,422.55 C626.65,423.02 625.90,424.86 625.05,427.36 C625.84,424.63 625.98,423.61 625.54,423.23 C625.28,423.00 624.82,423.00 624.17,423.00 C624.10,423.00 624.03,423.00 623.95,423.00 C622.83,423.00 620.91,421.95 619.70,420.68 C618.49,419.40 616.71,418.06 615.75,417.71 C613.52,416.89 613.39,411.07 615.51,406.98 C617.14,403.83 619.75,402.08 624.50,400.93 C627.26,400.26 627.15,400.20 623.20,400.10 C618.09,399.98 613.95,398.03 611.09,394.39 C608.65,391.28 608.36,386.77 610.50,385.00 C611.33,384.32 612.00,383.16 612.00,382.43 C612.00,380.47 616.05,378.00 619.29,378.00 C623.20,378.00 625.94,379.53 629.72,383.83 L 632.95 387.50 L 631.84 383.86 C630.32,378.86 631.53,373.61 635.15,369.48 C638.15,366.06 642.18,364.87 643.50,367.00 C643.84,367.56 645.24,367.73 646.60,367.39 C649.87,366.57 652.70,369.16 654.06,374.22 C655.21,378.51 654.00,384.06 651.22,387.25 C649.09,389.69 650.27,389.43 654.56,386.53 C656.56,385.17 659.75,383.76 661.64,383.41 C668.06,382.20 677.83,387.67 676.32,391.61 C675.35,394.15 677.31,393.19 680.64,389.72 C677.34,393.56 677.18,394.30 678.15,396.44 C678.80,397.85 679.66,399.00 680.08,399.00 C680.35,399.00 681.43,398.01 682.83,396.53 C681.18,398.49 680.05,399.97 680.04,400.25 ZM 701.18 352.60 C702.73,348.22 702.52,347.58 700.65,347.92 C698.70,348.26 696.06,346.77 695.50,345.01 C695.17,343.98 693.91,342.99 692.70,342.81 C690.88,342.55 690.45,341.75 690.19,338.21 C689.92,334.47 690.31,333.49 693.24,330.56 L 696.61 327.19 L 692.88 326.60 C690.83,326.27 687.77,324.84 686.08,323.41 C683.32,321.09 683.03,320.32 683.23,315.76 C683.42,311.31 683.81,310.48 686.47,308.85 C691.50,305.79 696.33,306.41 701.18,310.75 C704.03,313.30 705.10,313.86 704.52,312.50 C702.02,306.59 703.27,297.96 706.89,296.09 C707.77,295.63 710.96,295.31 713.96,295.37 C719.00,295.49 719.60,295.77 721.71,298.90 C724.18,302.57 724.55,305.43 723.04,309.39 L 722.09 311.90 L 726.79 308.87 C731.13,306.07 732.00,305.87 737.87,306.39 C741.37,306.70 744.83,307.45 745.57,308.06 C747.00,309.24 748.00,308.96 749.88,306.19 C747.30,310.76 746.86,314.00 748.90,314.00 C749.17,314.00 750.23,312.70 751.55,310.81 C748.97,314.82 748.61,316.19 749.30,317.74 C750.02,319.37 749.85,320.58 748.62,322.45 C745.57,327.12 742.23,328.50 734.02,328.50 L 726.45 328.50 L 729.45 330.52 C731.10,331.63 733.09,333.69 733.88,335.09 C735.77,338.46 734.68,343.00 731.98,343.00 C730.89,343.00 730.00,343.66 730.00,344.46 C730.00,346.71 726.13,348.28 721.96,347.72 C718.62,347.27 717.86,347.60 714.04,351.53 C716.96,348.48 718.07,346.67 717.41,346.01 C716.81,345.41 714.87,346.38 711.52,348.95 C712.76,347.97 714.17,346.83 715.77,345.52 C715.92,345.40 715.36,343.99 714.52,342.40 C713.69,340.80 712.99,338.83 712.96,338.00 C712.93,337.17 712.01,338.21 710.91,340.30 C709.80,342.39 708.26,344.35 707.47,344.65 C706.58,344.99 705.31,347.69 704.58,350.32 C705.49,344.16 704.05,345.26 701.18,352.60 ZM 700.29 372.52 C699.32,369.72 699.80,363.95 701.13,362.34 C701.75,361.60 703.30,361.00 704.59,361.00 C706.01,361.00 707.38,360.12 708.08,358.75 C707.08,360.71 707.18,361.00 708.88,361.00 C709.95,361.00 712.03,362.44 713.51,364.19 C715.63,366.72 716.09,368.09 715.66,370.69 C715.11,374.12 716.65,375.35 717.60,372.25 C720.64,362.34 725.27,358.32 731.38,360.27 C736.49,361.90 737.50,362.62 737.50,364.61 C737.50,365.65 738.29,366.82 739.25,367.22 C741.79,368.26 741.59,374.98 738.91,378.39 C736.67,381.23 730.25,384.94 727.29,385.10 C726.31,385.15 727.35,385.71 729.62,386.35 C739.40,389.08 744.25,403.13 736.69,406.80 C735.21,407.52 734.00,408.53 734.00,409.05 C734.00,410.75 727.58,410.04 724.19,407.98 C722.35,406.85 720.10,404.22 719.12,402.03 L 717.37 398.10 L 716.09 401.62 C713.92,407.62 705.28,411.13 701.64,407.50 C700.82,406.67 699.53,406.00 698.77,406.00 C696.86,406.00 695.00,403.94 695.00,401.84 C695.00,400.20 694.66,400.22 690.25,402.17 C688.29,403.03 685.42,403.98 683.01,404.59 C685.12,403.99 687.63,403.13 689.75,402.26 C693.19,400.85 696.00,399.32 696.00,398.85 C696.00,398.78 696.00,398.71 696.00,398.65 C696.01,398.44 696.01,398.29 695.94,398.20 C695.73,397.95 694.90,398.20 691.68,399.18 C691.35,399.28 690.98,399.39 690.59,399.51 C690.47,399.55 690.35,399.58 690.23,399.62 C692.44,398.74 695.15,396.79 697.41,394.43 L 701.66 390.00 L 697.53 390.00 C695.26,390.00 692.83,389.44 692.14,388.75 C691.21,387.82 690.01,388.56 686.41,392.48 C689.59,388.67 689.85,387.75 689.05,385.62 C688.50,384.18 687.70,383.01 687.27,383.01 C686.94,383.02 685.30,384.56 683.33,386.68 C685.48,384.03 687.00,381.38 687.00,380.22 C687.00,378.74 688.00,377.33 689.76,376.32 C691.43,375.36 692.75,373.65 694.87,368.85 C693.82,371.30 693.00,373.50 693.00,373.86 C693.00,374.24 694.80,374.55 697.00,374.55 C700.57,374.55 700.92,374.33 700.29,372.52 ZM 439.94 515.54 C440.42,515.24 442.77,509.99 445.32,503.54 L 441.41 513.55 L 445.12 513.55 C447.41,513.55 449.69,514.30 451.05,515.52 L 453.27 517.50 L 452.43 515.00 C450.48,509.14 452.40,505.00 457.07,505.00 C460.26,505.00 463.00,508.11 463.00,511.75 L 463.00 514.06 L 465.92 511.90 C469.65,509.14 473.65,509.94 475.09,513.74 C476.60,517.71 475.38,520.93 471.80,522.44 C468.75,523.73 468.73,523.78 470.83,524.91 C472.01,525.54 473.67,527.39 474.51,529.01 C475.77,531.46 475.82,532.36 474.77,534.23 C473.05,537.31 471.98,537.97 468.70,537.98 C467.05,537.99 464.90,536.99 463.45,535.55 C461.89,533.98 461.00,533.59 461.00,534.47 C461.00,535.23 459.83,537.23 458.41,538.92 C455.85,541.97 451.76,543.04 450.50,541.00 C450.16,540.45 449.00,540.00 447.92,540.00 C446.55,540.00 445.77,539.12 445.37,537.09 L 444.79 534.18 L 438.74 536.88 C442.17,535.23 445.23,533.42 445.89,532.63 C447.31,530.92 446.09,530.33 444.45,531.92 C443.99,532.37 441.80,533.43 439.32,534.41 C442.15,533.22 445.40,531.32 446.95,529.90 L 450.12 527.00 L 446.78 527.00 C442.90,527.00 439.03,524.63 438.94,522.19 C438.90,521.03 437.32,523.88 435.83,527.25 L 436.00 526.84 C437.65,522.96 439.00,518.96 439.00,517.95 C439.00,516.94 439.42,515.86 439.94,515.54 ZM 709.82 491.00 C712.69,489.52 713.74,488.48 713.37,487.53 C712.98,486.51 712.28,486.30 711.15,486.89 C708.85,488.07 705.92,488.88 702.87,489.25 C703.64,489.09 704.48,488.89 705.43,488.64 C711.34,487.10 712.96,485.87 712.98,482.90 C713.01,480.55 716.28,478.00 719.28,478.00 L 721.91 478.00 L 719.45 475.55 C716.49,472.58 716.07,467.22 718.75,466.40 C719.71,466.10 721.32,465.41 722.33,464.87 C725.35,463.24 729.31,466.45 728.77,470.09 C728.48,472.06 728.78,473.00 729.67,473.00 C730.41,473.00 731.00,471.92 731.00,470.56 C731.00,466.69 735.17,462.57 739.14,462.53 C743.48,462.49 747.31,465.63 746.56,468.62 C746.21,470.01 746.55,471.00 747.51,471.36 C749.79,472.24 749.29,476.81 746.61,479.48 C745.30,480.79 742.64,482.16 740.71,482.53 L 737.19 483.19 L 739.59 486.73 C742.11,490.44 742.68,494.87 741.03,497.95 C739.96,499.94 734.26,501.42 731.60,500.40 C729.60,499.63 727.00,494.91 727.00,492.05 C727.00,490.89 726.35,490.00 725.50,490.00 C724.67,490.00 724.00,490.45 724.00,491.00 C724.00,492.52 716.88,492.20 715.08,490.60 C713.85,489.51 713.03,489.50 709.82,491.00 ZM 398.84 555.85 C398.39,556.15 397.94,556.52 397.54,556.96 C396.06,558.17 394.81,559.00 394.39,559.00 C393.98,559.00 392.66,559.94 391.04,561.34 C391.63,560.69 392.00,560.19 392.00,560.00 C392.00,559.58 391.10,559.00 390.01,558.71 C387.12,557.96 386.40,555.10 388.28,551.83 C389.83,549.14 389.81,549.00 387.97,549.00 C386.39,549.00 385.88,549.51 385.13,553.55 C385.37,550.90 385.20,548.98 384.58,548.79 C384.12,548.65 383.12,551.40 382.22,555.13 C383.46,549.35 383.45,547.96 382.36,546.48 C380.04,543.30 380.70,540.15 384.14,538.06 C386.87,536.40 387.48,536.34 388.72,537.57 C390.75,539.61 390.94,539.40 390.34,535.70 C389.42,530.02 395.10,527.80 397.62,532.87 C398.79,535.21 398.80,535.21 399.47,533.10 C400.13,531.00 404.69,528.00 407.21,528.00 C407.92,528.00 409.12,529.37 409.86,531.04 C411.45,534.65 410.08,539.13 406.64,541.54 C405.49,542.34 405.07,543.00 405.70,543.00 C406.33,543.00 408.13,544.08 409.71,545.41 C412.19,547.49 412.52,548.38 412.17,551.98 C412.44,549.14 412.16,548.00 411.23,548.00 C408.90,548.00 404.02,550.99 399.70,555.05 C399.41,555.33 399.12,555.59 398.84,555.85 ZM 655.21 431.79 C658.86,425.89 661.98,422.29 664.25,421.49 C666.09,420.83 666.55,417.92 665.17,416.94 C665.64,416.73 666.20,415.93 666.50,414.99 C667.25,412.63 672.56,409.62 674.59,410.40 C677.53,411.52 674.75,418.00 671.33,418.00 C670.77,418.00 669.55,418.84 668.61,419.88 C667.12,421.53 667.10,421.82 668.44,422.34 C669.35,422.69 669.88,422.43 669.74,421.71 C669.61,421.05 670.29,420.63 671.25,420.79 C672.21,420.96 673.01,420.51 673.03,419.79 C673.08,417.82 677.77,414.83 680.28,415.18 C683.46,415.64 683.70,419.31 680.70,421.67 C678.81,423.15 678.38,424.25 678.74,426.69 C679.39,431.10 676.28,432.79 672.71,429.99 C670.59,428.32 670.12,428.25 669.63,429.51 C669.32,430.33 668.45,431.00 667.71,431.00 C666.25,431.00 662.50,427.30 661.88,425.25 C661.44,423.80 658.36,427.15 655.21,431.79 ZM 709.87 459.42 C707.80,459.86 706.35,461.68 703.03,468.07 C706.56,461.29 707.77,459.80 710.14,459.32 C711.71,459.01 713.00,458.62 713.00,458.46 C713.00,457.03 711.53,455.00 710.50,455.00 C709.79,455.00 708.94,454.30 708.61,453.44 C707.88,451.51 706.75,452.14 706.44,453.80 L 706.34 452.32 C705.95,447.03 706.22,444.48 707.40,442.19 C709.42,438.28 710.98,437.39 717.00,436.68 C718.85,436.46 719.64,443.93 718.08,446.86 C717.15,448.59 717.37,448.78 720.23,448.65 C722.59,448.54 723.53,448.98 723.80,450.32 C724.52,453.83 718.89,457.51 709.87,459.42 ZM 394.00 523.39 C394.00,522.49 393.66,522.04 393.11,522.05 C392.68,521.98 392.18,522.20 391.73,522.71 C391.59,522.83 391.44,522.96 391.29,523.11 C391.10,523.30 390.93,523.42 390.75,523.49 C390.32,523.43 389.75,522.98 389.07,522.13 C389.05,522.09 389.03,522.06 389.01,522.02 C388.06,520.25 387.44,519.90 387.30,520.60 C387.11,520.64 387.01,520.86 387.03,521.24 C386.95,521.00 386.87,520.76 386.78,520.51 C384.77,514.77 384.72,514.01 386.09,510.40 C387.13,507.68 388.62,506.00 391.04,504.83 C395.72,502.57 397.50,504.25 397.50,510.94 C397.50,513.62 397.84,515.60 398.25,515.35 C398.66,515.09 399.00,515.89 399.00,517.11 C399.00,518.45 397.21,521.06 394.54,523.61 C394.23,523.91 393.92,524.23 393.62,524.55 C393.86,524.18 394.00,523.79 394.00,523.46 C394.00,523.45 394.00,523.43 394.00,523.41 C394.00,523.40 394.00,523.39 394.00,523.39 ZM 759.00 450.47 C759.00,449.63 758.33,448.68 757.50,448.36 C756.67,448.05 756.00,447.13 756.00,446.33 C756.00,445.54 755.55,445.16 755.00,445.50 C754.45,445.84 754.00,447.44 754.00,449.06 C754.00,447.44 754.41,445.87 754.91,445.56 C755.40,445.25 755.60,444.17 755.33,443.16 C755.05,442.09 755.96,440.02 757.52,438.16 C760.35,434.79 763.00,434.01 763.00,436.54 C763.00,437.74 763.41,437.85 764.93,437.04 C767.68,435.57 770.55,435.75 772.00,437.50 C774.70,440.76 767.67,450.00 762.48,450.00 C761.18,450.00 759.84,450.45 759.50,451.00 C759.24,451.41 758.40,451.77 757.43,451.92 C758.43,451.74 759.00,451.23 759.00,450.47 ZM 752.32 384.60 C752.97,382.91 750.06,382.00 748.46,383.09 C748.24,383.17 748.02,383.27 747.81,383.39 C748.45,382.84 748.64,382.23 748.39,381.58 C747.63,379.60 750.58,374.32 753.51,372.40 C756.86,370.20 759.22,371.25 758.82,374.74 C758.56,376.96 759.09,377.79 761.50,379.00 C765.84,381.17 765.97,384.44 761.82,386.97 C757.61,389.54 753.94,389.55 751.00,387.00 C750.39,386.47 749.97,386.07 749.61,385.77 C751.05,386.09 751.90,385.71 752.32,384.60 ZM 793.00 281.00 C793.00,280.45 792.55,280.00 792.00,280.00 C791.45,280.00 791.00,279.37 791.00,278.61 C791.00,277.46 789.07,276.04 787.48,276.00 C788.31,270.36 790.75,266.85 794.57,265.81 C798.81,264.65 800.20,265.50 799.83,269.04 C799.65,270.81 800.07,272.43 800.85,272.91 C802.94,274.20 801.80,277.22 798.50,279.13 C796.63,280.20 794.72,280.94 792.94,281.30 C792.98,281.21 793.00,281.11 793.00,281.00 ZM 781.25 259.19 C780.55,259.84 779.71,260.54 778.89,261.16 C778.79,260.82 778.35,260.21 777.74,259.60 C776.91,258.77 775.94,258.40 775.56,258.77 C775.19,259.14 774.47,258.78 773.96,257.97 C773.45,257.16 773.21,256.86 773.11,257.08 C773.05,256.01 773.02,254.88 773.01,253.81 C773.00,247.10 775.61,243.25 780.50,242.79 C783.38,242.51 783.51,242.67 783.81,246.89 C783.99,249.30 783.65,251.75 783.06,252.34 C781.72,253.68 781.67,255.32 783.00,254.50 C785.19,253.15 783.83,256.78 781.25,259.19 ZM 634.00 408.01 C634.00,408.62 634.77,408.54 635.94,407.81 C637.00,407.14 637.68,406.29 637.44,405.90 C637.20,405.52 637.65,404.96 638.44,404.66 C639.23,404.36 640.09,404.65 640.36,405.31 C640.62,405.96 640.89,405.60 640.95,404.50 C641.06,402.61 641.14,402.60 642.41,404.28 C643.53,405.75 643.86,405.81 644.32,404.61 C644.67,403.70 645.74,403.33 647.19,403.64 C649.11,404.03 648.99,403.82 646.52,402.40 C643.75,400.82 643.68,400.63 645.52,399.92 C646.61,399.49 647.03,399.11 646.45,399.07 C644.92,398.97 642.76,392.33 643.50,390.00 C643.86,388.85 643.68,388.00 643.07,388.00 C642.48,388.00 642.00,388.47 642.00,389.05 C642.00,389.62 640.77,391.15 639.27,392.44 C636.62,394.72 636.50,394.74 635.21,392.90 C634.48,391.85 633.46,391.00 632.94,391.00 C632.42,391.00 632.94,391.94 634.08,393.08 C635.23,394.23 635.90,395.44 635.57,395.77 C635.24,396.10 634.43,395.83 633.78,395.18 C632.31,393.71 630.00,393.64 630.00,395.06 C630.00,395.64 630.45,395.84 631.01,395.50 C631.95,394.91 635.00,397.16 635.00,398.43 C635.00,398.74 633.99,399.06 632.75,399.14 L 630.50 399.27 L 632.75 399.71 C635.32,400.20 635.72,401.79 633.50,402.64 C632.67,402.95 632.00,403.69 632.00,404.26 C632.00,404.84 632.90,404.49 634.01,403.49 C635.11,402.50 636.28,401.94 636.60,402.26 C637.43,403.09 636.05,407.00 634.93,407.00 C634.42,407.00 634.00,407.45 634.00,408.01 ZM 757.81 488.39 C752.59,489.43 751.36,488.73 749.99,483.98 C749.16,481.09 749.34,480.26 751.23,478.26 C753.99,475.32 758.48,475.48 758.54,478.53 C758.56,479.64 759.31,481.60 760.21,482.89 C762.34,485.93 761.60,487.63 757.81,488.39 ZM 749.09 279.96 C748.19,278.58 748.29,277.26 748.66,273.91 C749.47,266.73 753.12,262.39 754.69,266.75 C755.04,267.71 756.15,269.31 757.16,270.29 C758.59,271.68 759.20,274.91 758.92,277.89 C758.67,276.73 757.55,276.64 755.96,278.54 C755.08,279.60 753.79,279.89 751.84,279.46 C749.94,279.05 749.03,279.27 749.09,279.96 ZM 768.00 301.56 C768.00,299.58 766.70,298.95 764.95,300.07 C764.87,300.12 764.79,300.17 764.72,300.22 C765.09,299.70 765.78,299.02 766.82,298.02 C770.11,294.88 773.06,294.31 777.43,295.98 C780.92,297.30 780.66,299.63 776.75,302.02 C773.19,304.20 768.17,304.33 765.42,302.32 C765.24,302.18 765.07,302.06 764.93,301.94 L 765.00 301.98 C767.10,303.36 768.00,303.24 768.00,301.56 ZM 714.52 331.20 C714.24,330.45 714.00,329.42 714.00,328.92 C714.00,328.73 713.98,328.57 713.95,328.44 C714.49,328.60 715.09,328.21 715.37,327.47 C715.79,326.38 716.74,326.13 718.73,326.59 C721.44,327.22 721.46,327.20 719.50,325.54 C718.01,324.27 717.91,323.97 719.14,324.34 C720.35,324.72 720.65,324.36 720.28,322.98 C719.49,319.93 716.64,320.11 715.26,323.31 C714.58,324.89 713.46,325.99 712.76,325.76 C711.32,325.29 710.40,320.00 711.77,320.00 C712.26,320.00 712.67,319.27 712.67,318.37 C712.67,316.96 712.52,316.94 711.58,318.21 C710.44,319.76 707.58,319.48 708.55,317.91 C708.86,317.41 708.41,317.00 707.55,317.00 C706.25,317.00 706.19,317.33 707.19,318.94 C707.86,320.00 708.76,320.65 709.19,320.38 C709.62,320.12 709.70,320.61 709.37,321.48 C708.83,322.88 708.61,322.86 707.37,321.28 C706.09,319.66 706.02,319.74 706.57,322.16 C707.03,324.19 706.74,324.95 705.34,325.37 C704.33,325.68 704.73,325.78 706.24,325.60 C709.48,325.22 711.30,326.99 710.38,329.62 C709.76,331.43 709.79,331.43 711.21,329.60 C711.66,329.02 712.21,328.59 712.70,328.38 C712.31,328.82 711.94,329.54 711.77,330.43 C711.41,332.33 711.71,332.82 713.18,332.71 C714.32,332.63 714.84,332.04 714.52,331.20 ZM 717.50 390.01 C717.87,391.18 718.62,391.73 719.27,391.33 C720.10,390.82 720.08,390.53 719.20,390.23 C717.52,389.67 717.70,387.26 719.51,386.25 C720.82,385.52 720.75,385.10 718.99,383.21 C717.86,382.01 716.51,380.01 715.98,378.76 C715.27,377.09 715.18,377.73 715.63,381.25 C716.29,386.49 715.13,387.45 712.56,383.78 C711.70,382.56 710.96,381.99 710.92,382.53 C710.87,383.06 710.72,384.51 710.58,385.75 C710.41,387.36 710.86,388.00 712.17,388.00 C713.20,388.00 714.05,388.76 714.12,389.75 C714.23,391.42 714.25,391.42 714.69,389.75 C715.30,387.40 716.72,387.53 717.50,390.01 ZM 563.80 470.80 C562.12,472.48 561.23,472.30 560.04,470.07 C558.62,467.42 558.79,464.87 560.53,462.56 C561.99,460.64 562.01,460.64 563.47,462.56 C565.26,464.93 565.43,469.17 563.80,470.80 ZM 641.80 400.80 C641.14,401.46 640.33,402.00 640.00,402.00 C638.83,402.00 637.00,399.58 637.00,398.02 C637.00,397.15 637.75,395.38 638.66,394.08 C640.24,391.82 640.38,391.79 641.66,393.55 C643.32,395.82 643.39,399.21 641.80,400.80 ZM 458.67 527.25 C459.24,528.16 459.55,528.03 459.80,526.75 C460.00,525.73 461.06,524.99 462.32,524.98 C463.94,524.97 464.15,524.75 463.13,524.10 C462.02,523.40 462.12,523.01 463.63,522.07 C465.34,521.01 465.30,520.96 463.25,521.52 C461.76,521.93 460.98,521.69 460.94,520.82 C460.90,520.09 460.43,520.61 459.89,521.96 L 458.91 524.42 L 456.49 521.46 C455.16,519.83 454.06,519.06 454.04,519.75 C454.02,520.44 454.38,521.00 454.83,521.00 C456.06,521.00 455.88,524.38 454.60,525.23 C453.96,525.66 454.42,525.98 455.69,525.98 C456.90,525.99 458.24,526.56 458.67,527.25 ZM 727.62 483.55 C727.09,484.92 727.26,484.93 729.13,483.62 C730.28,482.81 731.85,482.39 732.61,482.68 C733.38,482.97 734.00,482.77 734.00,482.22 C734.00,481.68 732.99,480.95 731.75,480.61 L 729.50 479.99 L 732.00 478.02 C733.38,476.93 733.99,476.03 733.37,476.02 C732.75,476.01 731.67,476.70 730.96,477.55 C730.26,478.40 729.12,478.88 728.44,478.61 C727.76,478.35 726.97,479.01 726.69,480.07 C726.41,481.13 726.64,482.00 727.20,482.00 C727.76,482.00 727.95,482.70 727.62,483.55 ZM 656.20 408.57 C660.01,411.27 660.03,411.27 661.97,410.04 C663.20,409.26 663.12,409.00 661.47,408.48 C660.39,408.13 657.75,407.22 655.61,406.45 C651.30,404.90 651.38,405.16 656.20,408.57 ZM 395.52 545.81 C394.95,547.70 395.17,548.07 396.66,547.81 C398.54,547.49 400.91,545.19 400.97,543.63 C400.99,543.15 400.26,543.37 399.36,544.12 C397.88,545.34 397.79,545.22 398.46,542.99 C399.13,540.78 399.05,540.67 397.71,542.00 C396.89,542.83 395.90,544.54 395.52,545.81 ZM 472.50 527.00 C471.50,525.90 469.53,525.00 468.12,525.00 C465.65,525.00 465.63,525.05 467.53,526.38 C468.61,527.14 470.40,527.99 471.50,528.26 C472.60,528.54 473.68,528.82 473.90,528.88 C474.13,528.95 473.50,528.10 472.50,527.00 ZM 553.29 465.09 C554.51,466.10 555.95,466.93 556.50,466.93 C557.05,466.93 556.51,466.10 555.29,465.09 C554.08,464.08 553.37,462.97 553.71,462.62 C554.05,462.28 553.88,462.00 553.33,462.00 C551.20,462.00 551.18,463.33 553.29,465.09 ZM 638.38 460.68 C641.38,457.08 644.79,451.86 646.61,448.00 C647.52,446.08 648.41,444.26 649.28,442.53 C645.82,450.81 643.51,454.76 638.38,460.68 ZM 645.00 408.00 C645.00,408.55 645.45,409.00 646.00,409.00 C646.55,409.00 647.00,408.55 647.00,408.00 C647.00,407.45 646.55,407.00 646.00,407.00 C645.45,407.00 645.00,407.45 645.00,408.00 ZM 430.27 541.82 C429.19,544.18 426.57,550.55 423.39,558.53 C425.68,552.68 427.53,547.92 428.20,546.14 C428.97,544.11 429.49,542.82 430.27,541.82 ZM 391.51 526.40 C391.56,526.37 391.62,526.33 391.67,526.30 C391.89,526.15 392.10,526.00 392.30,525.83 C392.46,525.73 392.62,525.62 392.77,525.50 C391.04,527.51 389.61,529.71 389.28,531.01 C389.00,532.09 388.63,532.94 388.31,533.33 C388.65,532.88 389.05,531.86 389.35,530.56 C389.74,528.95 390.63,527.27 391.51,526.40 ZM 710.02 350.14 L 703.86 355.10 L 704.04 353.91 C704.31,354.32 706.09,353.22 710.02,350.14 ZM 390.94 652.20 C389.50,661.17 390.40,666.57 393.12,670.71 C392.14,669.27 391.40,667.74 390.92,666.15 C389.95,662.88 389.88,658.47 390.94,652.20 ZM 387.71 523.41 C387.76,523.53 387.82,523.64 387.88,523.77 C387.94,523.95 388.01,524.14 388.08,524.34 C388.24,524.77 388.38,525.16 388.50,525.49 C388.67,526.53 388.58,527.78 388.21,529.20 C388.55,527.61 388.41,525.93 387.71,523.41 ZM 383.37 564.25 C383.26,564.91 383.18,565.53 383.14,566.07 C383.08,564.81 383.38,562.56 383.88,560.63 C383.98,560.24 384.07,559.86 384.16,559.47 C383.90,561.11 383.60,562.93 383.37,564.25 ZM 664.87 414.83 C665.79,413.44 667.81,411.57 670.25,410.01 C669.14,410.86 667.98,411.82 666.75,412.92 C665.95,413.63 665.32,414.28 664.87,414.83 ZM 397.93 675.65 C400.13,677.18 403.15,678.71 406.14,679.89 L 406.11 679.88 C403.00,678.83 400.24,677.39 397.93,675.65 ZM 623.04 433.87 C621.57,439.04 620.25,444.54 620.03,447.00 C620.20,444.48 621.47,438.87 623.00,434.00 ZM 754.95 287.72 C754.81,285.96 754.16,285.11 752.48,283.49 C754.30,284.84 754.89,285.47 754.95,287.72 ZM 753.46 307.93 C755.60,304.60 758.43,301.40 762.07,298.21 C758.67,301.23 755.93,304.35 753.46,307.93 ZM 433.32 534.18 L 433.10 535.29 C433.00,534.41 433.57,532.71 434.72,529.89 C434.07,531.54 433.54,533.11 433.32,534.18 ZM 787.19 279.74 C787.47,280.55 788.09,281.08 789.18,281.43 C789.00,281.40 788.82,281.36 788.65,281.31 C787.74,281.07 787.30,280.73 787.19,279.74 ZM 752.97 300.64 C753.73,298.77 754.25,296.74 754.55,294.41 C754.28,296.88 753.84,298.69 752.97,300.64 ZM 414.94 580.09 C410.73,590.95 407.12,600.47 404.06,608.84 C407.11,600.45 410.72,590.92 414.94,580.09 ZM 639.42 444.81 C637.81,447.81 636.47,449.98 634.99,451.89 C636.47,449.89 637.89,447.61 639.42,444.81 ZM 387.98 530.06 C387.61,531.69 387.53,533.15 387.83,533.50 C387.83,533.50 387.83,533.49 387.83,533.49 C387.49,533.16 387.57,531.65 387.98,530.06 ZM 625.79 460.96 C624.80,461.80 624.05,462.40 623.67,462.64 ZM 743.03 385.26 C742.59,385.37 742.16,385.46 741.75,385.54 C739.77,385.90 738.13,386.57 738.01,387.05 C738.13,386.57 739.76,385.89 741.73,385.52 ZM 694.86 489.17 C694.42,489.10 693.98,489.02 693.56,488.93 C692.76,488.75 691.99,488.56 691.30,488.38 C692.05,488.57 692.89,488.76 693.78,488.95 C694.16,489.03 694.52,489.11 694.86,489.17 ZM 626.10 430.89 C626.25,429.95 626.40,429.19 626.53,428.67 L 626.53 428.64 C626.39,429.31 626.24,430.07 626.10,430.89 ZM 776.78 262.62 C776.63,262.71 776.49,262.79 776.36,262.85 C775.55,263.27 775.02,263.47 774.63,263.40 C775.02,263.47 775.55,263.26 776.36,262.84 C776.50,262.77 776.64,262.69 776.78,262.62 ZM 688.00 487.24 C688.00,487.24 688.00,487.24 688.00,487.23 C688.00,486.92 689.26,485.76 691.20,484.22 C689.28,485.74 688.04,486.90 688.00,487.24 ZM 623.59 454.81 L 623.40 457.69 C623.46,456.75 623.52,455.70 623.60,454.58 ZM 484.15 405.12 C488.19,394.92 491.32,387.03 492.71,383.58 C493.62,381.32 494.53,379.18 495.36,377.34 C494.53,379.18 493.62,381.32 492.71,383.58 C491.32,387.03 488.19,394.92 484.15,405.12 Z" fill="rgb(194,50,44)"/>
<path d="M 0.00 512.00 L 0.00 0.00 L 512.00 0.00 L 1024.00 0.00 L 1024.00 512.00 L 1024.00 1024.00 L 512.00 1024.00 L 0.00 1024.00 L 0.00 512.00 ZM 247.00 684.32 C248.93,683.53 254.69,682.25 259.80,681.48 C267.26,680.36 270.63,679.25 276.80,675.88 C287.05,670.28 291.53,666.66 294.48,661.62 C297.85,655.88 301.60,652.50 307.50,649.91 C310.25,648.70 315.30,645.11 318.72,641.92 C327.54,633.70 339.22,628.09 350.13,626.81 C359.75,625.69 368.39,623.55 372.00,621.38 C377.06,618.34 382.69,616.07 386.79,615.42 L 390.99 614.75 L 384.94 629.62 C368.47,670.11 362.15,677.49 339.75,682.43 C337.88,682.84 337.00,683.67 337.00,685.02 C337.00,686.96 337.80,687.00 378.50,687.00 C418.55,687.00 420.00,686.93 420.00,685.11 C420.00,683.07 418.15,682.00 414.61,682.00 C409.90,682.00 399.78,677.72 396.03,674.13 C384.83,663.46 388.41,647.60 420.43,566.04 C425.71,552.58 430.36,541.25 430.76,540.85 C431.17,540.45 434.49,538.79 438.14,537.15 L 444.79 534.18 L 445.37 537.09 C445.77,539.12 446.55,540.00 447.92,540.00 C449.00,540.00 450.16,540.45 450.50,541.00 C451.76,543.04 455.85,541.97 458.41,538.92 C459.83,537.23 461.00,535.23 461.00,534.47 C461.00,533.59 461.89,533.98 463.45,535.55 C464.90,536.99 467.05,537.99 468.70,537.98 C471.98,537.97 473.05,537.31 474.77,534.23 C475.82,532.36 475.77,531.46 474.51,529.01 C473.67,527.39 472.01,525.54 470.83,524.91 C468.73,523.78 468.75,523.73 471.80,522.44 C475.38,520.93 476.60,517.71 475.09,513.74 C473.65,509.94 469.65,509.14 465.92,511.90 L 463.00 514.06 L 463.00 511.75 C463.00,508.11 460.26,505.00 457.07,505.00 C452.40,505.00 450.48,509.14 452.43,515.00 L 453.27 517.50 L 451.05 515.52 C449.69,514.30 447.41,513.55 445.12,513.55 L 441.41 513.55 L 447.28 498.52 C456.51,474.93 487.40,396.77 492.71,383.58 C495.35,377.03 498.00,371.50 498.59,371.30 C499.20,371.10 506.90,387.89 515.98,409.22 L 532.29 447.50 L 537.89 447.51 C540.98,447.52 544.29,447.91 545.25,448.37 C546.76,449.10 547.00,448.68 547.00,445.36 C547.01,440.94 549.83,435.71 553.20,433.87 C554.46,433.19 557.22,432.53 559.32,432.41 C561.41,432.30 563.35,431.99 563.61,431.72 C564.14,431.20 554.34,407.50 538.29,370.50 C532.57,357.30 524.88,339.39 521.21,330.71 C515.09,316.21 514.35,314.94 512.18,315.21 C510.03,315.47 507.48,321.34 485.06,377.50 C445.33,477.06 414.71,554.03 406.51,574.96 C402.32,585.67 398.48,594.92 397.98,595.53 C397.48,596.13 393.24,597.90 388.56,599.45 C380.70,602.06 379.71,602.18 375.48,600.99 C371.88,599.99 371.05,599.37 371.58,598.11 C371.96,597.22 372.66,593.88 373.13,590.69 C374.20,583.42 378.19,577.40 385.50,572.00 C388.46,569.81 391.25,567.39 391.70,566.62 C392.14,565.85 394.84,563.12 397.71,560.55 C402.32,556.43 403.17,556.02 405.09,557.05 C408.76,559.01 411.70,556.91 412.17,551.98 C412.52,548.38 412.19,547.49 409.71,545.41 C408.13,544.08 406.33,543.00 405.70,543.00 C405.07,543.00 405.49,542.34 406.64,541.54 C410.08,539.13 411.45,534.65 409.86,531.04 C409.12,529.37 407.92,528.00 407.21,528.00 C404.69,528.00 400.13,531.00 399.47,533.10 C398.80,535.21 398.79,535.21 397.62,532.87 C395.10,527.80 389.42,530.02 390.34,535.70 C390.94,539.40 390.75,539.61 388.72,537.57 C387.48,536.34 386.87,536.40 384.14,538.06 C380.70,540.15 380.04,543.30 382.36,546.48 C383.52,548.07 383.46,549.55 381.94,556.42 C379.68,566.66 377.76,571.15 374.04,574.95 C372.25,576.79 370.28,580.60 369.03,584.65 C366.37,593.24 364.14,596.75 357.47,602.86 C350.68,609.06 344.08,611.49 336.58,610.55 C330.01,609.73 327.82,610.65 317.50,618.57 C304.73,628.37 295.93,633.75 289.81,635.49 C283.75,637.21 278.00,642.30 278.00,645.94 C278.00,648.89 269.24,659.76 263.36,664.10 C260.41,666.28 258.00,668.45 258.00,668.92 C258.00,670.85 248.51,680.16 243.92,682.74 C236.01,687.18 237.81,688.10 247.00,684.32 ZM 702.82 684.81 C702.54,682.93 701.48,682.45 695.12,681.39 C684.85,679.66 676.31,675.21 669.98,668.29 C662.05,659.61 654.47,643.09 603.14,522.50 C596.15,506.08 591.50,496.38 590.51,496.17 C589.65,495.99 587.65,497.23 586.07,498.92 C581.15,504.19 572.41,502.84 566.57,495.91 C564.03,492.88 563.85,492.82 562.49,494.62 C561.70,495.65 561.05,496.82 561.03,497.21 C561.01,497.61 559.49,498.96 557.64,500.21 L 554.27 502.50 L 559.27 514.50 C562.03,521.10 572.16,544.95 581.79,567.50 C611.27,636.48 616.00,649.33 616.00,660.35 C616.00,667.60 614.22,671.85 609.55,675.70 C605.61,678.95 597.57,682.00 592.96,682.00 C589.97,682.00 586.60,684.54 587.55,686.08 C587.88,686.62 611.73,687.00 645.63,687.00 L 703.14 687.00 L 702.82 684.81 ZM 417.52 609.35 C420.54,609.76 423.80,609.14 430.05,606.97 C434.70,605.35 439.82,604.02 441.43,604.01 C445.67,603.99 451.77,600.74 458.03,595.16 C463.81,590.01 472.62,585.00 475.89,585.00 C476.96,585.00 481.14,582.74 485.17,579.99 C494.15,573.84 502.74,571.00 512.36,570.99 C517.49,570.99 520.23,570.50 522.10,569.24 C523.52,568.29 527.12,565.87 530.10,563.88 C538.88,557.99 550.20,552.35 554.60,551.66 C556.86,551.31 561.23,549.87 564.31,548.46 L 569.92 545.89 L 568.26 542.43 C567.36,540.52 566.36,539.08 566.06,539.23 C565.75,539.38 562.58,540.97 559.00,542.76 C555.42,544.56 549.90,546.45 546.72,546.97 C543.54,547.48 539.72,548.77 538.22,549.83 C535.02,552.10 523.80,556.69 519.25,557.60 C512.96,558.86 512.42,557.52 516.92,551.86 C521.79,545.75 537.08,530.03 543.29,524.76 C545.71,522.71 549.79,520.10 552.35,518.96 C554.91,517.83 557.00,516.53 557.00,516.08 C557.00,515.31 554.08,507.82 553.57,507.26 C553.26,506.92 543.16,512.15 539.78,514.39 C538.28,515.38 535.77,516.28 534.19,516.39 C531.53,516.58 522.00,523.29 522.00,524.98 C522.00,525.39 519.37,529.07 516.15,533.15 C509.47,541.62 499.06,551.37 491.00,556.71 C487.98,558.71 483.70,561.57 481.50,563.05 C474.63,567.68 465.19,572.00 461.96,572.00 C457.93,572.00 455.62,573.29 449.27,579.06 C446.39,581.68 441.89,584.60 439.27,585.56 C436.65,586.52 432.50,588.15 430.05,589.18 C427.60,590.22 422.72,591.47 419.19,591.97 C415.67,592.47 412.68,593.02 412.56,593.19 C412.04,593.89 405.99,609.55 405.99,610.17 C406.00,610.54 407.67,610.38 409.72,609.81 C411.76,609.25 415.27,609.04 417.52,609.35 ZM 394.54 523.61 C397.21,521.06 399.00,518.45 399.00,517.11 C399.00,515.89 398.66,515.09 398.25,515.35 C397.84,515.60 397.50,513.62 397.50,510.94 C397.50,504.25 395.72,502.57 391.04,504.83 C388.62,506.00 387.13,507.68 386.09,510.40 C384.72,514.01 384.77,514.77 386.78,520.51 C388.41,525.17 388.72,527.47 388.06,529.78 C387.58,531.47 387.47,533.14 387.83,533.49 C388.18,533.85 388.83,532.73 389.28,531.01 C389.72,529.29 392.09,525.96 394.54,523.61 ZM 612.41 521.49 C615.11,520.67 619.06,520.00 621.18,520.00 C627.24,520.00 653.40,509.18 659.34,504.22 C661.57,502.35 666.57,499.20 670.45,497.22 C676.70,494.04 678.30,493.64 684.50,493.76 C702.12,494.09 703.75,493.94 708.66,491.55 C712.85,489.52 713.71,489.39 715.08,490.60 C716.88,492.20 724.00,492.52 724.00,491.00 C724.00,490.45 724.67,490.00 725.50,490.00 C726.35,490.00 727.00,490.89 727.00,492.05 C727.00,494.91 729.60,499.63 731.60,500.40 C734.26,501.42 739.96,499.94 741.03,497.95 C742.68,494.87 742.11,490.44 739.59,486.73 L 737.19 483.19 L 740.71 482.53 C742.64,482.16 745.30,480.79 746.61,479.48 C749.29,476.81 749.79,472.24 747.51,471.36 C746.55,471.00 746.21,470.01 746.56,468.62 C747.31,465.63 743.48,462.49 739.14,462.53 C735.17,462.57 731.00,466.69 731.00,470.56 C731.00,471.92 730.41,473.00 729.67,473.00 C728.78,473.00 728.48,472.06 728.77,470.09 C729.31,466.45 725.35,463.24 722.33,464.87 C721.32,465.41 719.71,466.10 718.75,466.40 C716.07,467.22 716.49,472.58 719.45,475.55 L 721.91 478.00 L 719.28 478.00 C716.28,478.00 713.01,480.55 712.98,482.90 C712.96,485.87 711.34,487.10 705.43,488.64 C700.51,489.93 698.61,489.98 693.78,488.95 C690.60,488.28 688.00,487.52 688.00,487.26 C688.00,486.66 692.21,483.25 697.17,479.84 C699.29,478.38 700.51,477.00 699.86,476.79 C699.11,476.54 700.22,473.46 702.96,468.19 C706.34,461.70 707.79,459.86 709.87,459.42 C718.89,457.51 724.52,453.83 723.80,450.32 C723.53,448.98 722.59,448.54 720.23,448.65 C717.37,448.78 717.15,448.59 718.08,446.86 C719.64,443.93 718.85,436.46 717.00,436.68 C710.98,437.39 709.42,438.28 707.40,442.19 C706.22,444.48 705.95,447.03 706.34,452.32 L 706.85 459.39 L 701.68 466.90 C698.83,471.03 695.13,475.78 693.45,477.45 C688.92,481.98 678.06,488.12 673.50,488.74 C668.24,489.44 664.55,491.38 658.67,496.52 C648.20,505.66 624.04,514.93 610.50,515.00 C603.69,515.04 602.84,515.72 604.54,519.76 C606.11,523.49 605.94,523.45 612.41,521.49 ZM 554.27 499.34 C558.16,497.36 562.99,490.34 563.05,486.60 C563.09,483.73 563.23,483.86 565.00,488.39 C567.48,494.72 570.42,497.77 575.35,499.10 C580.03,500.35 583.48,499.21 584.48,496.06 C584.84,494.93 585.97,494.00 587.00,494.00 C592.13,494.00 593.73,485.84 589.75,479.99 C586.33,474.96 582.66,472.69 577.80,472.59 C575.43,472.54 573.28,472.23 573.00,471.90 C572.22,470.97 567.00,469.88 567.00,470.65 C567.00,471.03 567.79,472.28 568.75,473.42 C570.47,475.47 570.47,475.47 568.42,473.75 C565.67,471.44 564.65,471.54 565.30,474.06 C565.76,475.81 565.62,475.93 564.31,474.84 C563.05,473.80 562.54,473.91 561.39,475.48 C560.06,477.30 560.00,477.28 560.00,475.02 L 560.00 472.65 L 557.50 475.00 C554.74,477.60 554.00,476.85 556.69,474.18 C558.27,472.60 558.23,472.48 556.11,472.17 C553.95,471.86 553.93,471.77 555.67,470.45 C557.35,469.18 557.24,469.06 554.25,469.03 C552.46,469.01 551.00,468.63 551.00,468.17 C551.00,467.72 552.33,467.54 553.96,467.78 C556.65,468.18 557.09,467.83 558.57,464.11 C559.48,461.85 560.88,460.00 561.68,460.00 C563.59,460.00 566.11,462.54 565.20,463.54 C564.82,463.97 565.06,464.00 565.75,463.60 C566.44,463.21 567.00,462.26 567.00,461.50 C567.00,460.74 567.53,459.79 568.17,459.39 C568.99,458.89 569.12,459.25 568.60,460.59 C567.36,463.76 567.43,464.51 568.92,464.19 C570.09,463.94 570.11,464.16 569.05,465.44 C567.61,467.17 566.54,467.56 567.50,466.00 C567.84,465.45 567.64,465.00 567.06,465.00 C565.41,465.00 565.81,466.51 567.95,468.46 C571.10,471.31 581.59,471.72 587.24,469.22 C594.66,465.94 598.18,458.18 594.10,454.10 C592.95,452.95 592.00,451.35 592.00,450.56 C592.00,448.48 588.03,446.00 584.71,446.00 C581.03,446.00 578.40,447.40 573.63,451.87 C570.94,454.39 570.10,454.83 570.88,453.32 C574.67,445.94 568.55,432.03 562.85,435.08 C561.61,435.74 560.34,435.72 559.00,435.00 C552.32,431.42 546.17,445.62 550.65,454.28 L 552.29 457.46 L 548.84 454.43 C543.57,449.81 539.65,448.49 535.16,449.83 C530.27,451.30 526.74,454.60 527.50,456.99 C527.82,458.00 527.61,459.12 527.04,459.47 C524.90,460.80 525.91,466.54 528.75,469.19 C532.80,472.97 535.33,474.00 540.58,474.00 L 545.30 474.00 L 541.30 476.90 C537.38,479.74 534.00,485.79 534.00,489.97 C534.00,493.52 536.22,497.00 538.48,497.00 C539.67,497.00 541.64,498.16 542.87,499.57 C544.73,501.71 545.64,502.02 548.30,501.45 C550.06,501.07 552.75,500.12 554.27,499.34 ZM 602.00 492.00 C606.27,492.00 612.75,487.10 615.39,481.88 C616.00,480.67 620.13,477.60 624.57,475.06 C629.18,472.43 632.47,469.91 632.24,469.21 C632.01,468.54 633.96,465.63 636.55,462.74 C643.07,455.51 645.49,451.66 649.39,442.25 C652.74,434.21 661.13,422.78 661.88,425.25 C662.50,427.30 666.25,431.00 667.71,431.00 C668.45,431.00 669.32,430.33 669.63,429.51 C670.12,428.25 670.59,428.32 672.71,429.99 C676.28,432.79 679.39,431.10 678.74,426.69 C678.38,424.25 678.81,423.15 680.70,421.67 C683.70,419.31 683.46,415.64 680.28,415.18 C677.77,414.83 673.08,417.82 673.03,419.79 C673.01,420.51 672.21,420.96 671.25,420.79 C670.29,420.63 669.61,421.05 669.74,421.71 C669.88,422.43 669.35,422.69 668.44,422.34 C667.10,421.82 667.12,421.53 668.61,419.88 C669.55,418.84 670.77,418.00 671.33,418.00 C674.75,418.00 677.53,411.52 674.59,410.40 C672.56,409.62 667.25,412.63 666.50,414.99 C666.15,416.10 665.45,417.00 664.93,417.00 C663.25,417.00 663.95,415.42 666.75,412.92 C672.13,408.11 676.17,405.85 680.80,405.07 C683.39,404.63 687.64,403.32 690.25,402.17 C694.66,400.22 695.00,400.20 695.00,401.84 C695.00,403.94 696.86,406.00 698.77,406.00 C699.53,406.00 700.82,406.67 701.64,407.50 C705.28,411.13 713.92,407.62 716.09,401.62 L 717.37 398.10 L 719.12 402.03 C720.10,404.22 722.35,406.85 724.19,407.98 C727.58,410.04 734.00,410.75 734.00,409.05 C734.00,408.53 735.21,407.52 736.69,406.80 C744.25,403.13 739.40,389.08 729.62,386.35 C727.35,385.71 726.31,385.15 727.29,385.10 C730.25,384.94 736.67,381.23 738.91,378.39 C741.59,374.98 741.79,368.26 739.25,367.22 C738.29,366.82 737.50,365.65 737.50,364.61 C737.50,362.62 736.49,361.90 731.38,360.27 C725.27,358.32 720.64,362.34 717.60,372.25 C716.65,375.35 715.11,374.12 715.66,370.69 C716.09,368.09 715.63,366.72 713.51,364.19 C712.03,362.44 709.95,361.00 708.88,361.00 C707.18,361.00 707.08,360.71 708.08,358.75 C708.71,357.51 711.25,354.41 713.72,351.86 C717.82,347.62 718.53,347.26 721.96,347.72 C726.13,348.28 730.00,346.71 730.00,344.46 C730.00,343.66 730.89,343.00 731.98,343.00 C734.68,343.00 735.77,338.46 733.88,335.09 C733.09,333.69 731.10,331.63 729.45,330.52 L 726.45 328.50 L 734.02 328.50 C742.23,328.50 745.57,327.12 748.62,322.45 C749.85,320.58 750.02,319.37 749.30,317.74 C748.49,315.93 749.12,314.37 753.05,308.53 C758.33,300.70 764.74,295.07 776.20,288.19 C784.82,283.03 785.88,281.51 778.13,285.43 C775.35,286.84 772.26,288.00 771.27,288.00 C770.27,288.00 767.78,289.14 765.73,290.54 C763.68,291.93 762.00,292.82 762.00,292.50 C762.00,292.19 763.12,289.73 764.48,287.03 C768.81,278.50 771.92,271.00 771.13,271.00 C770.71,271.00 769.57,272.69 768.59,274.75 C767.61,276.81 764.72,281.82 762.16,285.88 L 757.50 293.26 L 756.86 288.88 C756.42,285.89 756.66,283.80 757.61,282.29 C759.63,279.07 759.39,272.45 757.16,270.29 C756.15,269.31 755.04,267.71 754.69,266.75 C753.12,262.39 749.47,266.73 748.66,273.91 C748.08,279.14 748.17,279.43 751.66,282.72 C755.22,286.07 755.26,286.20 754.75,292.52 C754.40,296.93 753.42,300.31 751.61,303.41 C748.51,308.70 747.38,309.56 745.57,308.06 C744.83,307.45 741.37,306.70 737.87,306.39 C732.00,305.87 731.13,306.07 726.79,308.87 L 722.09 311.90 L 723.04 309.39 C724.55,305.43 724.18,302.57 721.71,298.90 C719.60,295.77 719.00,295.49 713.96,295.37 C710.96,295.31 707.77,295.63 706.89,296.09 C703.27,297.96 702.02,306.59 704.52,312.50 C705.10,313.86 704.03,313.30 701.18,310.75 C696.33,306.41 691.50,305.79 686.47,308.85 C683.81,310.48 683.42,311.31 683.23,315.76 C683.03,320.32 683.32,321.09 686.08,323.41 C687.77,324.84 690.83,326.27 692.88,326.60 L 696.61 327.19 L 693.24 330.56 C690.31,333.49 689.92,334.47 690.19,338.21 C690.45,341.75 690.88,342.55 692.70,342.81 C693.91,342.99 695.17,343.98 695.50,345.01 C696.06,346.77 698.70,348.26 700.65,347.92 C702.79,347.53 702.75,348.42 700.40,354.75 C694.32,371.09 692.53,374.74 689.76,376.32 C688.00,377.33 687.00,378.74 687.00,380.22 C687.00,381.54 685.03,384.78 682.42,387.77 C678.05,392.77 675.18,394.57 676.32,391.61 C677.83,387.67 668.06,382.20 661.64,383.41 C659.75,383.76 656.56,385.17 654.56,386.53 C650.27,389.43 649.09,389.69 651.22,387.25 C654.00,384.06 655.21,378.51 654.06,374.22 C652.70,369.16 649.87,366.57 646.60,367.39 C645.24,367.73 643.84,367.56 643.50,367.00 C642.18,364.87 638.15,366.06 635.15,369.48 C631.53,373.61 630.32,378.86 631.84,383.86 L 632.95 387.50 L 629.72 383.83 C625.94,379.53 623.20,378.00 619.29,378.00 C616.05,378.00 612.00,380.47 612.00,382.43 C612.00,383.16 611.33,384.32 610.50,385.00 C608.36,386.77 608.65,391.28 611.09,394.39 C613.95,398.03 618.09,399.98 623.20,400.10 C627.15,400.20 627.26,400.26 624.50,400.93 C619.75,402.08 617.14,403.83 615.51,406.98 C613.39,411.07 613.52,416.89 615.75,417.71 C616.71,418.06 618.49,419.40 619.70,420.68 C620.91,421.95 622.83,423.00 623.95,423.00 C626.52,423.00 626.55,422.66 623.00,434.00 C621.36,439.23 620.02,445.30 620.01,447.50 C620.00,452.88 614.27,467.31 610.28,471.98 C608.51,474.05 604.23,477.22 600.78,479.01 L 594.50 482.27 L 594.41 488.58 L 594.32 494.89 L 597.11 493.44 C598.64,492.65 600.85,492.00 602.00,492.00 ZM 757.81 488.39 C761.60,487.63 762.34,485.93 760.21,482.89 C759.31,481.60 758.56,479.64 758.54,478.53 C758.48,475.48 753.99,475.32 751.23,478.26 C749.34,480.26 749.16,481.09 749.99,483.98 C751.36,488.73 752.59,489.43 757.81,488.39 ZM 563.80 470.80 C565.43,469.17 565.26,464.93 563.47,462.56 C562.01,460.64 561.99,460.64 560.53,462.56 C558.79,464.87 558.62,467.42 560.04,470.07 C561.23,472.30 562.12,472.48 563.80,470.80 ZM 759.50 451.00 C759.84,450.45 761.18,450.00 762.48,450.00 C767.67,450.00 774.70,440.76 772.00,437.50 C770.55,435.75 767.68,435.57 764.93,437.04 C763.41,437.85 763.00,437.74 763.00,436.54 C763.00,434.01 760.35,434.79 757.52,438.16 C755.96,440.02 755.05,442.09 755.33,443.16 C755.60,444.17 755.40,445.25 754.91,445.56 C754.41,445.87 754.00,447.44 754.00,449.06 C754.00,451.51 754.41,452.00 756.44,452.00 C757.78,452.00 759.16,451.55 759.50,451.00 ZM 761.82 386.97 C765.97,384.44 765.84,381.17 761.50,379.00 C759.09,377.79 758.56,376.96 758.82,374.74 C759.22,371.25 756.86,370.20 753.51,372.40 C750.58,374.32 747.63,379.60 748.39,381.58 C749.03,383.25 746.79,384.57 741.73,385.52 C739.68,385.91 738.00,386.62 738.00,387.11 C738.00,388.34 739.09,388.23 744.00,386.50 C749.15,384.68 748.25,384.62 751.00,387.00 C753.94,389.55 757.61,389.54 761.82,386.97 ZM 776.75 302.02 C780.66,299.63 780.92,297.30 777.43,295.98 C773.06,294.31 770.11,294.88 766.82,298.02 C763.90,300.81 763.79,301.13 765.42,302.32 C768.17,304.33 773.19,304.20 776.75,302.02 ZM 798.50 279.13 C801.80,277.22 802.94,274.20 800.85,272.91 C800.07,272.43 799.65,270.81 799.83,269.04 C800.20,265.50 798.81,264.65 794.57,265.81 C790.71,266.86 788.26,270.42 787.46,276.16 C786.89,280.16 787.06,280.88 788.65,281.31 C791.23,282.00 794.96,281.17 798.50,279.13 ZM 781.25 259.19 C783.83,256.78 785.19,253.15 783.00,254.50 C781.67,255.32 781.72,253.68 783.06,252.34 C783.65,251.75 783.99,249.30 783.81,246.89 C783.51,242.67 783.38,242.51 780.50,242.79 C775.61,243.25 773.00,247.10 773.01,253.81 C773.02,256.94 773.30,260.50 773.62,261.73 C774.14,263.64 774.52,263.80 776.36,262.85 C777.54,262.25 779.74,260.60 781.25,259.19 ZM 383.37 564.25 C383.72,562.19 384.26,558.92 384.56,557.00 C385.69,549.78 386.03,549.00 387.97,549.00 C389.81,549.00 389.83,549.14 388.28,551.83 C386.40,555.10 387.12,557.96 390.01,558.71 C391.10,559.00 392.00,559.58 392.00,560.00 C392.00,560.88 384.32,568.00 383.37,568.00 C383.02,568.00 383.02,566.31 383.37,564.25 ZM 395.52 545.81 C395.90,544.54 396.89,542.83 397.71,542.00 C399.05,540.67 399.13,540.78 398.46,542.99 C397.79,545.22 397.88,545.34 399.36,544.12 C400.26,543.37 400.99,543.15 400.97,543.63 C400.91,545.19 398.54,547.49 396.66,547.81 C395.17,548.07 394.95,547.70 395.52,545.81 ZM 433.32 534.18 C434.11,530.34 438.87,520.17 438.94,522.19 C439.03,524.63 442.90,527.00 446.78,527.00 L 450.12 527.00 L 446.95 529.90 C445.20,531.50 441.30,533.71 438.28,534.83 L 432.78 536.85 L 433.32 534.18 ZM 458.67 527.25 C458.24,526.56 456.90,525.99 455.69,525.98 C454.42,525.98 453.96,525.66 454.60,525.23 C455.88,524.38 456.06,521.00 454.83,521.00 C454.38,521.00 454.02,520.44 454.04,519.75 C454.06,519.06 455.16,519.83 456.49,521.46 L 458.91 524.42 L 459.89 521.96 C460.43,520.61 460.90,520.09 460.94,520.82 C460.98,521.69 461.76,521.93 463.25,521.52 C465.30,520.96 465.34,521.01 463.63,522.07 C462.12,523.01 462.02,523.40 463.13,524.10 C464.15,524.75 463.94,524.97 462.32,524.98 C461.06,524.99 460.00,525.73 459.80,526.75 C459.55,528.03 459.24,528.16 458.67,527.25 ZM 727.62 483.55 C727.95,482.70 727.76,482.00 727.20,482.00 C726.64,482.00 726.41,481.13 726.69,480.07 C726.97,479.01 727.76,478.35 728.44,478.61 C729.12,478.88 730.26,478.40 730.96,477.55 C731.67,476.70 732.75,476.01 733.37,476.02 C733.99,476.03 733.38,476.93 732.00,478.02 L 729.50 479.99 L 731.75 480.61 C732.99,480.95 734.00,481.68 734.00,482.22 C734.00,482.77 733.38,482.97 732.61,482.68 C731.85,482.39 730.28,482.81 729.13,483.62 C727.26,484.93 727.09,484.92 727.62,483.55 ZM 553.29 465.09 C551.18,463.33 551.20,462.00 553.33,462.00 C553.88,462.00 554.05,462.28 553.71,462.62 C553.37,462.97 554.08,464.08 555.29,465.09 C556.51,466.10 557.05,466.93 556.50,466.93 C555.95,466.93 554.51,466.10 553.29,465.09 ZM 623.59 454.81 C624.52,440.42 626.02,428.89 627.40,425.59 C628.13,423.84 629.93,421.62 631.41,420.65 C632.89,419.68 634.91,417.55 635.91,415.90 L 637.73 412.91 L 638.36 416.88 C639.04,421.11 642.90,426.52 645.93,427.48 C647.60,428.01 647.26,429.11 642.45,438.93 C636.92,450.21 633.51,454.84 626.93,460.06 L 623.05 463.13 L 623.59 454.81 ZM 656.20 408.57 C651.38,405.16 651.30,404.90 655.61,406.45 C657.75,407.22 660.39,408.13 661.47,408.48 C663.12,409.00 663.20,409.26 661.97,410.04 C660.03,411.27 660.01,411.27 656.20,408.57 ZM 634.00 408.01 C634.00,407.45 634.42,407.00 634.93,407.00 C636.05,407.00 637.43,403.09 636.60,402.26 C636.28,401.94 635.11,402.50 634.01,403.49 C632.90,404.49 632.00,404.84 632.00,404.26 C632.00,403.69 632.67,402.95 633.50,402.64 C635.72,401.79 635.32,400.20 632.75,399.71 L 630.50 399.27 L 632.75 399.14 C633.99,399.06 635.00,398.74 635.00,398.43 C635.00,397.16 631.95,394.91 631.01,395.50 C630.45,395.84 630.00,395.64 630.00,395.06 C630.00,393.64 632.31,393.71 633.78,395.18 C634.43,395.83 635.24,396.10 635.57,395.77 C635.90,395.44 635.23,394.23 634.08,393.08 C632.94,391.94 632.42,391.00 632.94,391.00 C633.46,391.00 634.48,391.85 635.21,392.90 C636.50,394.74 636.62,394.72 639.27,392.44 C640.77,391.15 642.00,389.62 642.00,389.05 C642.00,388.47 642.48,388.00 643.07,388.00 C643.68,388.00 643.86,388.85 643.50,390.00 C642.76,392.33 644.92,398.97 646.45,399.07 C647.03,399.11 646.61,399.49 645.52,399.92 C643.68,400.63 643.75,400.82 646.52,402.40 C648.99,403.82 649.11,404.03 647.19,403.64 C645.74,403.33 644.67,403.70 644.32,404.61 C643.86,405.81 643.53,405.75 642.41,404.28 C641.14,402.60 641.06,402.61 640.95,404.50 C640.89,405.60 640.62,405.96 640.36,405.31 C640.09,404.65 639.23,404.36 638.44,404.66 C637.65,404.96 637.20,405.52 637.44,405.90 C637.68,406.29 637.00,407.14 635.94,407.81 C634.77,408.54 634.00,408.62 634.00,408.01 ZM 641.80 400.80 C643.39,399.21 643.32,395.82 641.66,393.55 C640.38,391.79 640.24,391.82 638.66,394.08 C637.75,395.38 637.00,397.15 637.00,398.02 C637.00,399.58 638.83,402.00 640.00,402.00 C640.33,402.00 641.14,401.46 641.80,400.80 ZM 645.00 408.00 C645.00,407.45 645.45,407.00 646.00,407.00 C646.55,407.00 647.00,407.45 647.00,408.00 C647.00,408.55 646.55,409.00 646.00,409.00 C645.45,409.00 645.00,408.55 645.00,408.00 ZM 680.04 400.25 C680.06,399.84 682.51,396.80 685.48,393.50 C689.81,388.69 691.13,387.75 692.14,388.75 C692.83,389.44 695.26,390.00 697.53,390.00 L 701.66 390.00 L 697.41 394.43 C694.83,397.12 691.66,399.28 689.33,399.92 C684.88,401.16 679.98,401.33 680.04,400.25 ZM 717.50 390.01 C716.72,387.53 715.30,387.40 714.69,389.75 C714.25,391.42 714.23,391.42 714.12,389.75 C714.05,388.76 713.20,388.00 712.17,388.00 C710.86,388.00 710.41,387.36 710.58,385.75 C710.72,384.51 710.87,383.06 710.92,382.53 C710.96,381.99 711.70,382.56 712.56,383.78 C715.13,387.45 716.29,386.49 715.63,381.25 C715.18,377.73 715.27,377.09 715.98,378.76 C716.51,380.01 717.86,382.01 718.99,383.21 C720.75,385.10 720.82,385.52 719.51,386.25 C717.70,387.26 717.52,389.67 719.20,390.23 C720.08,390.53 720.10,390.82 719.27,391.33 C718.62,391.73 717.87,391.18 717.50,390.01 ZM 704.01 353.76 C704.02,350.77 706.16,345.15 707.47,344.65 C708.26,344.35 709.80,342.39 710.91,340.30 C712.01,338.21 712.93,337.17 712.96,338.00 C712.99,338.83 713.69,340.80 714.52,342.40 C715.36,343.99 715.92,345.40 715.77,345.52 C707.22,352.53 704.00,354.78 704.01,353.76 ZM 710.38 329.62 C711.30,326.99 709.48,325.22 706.24,325.60 C704.73,325.78 704.33,325.68 705.34,325.37 C706.74,324.95 707.03,324.19 706.57,322.16 C706.02,319.74 706.09,319.66 707.37,321.28 C708.61,322.86 708.83,322.88 709.37,321.48 C709.70,320.61 709.62,320.12 709.19,320.38 C708.76,320.65 707.86,320.00 707.19,318.94 C706.19,317.33 706.25,317.00 707.55,317.00 C708.41,317.00 708.86,317.41 708.55,317.91 C707.58,319.48 710.44,319.76 711.58,318.21 C712.52,316.94 712.67,316.96 712.67,318.37 C712.67,319.27 712.26,320.00 711.77,320.00 C710.40,320.00 711.32,325.29 712.76,325.76 C713.46,325.99 714.58,324.89 715.26,323.31 C716.64,320.11 719.49,319.93 720.28,322.98 C720.65,324.36 720.35,324.72 719.14,324.34 C717.91,323.97 718.01,324.27 719.50,325.54 C721.46,327.20 721.44,327.22 718.73,326.59 C716.74,326.13 715.79,326.38 715.37,327.47 C715.05,328.31 714.32,328.70 713.74,328.34 C713.17,327.99 712.03,328.55 711.21,329.60 C709.79,331.43 709.76,331.43 710.38,329.62 Z" fill="rgb(251,246,241)"/>
</g>
</svg>