<?xml version="1.0" encoding="UTF-8" standalone="no"?>
<!-- Created with Inkscape (http://www.inkscape.org/) -->

<svg
   version="1.1"
   id="svg1"
   width="1587.3993"
   height="1122.52"
   viewBox="0 0 1587.3993 1122.52"
   sodipodi:docname="YU.R LOGO (2) (1).svg"
   inkscape:export-filename="YU.R LOGO (2) (1).svg"
   inkscape:export-xdpi="96"
   inkscape:export-ydpi="96"
   inkscape:version="1.4.3 (0d15f75, 2025-12-25)"
   xmlns:inkscape="http://www.inkscape.org/namespaces/inkscape"
   xmlns:sodipodi="http://sodipodi.sourceforge.net/DTD/sodipodi-0.dtd"
   xmlns="http://www.w3.org/2000/svg"
   xmlns:svg="http://www.w3.org/2000/svg">
  <defs
     id="defs1">
    <clipPath
       clipPathUnits="userSpaceOnUse"
       id="clipPath2">
      <path
         d="M 0,841.89 H 1190.55 V 0 H 0 Z"
         transform="translate(-520.71631,-280.33891)"
         id="path2" />
    </clipPath>
    <clipPath
       clipPathUnits="userSpaceOnUse"
       id="clipPath4">
      <path
         d="M 0,841.89 H 1190.55 V 0 H 0 Z"
         transform="translate(-520.77151,-276.9346)"
         id="path4" />
    </clipPath>
    <clipPath
       clipPathUnits="userSpaceOnUse"
       id="clipPath6">
      <path
         d="M 0,841.89 H 1190.55 V 0 H 0 Z"
         transform="translate(-545.54791,-309.54791)"
         id="path6" />
    </clipPath>
    <clipPath
       clipPathUnits="userSpaceOnUse"
       id="clipPath8">
      <path
         d="M 0,841.89 H 1190.55 V 0 H 0 Z"
         transform="translate(-561.40141,-275.7061)"
         id="path8" />
    </clipPath>
    <clipPath
       clipPathUnits="userSpaceOnUse"
       id="clipPath10">
      <path
         d="M 0,841.89 H 1190.55 V 0 H 0 Z"
         id="path10" />
    </clipPath>
    <clipPath
       clipPathUnits="userSpaceOnUse"
       id="clipPath12">
      <path
         d="M 0,841.89 H 1190.55 V 0 H 0 Z"
         id="path12" />
    </clipPath>
    <clipPath
       clipPathUnits="userSpaceOnUse"
       id="clipPath14">
      <path
         d="M 0,841.89 H 1190.55 V 0 H 0 Z"
         transform="translate(-585.85211,-274.9072)"
         id="path14" />
    </clipPath>
    <clipPath
       clipPathUnits="userSpaceOnUse"
       id="clipPath16">
      <path
         d="M 0,841.89 H 1190.55 V 0 H 0 Z"
         transform="translate(-603.55181,-275.7061)"
         id="path16" />
    </clipPath>
    <clipPath
       clipPathUnits="userSpaceOnUse"
       id="clipPath18">
      <path
         d="M 0,841.89 H 1190.55 V 0 H 0 Z"
         transform="translate(-629.32421,-280.33891)"
         id="path18" />
    </clipPath>
    <clipPath
       clipPathUnits="userSpaceOnUse"
       id="clipPath20">
      <path
         d="M 0,841.89 H 1190.55 V 0 H 0 Z"
         transform="translate(-629.35942,-276.9346)"
         id="path20" />
    </clipPath>
    <clipPath
       clipPathUnits="userSpaceOnUse"
       id="clipPath22">
      <path
         d="M 0,841.89 H 1190.55 V 0 H 0 Z"
         transform="translate(-656.34371,-292.02831)"
         id="path22" />
    </clipPath>
    <clipPath
       clipPathUnits="userSpaceOnUse"
       id="clipPath24">
      <path
         d="M 0,841.89 H 1190.55 V 0 H 0 Z"
         transform="translate(-665.17582,-305.67481)"
         id="path24" />
    </clipPath>
    <clipPath
       clipPathUnits="userSpaceOnUse"
       id="clipPath26">
      <path
         d="M 0,841.89 H 1190.55 V 0 H 0 Z"
         transform="translate(-686.56642,-309.54791)"
         id="path26" />
    </clipPath>
    <clipPath
       clipPathUnits="userSpaceOnUse"
       id="clipPath28">
      <path
         d="M 0,841.89 H 1190.55 V 0 H 0 Z"
         transform="translate(-687.38092,-275.7061)"
         id="path28" />
    </clipPath>
    <clipPath
       clipPathUnits="userSpaceOnUse"
       id="clipPath30">
      <path
         d="M 0,841.89 H 1190.55 V 0 H 0 Z"
         transform="translate(-712.15822,-309.54791)"
         id="path30" />
    </clipPath>
    <clipPath
       clipPathUnits="userSpaceOnUse"
       id="clipPath32">
      <path
         d="M 0,841.89 H 1190.55 V 0 H 0 Z"
         transform="translate(-709.35352,-308.75101)"
         id="path32" />
    </clipPath>
    <clipPath
       clipPathUnits="userSpaceOnUse"
       id="clipPath34">
      <path
         d="M 0,841.89 H 1190.55 V 0 H 0 Z"
         transform="translate(-744.50002,-305.78221)"
         id="path34" />
    </clipPath>
    <clipPath
       clipPathUnits="userSpaceOnUse"
       id="clipPath36">
      <path
         d="M 0,841.89 H 1190.55 V 0 H 0 Z"
         transform="translate(-745.34962,-275.7061)"
         id="path36" />
    </clipPath>
    <clipPath
       clipPathUnits="userSpaceOnUse"
       id="clipPath38">
      <path
         d="M 0,841.89 H 1190.55 V 0 H 0 Z"
         id="path38" />
    </clipPath>
    <clipPath
       clipPathUnits="userSpaceOnUse"
       id="clipPath40">
      <path
         d="M 0,841.89 H 1190.55 V 0 H 0 Z"
         id="path40" />
    </clipPath>
    <clipPath
       clipPathUnits="userSpaceOnUse"
       id="clipPath42">
      <path
         d="M 0,841.89 H 1190.55 V 0 H 0 Z"
         transform="translate(-779.88092,-292.02831)"
         id="path42" />
    </clipPath>
    <clipPath
       clipPathUnits="userSpaceOnUse"
       id="clipPath44">
      <path
         d="M 0,841.89 H 1190.55 V 0 H 0 Z"
         transform="translate(-788.71292,-305.67481)"
         id="path44" />
    </clipPath>
    <clipPath
       clipPathUnits="userSpaceOnUse"
       id="clipPath46">
      <path
         d="M 0,841.89 H 1190.55 V 0 H 0 Z"
         transform="translate(-810.06842,-274.9072)"
         id="path46" />
    </clipPath>
    <clipPath
       clipPathUnits="userSpaceOnUse"
       id="clipPath48">
      <path
         d="M 0,841.89 H 1190.55 V 0 H 0 Z"
         transform="translate(-827.7676,-275.7061)"
         id="path48" />
    </clipPath>
    <clipPath
       clipPathUnits="userSpaceOnUse"
       id="clipPath50">
      <path
         d="M 0,841.89 H 1190.55 V 0 H 0 Z"
         transform="translate(-609.32522,-564.74761)"
         id="path50" />
    </clipPath>
    <clipPath
       clipPathUnits="userSpaceOnUse"
       id="clipPath52">
      <path
         d="M 0,841.89 H 1190.55 V 0 H 0 Z"
         transform="translate(-770.63282,-606.47222)"
         id="path52" />
    </clipPath>
    <clipPath
       clipPathUnits="userSpaceOnUse"
       id="clipPath54">
      <path
         d="M 0,841.89 H 1190.55 V 0 H 0 Z"
         transform="translate(-466.22511,-428.12551)"
         id="path54" />
    </clipPath>
    <clipPath
       clipPathUnits="userSpaceOnUse"
       id="clipPath56">
      <path
         d="M 0,841.89 H 1190.55 V 0 H 0 Z"
         transform="translate(-666.67772,-463.95951)"
         id="path56" />
    </clipPath>
  </defs>
  <sodipodi:namedview
     id="namedview1"
     pagecolor="#ffffff"
     bordercolor="#000000"
     borderopacity="0.25"
     inkscape:showpageshadow="2"
     inkscape:pageopacity="0.0"
     inkscape:pagecheckerboard="0"
     inkscape:deskcolor="#d1d1d1"
     inkscape:zoom="0.38419735"
     inkscape:cx="844.618"
     inkscape:cy="787.35576"
     inkscape:window-width="1440"
     inkscape:window-height="900"
     inkscape:window-x="0"
     inkscape:window-y="0"
     inkscape:window-maximized="0"
     inkscape:current-layer="layer-MC0">
    <inkscape:page
       x="0"
       y="0"
       inkscape:label="1"
       id="page1"
       width="1587.3993"
       height="1122.52"
       margin="331.26401 478.496 308.22 552.90936"
       bleed="0" />
  </sodipodi:namedview>
  <g
     id="layer-MC0"
     inkscape:groupmode="layer"
     inkscape:label="Layer 1"
     transform="translate(-1.0042144e-4,23.044674)">
    <path
       id="path1"
       d="m 0,0 c 1.647,-1.232 3.982,-2.244 6.425,-2.244 3.657,0 5.811,2.424 5.811,5.898 0,3.258 -1.467,5.104 -5.249,6.914 -4.507,1.991 -7.276,4.959 -7.276,9.809 0,5.43 3.548,9.449 8.905,9.449 2.895,0 4.923,-0.836 6.135,-1.738 L 13.81,24.467 c -0.959,0.58 -2.823,1.629 -5.268,1.629 -3.854,0 -5.247,-2.825 -5.247,-5.176 0,-3.256 1.72,-4.85 5.52,-6.697 4.669,-2.28 7.059,-5.104 7.059,-10.205 0,-5.323 -3.168,-9.957 -9.701,-9.957 -2.625,0 -5.556,0.98 -7.041,2.175 z"
       style="fill:#231f20;fill-opacity:1;fill-rule:nonzero;stroke:none"
       transform="matrix(1.3333333,0,0,-1.3333333,694.2884,748.7348)"
       clip-path="url(#clipPath2)" />
    <path
       id="path3"
       d="m 0,0 c 1.466,-0.977 3.927,-1.701 6.118,-1.701 6.532,0 8.868,4.924 8.868,9.123 0,4.523 -1.865,7.166 -6.589,9.445 -3.8,1.848 -5.972,3.621 -5.972,7.457 0,2.897 1.901,5.973 6.062,5.973 1.937,0 3.513,-0.543 4.706,-1.193 l 0.561,2.025 c -0.959,0.58 -2.661,1.266 -5.193,1.266 -4.743,0 -8.089,-3.547 -8.089,-8.614 0,-4.162 2.098,-6.949 6.821,-9.049 4.128,-1.99 5.702,-4.127 5.702,-7.673 0,-4.09 -2.606,-6.733 -6.625,-6.733 -1.972,0 -4.071,0.615 -5.863,1.738 z m 6.118,-3.365 c -2.734,0 -5.883,0.978 -7.583,2.388 l -0.399,0.362 1.339,5.467 0.997,-0.76 C 2.172,2.787 4.362,1.99 6.37,1.99 c 3.059,0 4.977,1.955 4.977,5.069 0,2.859 -1.284,4.486 -4.813,6.154 -5.158,2.314 -7.71,5.789 -7.71,10.568 0,6.045 3.981,10.244 9.737,10.244 3.511,0 5.665,-1.158 6.624,-1.882 l 0.47,-0.327 -1.429,-5.32 -0.997,0.652 c -0.977,0.723 -2.605,1.52 -4.742,1.52 -3.257,0 -4.415,-2.316 -4.415,-4.344 0,-2.678 1.195,-4.054 5.049,-5.935 5.286,-2.571 7.512,-5.866 7.512,-10.967 0,-5.358 -3.24,-10.787 -10.515,-10.787"
       style="fill:#231f20;fill-opacity:1;fill-rule:nonzero;stroke:none"
       transform="matrix(1.3333333,0,0,-1.3333333,694.362,753.27387)"
       clip-path="url(#clipPath4)" />
    <path
       id="path5"
       d="m 0,0 h 3.602 v -16.723 h 0.127 c 0.759,1.375 1.502,2.606 2.171,3.729 L 14.388,0 h 4.398 L 8.759,-14.658 19.582,-34.641 h -4.253 l -9.067,17.014 -2.66,-3.764 v -13.25 H 0 Z"
       style="fill:#231f20;fill-opacity:1;fill-rule:nonzero;stroke:none"
       transform="matrix(1.3333333,0,0,-1.3333333,727.3972,709.78947)"
       clip-path="url(#clipPath6)" />
    <path
       id="path7"
       d="M 0,0 H 2.335 L -8.035,19.219 1.34,33.045 H -1.031 L -9.248,20.412 c -0.705,-1.121 -1.412,-2.316 -2.117,-3.656 l -0.289,-0.434 h -1.268 l -0.161,0.797 v 15.926 h -1.938 V 0 h 1.938 v 12.668 l 3.546,5.176 z M 5.104,-1.631 H -1.031 L -9.718,14.621 -11.401,12.16 V -1.631 h -5.249 v 36.305 h 5.249 v -14.66 c 0.253,0.435 0.506,0.869 0.741,1.267 l 8.724,13.393 H 4.525 L -6.099,19.111 Z"
       style="fill:#231f20;fill-opacity:1;fill-rule:nonzero;stroke:none"
       transform="matrix(1.3333333,0,0,-1.3333333,748.5352,754.91187)"
       clip-path="url(#clipPath8)" />
    <path
       id="path9"
       d="m 575.519,274.907 h -3.584 v 34.641 h 3.584 z"
       style="fill:#231f20;fill-opacity:1;fill-rule:nonzero;stroke:none"
       transform="matrix(1.3333333,0,0,-1.3333333,0,1122.52)"
       clip-path="url(#clipPath10)" />
    <path
       id="path11"
       d="m 572.786,275.706 h 1.899 v 33.045 h -1.899 z m 3.565,-1.631 h -5.25 v 36.305 h 5.25 z"
       style="fill:#231f20;fill-opacity:1;fill-rule:nonzero;stroke:none"
       transform="matrix(1.3333333,0,0,-1.3333333,0,1122.52)"
       clip-path="url(#clipPath12)" />
    <path
       id="path13"
       d="m 0,0 v 34.641 h 3.927 l 8.85,-17.52 c 2.046,-4.053 3.639,-7.709 4.996,-11.258 l 0.072,0.039 c -0.361,4.633 -0.434,8.83 -0.434,14.26 v 14.479 h 3.366 V 0 h -3.62 L 8.362,17.594 C 6.461,21.43 4.597,25.412 3.222,29.176 L 3.095,29.104 C 3.347,24.725 3.384,20.561 3.384,14.805 V 0 Z"
       style="fill:#231f20;fill-opacity:1;fill-rule:nonzero;stroke:none"
       transform="matrix(1.3333333,0,0,-1.3333333,781.13613,755.97707)"
       clip-path="url(#clipPath14)" />
    <path
       id="path15"
       d="M 0,0 H 2.263 V 33.045 H 0.544 V 19.363 c 0,-5.066 0.07,-9.412 0.398,-14.152 L 0.978,4.668 -0.289,3.871 -0.724,4.775 c -1.322,3.584 -2.931,7.239 -4.922,11.186 l -8.632,17.084 h -2.589 V 0 h 1.755 v 14.006 c 0,5.756 -0.072,9.881 -0.326,14.299 l -0.035,0.543 1.358,0.578 0.434,-0.76 c 1.194,-3.258 2.803,-6.914 5.103,-11.51 z M 3.909,-1.631 H -1.05 l -8.994,18.063 c -1.412,2.822 -2.624,5.285 -3.565,7.564 0.073,-2.967 0.108,-6.117 0.108,-9.99 V -1.631 h -5.012 v 36.305 h 5.229 l 9.121,-17.988 c 1.213,-2.354 2.263,-4.633 3.205,-6.879 -0.127,3.078 -0.164,6.154 -0.164,9.556 v 15.311 h 5.031 z"
       style="fill:#231f20;fill-opacity:1;fill-rule:nonzero;stroke:none"
       transform="matrix(1.3333333,0,0,-1.3333333,804.73573,754.91187)"
       clip-path="url(#clipPath16)" />
    <path
       id="path17"
       d="m 0,0 c 1.611,-1.232 3.943,-2.244 6.405,-2.244 3.64,0 5.792,2.424 5.792,5.898 0,3.258 -1.503,5.104 -5.229,6.914 -4.526,1.991 -7.294,4.959 -7.294,9.809 0,5.43 3.547,9.449 8.941,9.449 2.823,0 4.85,-0.836 6.098,-1.738 l -0.977,-3.621 c -0.906,0.58 -2.734,1.629 -5.23,1.629 -3.801,0 -5.231,-2.825 -5.231,-5.176 0,-3.256 1.702,-4.85 5.52,-6.697 4.67,-2.28 7.039,-5.104 7.039,-10.205 0,-5.323 -3.166,-9.957 -9.664,-9.957 -2.696,0 -5.592,0.98 -7.094,2.175 z"
       style="fill:#231f20;fill-opacity:1;fill-rule:nonzero;stroke:none"
       transform="matrix(1.3333333,0,0,-1.3333333,839.09893,748.7348)"
       clip-path="url(#clipPath18)" />
    <path
       id="path19"
       d="m 0,0 c 1.467,-0.977 3.946,-1.701 6.135,-1.701 6.498,0 8.832,4.924 8.832,9.123 0,4.523 -1.863,7.166 -6.606,9.445 -3.763,1.848 -5.954,3.621 -5.954,7.457 0,2.897 1.901,5.973 6.064,5.973 1.936,0 3.529,-0.543 4.722,-1.193 l 0.58,2.025 c -1.032,0.58 -2.679,1.266 -5.193,1.266 -4.779,0 -8.109,-3.547 -8.109,-8.614 0,-4.162 2.099,-6.949 6.804,-9.049 4.127,-1.99 5.721,-4.127 5.721,-7.673 0,-4.09 -2.627,-6.733 -6.626,-6.733 -2.026,0 -4.07,0.615 -5.899,1.738 z m 6.135,-3.365 c -2.805,0 -5.916,0.978 -7.619,2.388 l -0.344,0.362 1.249,5.467 1.05,-0.76 C 2.154,2.787 4.344,1.99 6.37,1.99 c 3.06,0 4.96,1.955 4.96,5.069 0,2.859 -1.285,4.486 -4.76,6.154 -5.249,2.314 -7.763,5.789 -7.763,10.568 0,6.045 3.998,10.244 9.773,10.244 3.51,0 5.592,-1.158 6.586,-1.882 l 0.525,-0.327 -1.519,-5.32 -0.942,0.652 c -0.996,0.723 -2.661,1.52 -4.759,1.52 -3.241,0 -4.399,-2.316 -4.399,-4.344 0,-2.678 1.158,-4.054 5.032,-5.935 5.285,-2.571 7.546,-5.866 7.546,-10.967 0,-5.358 -3.257,-10.787 -10.515,-10.787"
       style="fill:#231f20;fill-opacity:1;fill-rule:nonzero;stroke:none"
       transform="matrix(1.3333333,0,0,-1.3333333,839.14587,753.27387)"
       clip-path="url(#clipPath20)" />
    <path
       id="path21"
       d="m 0,0 c 0,-7.383 3.168,-14.043 8.832,-14.043 5.682,0 8.832,6.551 8.832,14.369 0,6.914 -2.842,14.117 -8.832,14.117 C 2.932,14.443 0,7.604 0,0 m 21.428,0.58 c 0,-11.945 -5.737,-18.279 -12.813,-18.279 -7.312,0 -12.414,7.094 -12.414,17.592 0,11.003 5.465,18.244 12.848,18.244 7.529,0 12.379,-7.278 12.379,-17.557"
       style="fill:#231f20;fill-opacity:1;fill-rule:nonzero;stroke:none"
       transform="matrix(1.3333333,0,0,-1.3333333,875.12493,733.14893)"
       clip-path="url(#clipPath22)" />
    <path
       id="path23"
       d="m 0,0 c -5.502,0 -8,-6.877 -8,-13.646 0,-6.551 2.732,-13.211 8,-13.211 5.484,0 8.018,7.023 8.018,13.537 C 8.018,-6.697 5.285,0 0,0 m 0,-28.521 c -5.701,0 -9.664,6.115 -9.664,14.875 0,7.603 2.986,15.273 9.664,15.273 6.678,0 9.684,-7.709 9.684,-14.947 0,-9.049 -3.928,-15.201 -9.684,-15.201 M 0.217,3.654 c -7.112,0 -12.016,-7.166 -12.016,-17.408 0,-9.844 4.705,-16.723 11.582,-16.723 7.33,0 11.998,6.84 11.998,17.411 0,9.99 -4.633,16.72 -11.564,16.72 m -0.434,-35.832 c -7.783,0 -13.248,7.565 -13.248,18.424 0,11.221 5.574,19.039 13.682,19.039 7.926,0 13.23,-7.349 13.23,-18.351 0,-13.211 -6.842,-19.112 -13.664,-19.112"
       style="fill:#231f20;fill-opacity:1;fill-rule:nonzero;stroke:none"
       transform="matrix(1.3333333,0,0,-1.3333333,886.90107,714.9536)"
       clip-path="url(#clipPath24)" />
    <path
       id="path25"
       d="m 0,0 h 3.547 v -30.912 h 11.855 v -3.729 H 0 Z"
       style="fill:#231f20;fill-opacity:1;fill-rule:nonzero;stroke:none"
       transform="matrix(1.3333333,0,0,-1.3333333,915.42187,709.78947)"
       clip-path="url(#clipPath26)" />
    <path
       id="path27"
       d="M 0,0 H 13.719 V 2.133 H 1.957 V 33.045 H 0 Z M 15.383,-1.631 H -1.664 V 34.674 H 3.602 V 3.764 h 11.781 z"
       style="fill:#231f20;fill-opacity:1;fill-rule:nonzero;stroke:none"
       transform="matrix(1.3333333,0,0,-1.3333333,916.50787,754.91187)"
       clip-path="url(#clipPath28)" />
    <path
       id="path29"
       d="m 0,0 v -20.488 c 0,-7.782 2.732,-11.074 6.426,-11.074 4.125,0 6.787,3.402 6.787,11.074 V 0 h 3.582 v -20.199 c 0,-10.641 -4.506,-15.02 -10.479,-15.02 -5.681,0 -9.972,4.09 -9.972,14.805 V 0 Z"
       style="fill:#231f20;fill-opacity:1;fill-rule:nonzero;stroke:none"
       transform="matrix(1.3333333,0,0,-1.3333333,949.54427,709.78947)"
       clip-path="url(#clipPath30)" />
    <path
       id="path31"
       d="m 0,0 v -19.617 c 0,-9.123 3.166,-13.936 9.121,-13.936 6.207,0 9.664,4.994 9.664,14.151 V 0 h -1.99 v -19.691 c 0,-10.352 -4.725,-11.907 -7.565,-11.907 -2.191,0 -7.257,1.159 -7.257,11.907 L 1.973,0 Z m 9.121,-35.254 c -4.017,0 -10.767,2.063 -10.767,15.637 V 1.629 h 5.283 v -21.32 c 0,-6.586 1.974,-10.243 5.593,-10.243 4.922,0 5.918,5.575 5.918,10.243 v 21.32 h 5.248 v -21.031 c 0,-10.026 -4.109,-15.852 -11.275,-15.852"
       style="fill:#231f20;fill-opacity:1;fill-rule:nonzero;stroke:none"
       transform="matrix(1.3333333,0,0,-1.3333333,945.80467,710.852)"
       clip-path="url(#clipPath32)" />
    <path
       id="path33"
       d="M 0,0 H -8.398 V 3.766 H 12.053 V 0 H 3.619 V -30.875 H 0 Z"
       style="fill:#231f20;fill-opacity:1;fill-rule:nonzero;stroke:none"
       transform="matrix(1.3333333,0,0,-1.3333333,992.66667,714.8104)"
       clip-path="url(#clipPath34)" />
    <path
       id="path35"
       d="m 0,0 h 1.937 v 30.91 h 8.434 v 2.135 H -8.416 V 30.91 H 0 Z m 3.602,-1.631 h -5.284 v 30.84 h -8.398 v 5.465 H 12.037 V 29.209 H 3.602 Z"
       style="fill:#231f20;fill-opacity:1;fill-rule:nonzero;stroke:none"
       transform="matrix(1.3333333,0,0,-1.3333333,993.79947,754.91187)"
       clip-path="url(#clipPath36)" />
    <path
       id="path37"
       d="m 767.357,274.907 h -3.584 v 34.641 h 3.584 z"
       style="fill:#231f20;fill-opacity:1;fill-rule:nonzero;stroke:none"
       transform="matrix(1.3333333,0,0,-1.3333333,0,1122.52)"
       clip-path="url(#clipPath38)" />
    <path
       id="path39"
       d="m 764.607,275.706 h 1.9 v 33.045 h -1.9 z m 3.51,-1.631 h -5.213 v 36.305 h 5.213 z"
       style="fill:#231f20;fill-opacity:1;fill-rule:nonzero;stroke:none"
       transform="matrix(1.3333333,0,0,-1.3333333,0,1122.52)"
       clip-path="url(#clipPath40)" />
    <path
       id="path41"
       d="m 0,0 c 0,-7.383 3.168,-14.043 8.795,-14.043 5.666,0 8.869,6.551 8.869,14.369 0,6.914 -2.896,14.117 -8.832,14.117 C 2.949,14.443 0,7.604 0,0 m 21.428,0.58 c 0,-11.945 -5.774,-18.279 -12.85,-18.279 -7.275,0 -12.416,7.094 -12.416,17.592 0,11.003 5.449,18.244 12.852,18.244 7.545,0 12.414,-7.278 12.414,-17.557"
       style="fill:#231f20;fill-opacity:1;fill-rule:nonzero;stroke:none"
       transform="matrix(1.3333333,0,0,-1.3333333,1039.8412,733.14893)"
       clip-path="url(#clipPath42)" />
    <path
       id="path43"
       d="m 0,0 c -5.52,0 -8,-6.877 -8,-13.646 0,-6.551 2.715,-13.211 7.963,-13.211 C 5.502,-26.857 8,-19.834 8,-13.32 8,-6.697 5.266,0 0,0 m -0.037,-28.521 c -5.682,0 -9.645,6.115 -9.645,14.875 0,7.603 2.967,15.273 9.682,15.273 6.643,0 9.664,-7.709 9.664,-14.947 0,-9.049 -3.891,-15.201 -9.701,-15.201 M 0.182,3.654 c -7.078,0 -12.055,-7.166 -12.055,-17.408 0,-9.844 4.814,-16.723 11.619,-16.723 7.33,0 12.053,6.84 12.053,17.411 0,9.99 -4.723,16.72 -11.617,16.72 m -0.436,-35.832 c -7.799,0 -13.228,7.565 -13.228,18.424 0,11.221 5.591,19.039 13.664,19.039 7.925,0 13.246,-7.349 13.246,-18.351 0,-13.211 -6.858,-19.112 -13.682,-19.112"
       style="fill:#231f20;fill-opacity:1;fill-rule:nonzero;stroke:none"
       transform="matrix(1.3333333,0,0,-1.3333333,1051.6172,714.9536)"
       clip-path="url(#clipPath44)" />
    <path
       id="path45"
       d="m 0,0 v 34.641 h 3.926 l 8.851,-17.52 c 2.045,-4.053 3.674,-7.709 4.996,-11.258 l 0.071,0.039 c -0.362,4.633 -0.434,8.83 -0.434,14.26 v 14.479 h 3.365 L 20.775,0 H 17.156 L 8.398,17.594 C 6.461,21.43 4.598,25.412 3.221,29.176 L 3.096,29.104 C 3.295,24.725 3.367,20.561 3.367,14.805 V 0 Z"
       style="fill:#231f20;fill-opacity:1;fill-rule:nonzero;stroke:none"
       transform="matrix(1.3333333,0,0,-1.3333333,1080.0912,755.97707)"
       clip-path="url(#clipPath46)" />
    <path
       id="path47"
       d="M 0,0 H 2.246 V 33.045 H 0.543 V 19.363 c 0,-5.066 0.072,-9.412 0.436,-14.152 L 1.014,4.668 -0.289,3.871 -0.76,4.775 c -1.285,3.584 -2.894,7.239 -4.922,11.186 l -8.595,17.084 H -16.83 V 0 h 1.719 v 14.006 c 0,5.756 -0.127,9.881 -0.327,14.299 v 0.543 l 1.323,0.578 0.396,-0.76 c 1.213,-3.258 2.879,-6.914 5.141,-11.51 z m 3.91,-1.631 h -4.959 l -8.959,18.063 c -1.465,2.822 -2.625,5.285 -3.601,7.564 0.072,-2.967 0.109,-6.117 0.109,-9.99 V -1.631 h -5.031 v 36.305 h 5.248 L -4.18,16.686 c 1.196,-2.354 2.262,-4.633 3.258,-6.879 -0.162,3.078 -0.201,6.154 -0.201,9.556 V 34.674 H 3.91 Z"
       style="fill:#231f20;fill-opacity:1;fill-rule:nonzero;stroke:none"
       transform="matrix(1.3333333,0,0,-1.3333333,1103.6901,754.91187)"
       clip-path="url(#clipPath48)" />
    <path
       id="path49"
       d="m 0,0 v -181.831 c 0.289,-5.32 -1.067,-9.412 -3.945,-12.127 -3.15,-3.001 -8.253,-4.63 -15.329,-4.777 -7.04,0.147 -12.271,1.811 -15.437,4.777 -2.896,2.79 -4.363,6.844 -4.164,12.237 V 0 h -24.359 v -181.793 c 0.434,-22.407 15.184,-34.133 43.815,-34.823 28.215,0.69 42.965,12.489 43.797,35.074 V -0.263 L 0.397,0 Z"
       style="fill:#231f20;fill-opacity:1;fill-rule:nonzero;stroke:none"
       transform="matrix(1.3333333,0,0,-1.3333333,812.4336,369.5232)"
       clip-path="url(#clipPath50)" />
    <path
       id="path51"
       d="m 0,0 c -1.086,0.056 -22.586,0.09 -22.768,0.09 -30.675,0 -43.834,-13.554 -43.834,-45.271 V -263.37 h 24.344 v 218.189 c 0,19.736 5.319,27.056 19.49,27.056 0.291,0 2.227,0 4.924,-0.055 l 3.873,-0.045 c 5.283,0 13.176,-0.116 13.735,-0.116 l 1.738,-0.118 v 18.424 z"
       style="fill:#231f20;fill-opacity:1;fill-rule:nonzero;stroke:none"
       transform="matrix(1.3333333,0,0,-1.3333333,1027.5104,313.8904)"
       clip-path="url(#clipPath52)" />
    <path
       id="path53"
       d="m 0,0 -27.021,181.524 -0.182,1.076 h -24.34 l 39.054,-233.129 0.073,-0.109 -22.042,-127.699 -0.237,-1.34 h 24.323 l 60.195,360.929 0.253,1.348 H 25.771 Z"
       style="fill:#231f20;fill-opacity:1;fill-rule:nonzero;stroke:none"
       transform="matrix(1.3333333,0,0,-1.3333333,621.63347,551.686)"
       clip-path="url(#clipPath54)" />
    <path
       id="path55"
       d="m 0,0 c -7.076,0 -12.83,-5.066 -12.83,-11.293 0,-6.262 5.754,-11.328 12.83,-11.328 7.041,0 12.74,5.066 12.74,11.328 C 12.74,-5.066 7.041,0 0,0"
       style="fill:#231f20;fill-opacity:1;fill-rule:nonzero;stroke:none"
       transform="matrix(1.3333333,0,0,-1.3333333,888.9036,503.90733)"
       clip-path="url(#clipPath56)" />
  </g>
</svg>
