<svg xmlns="http://www.w3.org/2000/svg" width="1060" height="989" viewBox="0 0 1060 989">
<g>
<path d="M 161.41 600.15 C160.80,601.13 126.66,601.33 125.69,600.36 C124.59,599.25 126.03,598.00 128.41,598.00 C131.82,598.00 138.51,592.69 141.47,587.65 C142.90,585.21 149.25,569.77 155.58,553.35 C161.92,536.93 170.25,515.40 174.11,505.50 C177.96,495.60 183.85,479.96 187.18,470.75 C191.65,458.38 193.66,454.00 194.87,454.00 C196.02,454.00 197.64,457.02 200.39,464.25 C202.52,469.89 214.59,500.46 227.19,532.18 C248.38,585.52 250.41,590.13 253.99,593.38 C256.13,595.30 259.69,597.43 261.91,598.09 C264.12,598.75 265.70,599.68 265.41,600.15 C264.66,601.35 218.00,601.25 218.00,600.04 C218.00,599.51 219.75,598.61 221.88,598.03 C230.51,595.71 230.38,592.13 220.79,568.00 L 213.44 549.50 L 187.83 549.23 C164.14,548.99 162.17,549.10 161.53,550.73 C154.05,569.66 148.86,585.00 148.82,588.32 C148.75,593.12 151.64,596.21 157.98,598.11 C160.16,598.76 161.70,599.68 161.41,600.15 ZM 650.47 600.05 C649.74,601.23 615.32,601.33 614.59,600.15 C614.30,599.68 615.86,598.76 618.05,598.10 C623.75,596.40 628.55,591.73 631.90,584.65 C636.17,575.60 669.02,491.00 679.10,463.08 C682.33,454.14 684.43,451.20 685.47,454.17 C691.74,472.11 736.17,583.73 739.33,589.47 C741.63,593.67 747.89,597.96 751.75,597.98 C753.08,597.99 754.00,598.62 754.00,599.50 C754.00,600.79 750.72,601.00 730.50,601.00 C717.20,601.00 707.00,600.61 707.00,600.10 C707.00,599.60 708.43,598.70 710.19,598.09 C714.93,596.43 717.00,594.11 717.00,590.43 C717.00,588.64 713.66,578.70 709.58,568.34 L 702.16 549.50 L 651.28 548.97 L 644.64 566.46 C636.99,586.61 636.30,591.52 640.63,594.92 C642.08,596.06 645.02,597.47 647.16,598.04 C649.31,598.62 650.80,599.52 650.47,600.05 ZM 297.00 451.04 C293.98,451.73 290.94,452.49 290.25,452.75 C289.56,453.00 289.00,452.81 289.00,452.31 C289.00,451.81 290.98,450.44 293.39,449.27 C299.65,446.23 304.74,441.43 308.17,435.35 C309.80,432.46 312.06,429.80 313.20,429.44 C314.33,429.08 317.89,426.36 321.12,423.39 C324.34,420.43 327.68,418.00 328.52,418.00 C329.37,418.00 332.33,416.85 335.09,415.45 C338.04,413.96 340.91,413.16 342.03,413.51 C347.07,415.11 363.26,403.12 369.10,393.45 C371.14,390.10 373.53,387.37 374.60,387.19 C385.02,385.51 391.74,377.06 394.42,362.25 C395.19,357.99 395.86,355.29 395.91,356.25 C396.08,359.61 397.53,357.86 401.94,348.97 C405.92,340.95 412.00,332.92 412.00,335.69 C412.00,336.28 411.33,337.32 410.50,338.00 C409.67,338.68 409.00,339.70 409.00,340.25 C409.00,341.64 414.98,340.33 417.01,338.49 C419.17,336.53 419.90,336.61 419.49,338.75 C419.30,339.71 419.12,340.81 419.08,341.18 C419.03,341.55 416.54,342.16 413.53,342.54 C408.38,343.18 407.90,343.49 405.15,347.86 C402.51,352.06 397.50,364.83 398.21,365.54 C399.19,366.52 405.33,362.58 406.77,360.04 C408.86,356.38 410.75,356.14 411.58,359.44 C412.37,362.62 411.44,364.00 408.50,364.00 C406.14,364.00 400.10,366.99 396.79,369.79 C395.85,370.58 394.33,373.54 393.41,376.37 C391.29,382.88 390.22,384.07 382.92,387.96 C379.64,389.71 376.23,392.35 375.34,393.82 C374.46,395.29 372.44,398.43 370.87,400.78 C369.29,403.13 368.00,405.21 368.00,405.39 C368.00,406.07 381.61,402.74 385.00,401.24 C386.92,400.38 391.65,399.61 395.50,399.51 C401.07,399.38 403.85,398.70 409.14,396.17 C412.80,394.43 416.85,392.99 418.14,392.98 C419.44,392.97 422.98,391.58 426.00,389.90 C429.02,388.21 433.75,385.94 436.50,384.84 C439.25,383.75 442.79,381.65 444.37,380.18 C447.60,377.18 454.00,364.70 454.00,361.43 C454.00,358.62 456.07,352.74 456.81,353.47 C457.12,353.79 457.26,356.40 457.12,359.27 L 456.87 364.50 L 463.71 357.75 C470.72,350.84 472.62,349.84 473.65,352.54 C474.04,353.56 472.02,356.39 467.72,360.84 C464.13,364.56 460.03,370.03 458.60,372.99 C457.17,375.95 456.00,378.50 456.00,378.65 C456.00,379.62 466.35,374.22 470.50,371.08 C479.31,364.44 480.23,364.00 485.57,364.00 C489.12,364.00 492.15,363.23 495.40,361.50 C497.99,360.12 500.98,359.00 502.04,359.00 C504.27,359.00 511.32,354.84 521.90,347.28 C525.97,344.38 529.68,342.00 530.15,342.00 C530.62,342.00 533.34,340.88 536.19,339.50 C539.04,338.12 542.16,337.00 543.13,337.00 C546.42,337.00 546.11,338.98 542.55,340.68 C540.60,341.61 539.00,342.74 539.00,343.19 C539.00,343.63 541.72,344.00 545.04,344.00 C548.37,344.00 554.55,344.75 558.79,345.68 C567.28,347.52 572.60,347.58 574.69,345.85 C575.44,345.22 576.36,345.03 576.75,345.41 C577.13,345.80 576.79,346.51 576.00,347.00 C575.21,347.49 574.77,348.06 575.03,348.27 C576.20,349.20 584.04,351.00 586.92,351.00 C588.67,351.00 591.51,351.73 593.23,352.62 C598.29,355.24 607.86,353.78 616.61,349.07 C622.66,345.80 624.84,345.18 631.20,344.85 C637.52,344.54 639.26,344.04 642.34,341.69 C644.93,339.71 646.01,338.11 646.03,336.20 C646.06,333.80 648.95,329.00 650.36,329.00 C650.65,329.00 650.43,330.33 649.87,331.95 C649.21,333.82 649.18,335.51 649.79,336.58 C650.51,337.88 650.01,338.94 647.62,341.18 L 644.50 344.10 L 657.00 343.42 C663.88,343.04 673.82,342.82 679.09,342.92 C685.55,343.04 690.12,342.60 693.09,341.56 C698.60,339.65 699.07,339.64 698.36,341.50 C698.05,342.33 698.28,343.00 698.89,343.00 C699.50,343.00 700.00,343.43 700.00,343.96 C700.00,344.53 694.57,344.91 686.75,344.89 C679.46,344.87 671.06,345.18 668.07,345.57 C662.73,346.28 662.67,346.32 664.78,348.02 C668.06,350.68 666.33,351.07 661.16,348.84 C657.02,347.05 655.90,346.96 651.18,348.00 C648.26,348.64 642.78,349.03 639.00,348.86 C632.74,348.57 631.20,348.93 621.58,353.02 C611.07,357.48 608.98,358.99 613.25,359.02 C616.75,359.04 618.77,360.63 617.23,362.17 C616.23,363.17 615.33,363.04 612.74,361.50 C610.30,360.05 607.41,359.54 601.00,359.44 C596.33,359.36 590.25,358.77 587.50,358.12 C581.44,356.69 574.75,355.34 569.88,354.55 L 566.26 353.96 L 568.60 358.73 C569.89,361.35 570.95,364.58 570.97,365.91 C571.00,368.48 578.23,375.94 583.28,378.61 C584.81,379.42 585.80,380.51 585.49,381.02 C585.17,381.54 582.53,380.62 579.62,378.98 C576.72,377.34 574.00,376.00 573.59,376.00 C573.17,376.00 573.85,377.64 575.09,379.64 C576.62,382.13 576.89,383.13 575.92,382.81 C574.04,382.19 570.08,376.28 569.39,373.06 C568.21,367.55 563.41,357.72 560.74,355.33 C554.97,350.17 535.60,349.58 526.39,354.28 C523.58,355.72 519.92,358.04 518.25,359.44 C516.58,360.85 514.74,362.00 514.16,362.00 C513.58,362.00 511.88,363.14 510.38,364.52 C508.88,365.91 506.72,367.24 505.58,367.47 C487.85,371.11 483.79,372.85 473.30,381.35 C468.79,385.01 464.60,388.00 464.00,388.00 C463.40,388.00 461.46,388.76 459.70,389.69 C457.94,390.62 454.02,391.69 451.00,392.08 C443.23,393.07 434.33,396.62 433.72,398.98 C433.00,401.71 427.67,404.65 422.11,405.39 C419.45,405.74 415.88,407.11 413.99,408.51 C412.13,409.88 409.60,411.00 408.37,411.00 C407.14,411.00 404.87,411.48 403.33,412.06 C401.79,412.65 397.15,413.25 393.01,413.40 C384.85,413.70 377.42,416.31 373.00,420.44 C368.20,424.92 364.44,426.04 350.95,427.00 C335.28,428.12 330.64,429.85 323.42,437.28 C320.62,440.15 316.69,443.68 314.68,445.12 C311.16,447.63 309.16,448.30 297.00,451.04 ZM 930.50 538.00 L 930.50 603.50 L 928.00 603.78 C925.84,604.03 924.42,602.53 917.55,592.78 C913.18,586.58 906.40,577.00 902.50,571.50 C898.60,566.00 890.65,554.75 884.85,546.50 C870.98,526.79 852.18,500.10 842.92,487.00 L 835.50 476.50 L 835.24 531.27 C834.99,584.51 835.04,586.16 837.00,590.00 C839.27,594.45 842.55,596.50 849.95,598.08 C859.60,600.15 855.11,601.00 834.50,601.00 C823.22,601.00 814.00,600.60 814.00,600.12 C814.00,599.63 815.95,598.75 818.33,598.15 C824.14,596.68 827.72,593.68 828.96,589.20 C829.61,586.86 829.99,564.16 829.99,527.48 C830.00,472.89 829.89,469.26 828.14,465.98 C826.22,462.36 821.99,460.16 816.75,460.06 C815.00,460.02 814.00,459.46 814.00,458.50 C814.00,457.23 816.43,457.00 829.90,457.00 L 845.79 457.00 L 878.36 503.43 C921.46,564.87 924.37,568.94 925.25,568.97 C925.66,568.99 925.99,547.29 925.98,520.75 C925.96,475.57 925.84,472.23 924.06,468.33 C921.83,463.41 919.56,461.99 911.57,460.52 C908.31,459.92 905.46,458.88 905.24,458.21 C904.93,457.29 910.19,457.00 927.50,457.00 C945.05,457.00 950.07,457.28 949.75,458.24 C949.53,458.92 947.42,459.80 945.07,460.20 C938.92,461.25 934.79,463.99 932.50,468.53 C930.56,472.38 930.50,474.49 930.50,538.00 ZM 391.03 601.07 C378.02,605.12 364.46,604.18 348.18,598.10 C338.65,594.55 336.13,594.75 332.54,599.33 C330.76,601.61 329.98,602.05 329.63,600.97 C329.37,600.16 328.88,590.39 328.53,579.25 C328.02,562.96 328.15,559.00 329.20,559.00 C329.93,559.00 331.30,561.72 332.33,565.25 C336.31,578.86 344.78,589.30 356.51,595.08 C363.08,598.32 364.02,598.50 373.98,598.50 C382.86,598.50 385.12,598.16 388.50,596.34 C397.55,591.45 402.01,583.97 401.98,573.78 C401.93,560.46 396.43,554.44 372.49,541.50 C351.91,530.38 343.84,524.40 338.27,516.15 C332.99,508.32 331.62,503.63 331.68,493.50 C331.78,475.16 343.06,461.54 362.00,456.89 C370.07,454.92 385.04,455.45 393.50,458.02 C397.35,459.19 402.18,460.65 404.23,461.27 C407.54,462.27 408.30,462.15 410.94,460.20 C412.58,458.99 414.40,458.00 414.98,458.00 C415.70,458.00 415.96,463.70 415.77,475.75 C415.62,485.51 415.11,493.50 414.64,493.50 C414.17,493.50 412.78,490.75 411.56,487.39 C406.91,474.52 401.24,467.83 391.05,463.16 C383.78,459.83 371.48,459.02 364.34,461.39 C348.16,466.76 342.09,485.16 351.99,498.82 C356.55,505.12 364.34,510.65 382.28,520.30 C401.71,530.76 408.80,536.08 413.96,544.07 C418.68,551.36 420.40,558.15 419.77,566.96 C418.63,582.90 407.70,595.88 391.03,601.07 ZM 545.45 600.07 C544.67,601.35 493.30,601.29 492.51,600.02 C492.17,599.47 493.71,598.75 496.01,598.38 C501.60,597.49 506.26,594.13 507.69,589.97 C508.56,587.44 508.90,570.60 508.94,528.00 C508.99,471.78 508.92,469.38 507.05,466.31 C504.76,462.55 502.38,461.13 496.78,460.18 C494.51,459.79 492.47,458.92 492.25,458.24 C491.92,457.27 497.88,457.00 519.00,457.00 C547.91,457.00 551.67,457.73 539.04,460.90 C536.10,461.64 533.98,461.87 532.45,462.94 C528.47,465.72 528.43,474.13 528.25,511.64 C528.23,515.26 528.21,519.14 528.18,523.32 C528.01,553.67 528.17,581.40 528.54,584.94 C529.37,593.05 532.37,596.31 540.55,598.01 C543.56,598.64 545.77,599.56 545.45,600.07 ZM 164.68 544.25 C165.29,545.30 209.76,545.19 210.41,544.14 C210.71,543.67 205.70,530.09 199.28,513.97 C191.15,493.51 187.35,485.08 186.74,486.08 C184.95,488.98 164.26,543.53 164.68,544.25 ZM 654.00 543.65 C654.00,544.74 658.29,545.00 676.44,545.00 C688.78,545.00 699.09,544.66 699.34,544.25 C699.93,543.27 677.48,486.66 676.35,486.28 C675.88,486.13 672.70,493.31 669.30,502.25 C665.89,511.19 661.06,523.86 658.55,530.40 C656.05,536.95 654.00,542.91 654.00,543.65 ZM 809.85 694.21 C796.61,701.04 782.66,692.24 782.58,677.00 C782.56,672.97 783.21,670.32 785.03,667.07 C791.50,655.48 809.29,654.93 816.68,666.10 C819.10,669.75 819.49,671.32 819.44,677.17 C819.40,683.06 818.99,684.56 816.44,688.15 C814.82,690.45 811.86,693.17 809.85,694.21 ZM 248.60 692.60 L 245.20 696.00 L 224.00 696.00 L 224.00 659.00 L 234.42 659.00 C246.52,659.00 247.58,659.28 249.54,663.07 C251.57,667.00 251.37,670.27 248.90,673.40 L 246.79 676.08 L 249.40 678.49 C253.40,682.20 253.06,688.14 248.60,692.60 ZM 795.12 690.29 C807.42,696.35 819.32,682.70 812.81,670.00 C810.13,664.79 807.21,663.04 801.20,663.01 C794.98,662.99 791.18,665.34 788.84,670.64 C785.52,678.14 788.33,686.95 795.12,690.29 ZM 860.79 689.36 C860.57,693.93 860.11,695.55 858.95,695.77 C858.10,695.94 857.09,695.75 856.70,695.37 C856.32,694.98 856.00,686.64 856.00,676.83 L 856.00 659.00 L 865.87 659.00 C876.88,659.00 879.59,660.18 882.01,666.02 C884.86,672.91 878.63,682.00 871.05,682.00 C868.96,682.00 865.86,682.28 864.17,682.62 C861.17,683.22 861.08,683.40 860.79,689.36 ZM 355.19 691.00 C353.46,695.15 352.68,696.00 350.56,696.00 C349.15,696.00 348.00,695.84 348.00,695.64 C348.00,695.44 351.55,687.00 355.89,676.89 C363.44,659.28 363.89,658.50 366.58,658.50 C369.27,658.50 369.68,659.22 376.66,676.00 C380.66,685.62 383.94,694.06 383.96,694.75 C383.98,695.44 383.06,696.00 381.91,696.00 C380.36,696.00 379.29,694.73 377.72,691.00 L 375.60 686.00 L 357.27 686.00 ZM 491.19 339.96 C488.82,340.59 486.27,341.34 485.54,341.62 C484.80,341.91 483.91,341.66 483.54,341.07 C483.18,340.48 483.55,340.00 484.36,340.00 C486.84,340.00 492.00,334.99 492.00,332.58 C492.00,331.35 493.65,328.57 495.66,326.42 C497.72,324.21 501.12,318.38 503.45,313.07 C505.72,307.88 508.09,303.47 508.71,303.26 C509.44,303.02 509.63,303.72 509.26,305.19 C508.71,307.39 508.78,307.42 510.59,305.84 C513.95,302.91 527.86,293.16 532.76,290.30 C535.37,288.78 539.39,285.60 541.70,283.23 C545.64,279.19 545.95,279.05 546.95,280.91 C547.86,282.61 547.31,283.48 543.00,287.19 C540.25,289.56 538.00,291.76 538.00,292.08 C538.00,292.84 543.77,292.51 547.25,291.55 C548.90,291.09 550.00,291.18 550.00,291.76 C550.00,293.25 541.16,295.49 535.29,295.49 C530.91,295.50 529.88,295.86 528.87,297.74 C528.21,298.98 525.49,300.97 522.83,302.17 C520.18,303.37 518.00,304.94 518.00,305.64 C518.00,306.35 516.99,307.45 515.75,308.09 C511.56,310.25 508.82,313.48 506.06,319.50 C504.55,322.80 501.66,327.47 499.63,329.87 C496.95,333.06 496.24,334.58 496.99,335.49 C498.38,337.16 496.65,338.50 491.19,339.96 ZM 720.79 687.25 C720.52,694.94 720.35,695.52 718.25,695.82 L 716.00 696.14 L 716.00 659.00 L 718.46 659.00 C720.83,659.00 720.93,659.26 721.21,666.75 L 721.50 674.50 L 740.50 674.50 L 740.79 666.75 C741.07,659.24 741.16,659.00 743.56,659.00 L 746.05 659.00 L 745.77 677.25 C745.50,695.32 745.48,695.50 743.25,695.82 C741.07,696.13 741.00,695.88 741.00,687.57 L 741.00 679.00 L 721.08 679.00 ZM 441.96 694.75 C439.55,695.99 436.42,697.00 435.00,697.00 C433.58,697.00 430.42,695.99 427.96,694.75 C421.10,691.29 420.00,688.19 420.00,672.25 L 420.00 659.00 L 425.00 659.00 L 425.00 671.45 C425.00,678.98 425.47,684.94 426.19,686.53 C428.41,691.40 434.68,693.25 439.85,690.58 C444.17,688.34 445.00,685.19 445.00,670.95 L 445.00 658.00 L 450.00 658.00 L 450.00 671.77 C450.00,688.12 448.93,691.18 441.96,694.75 ZM 674.73 694.39 C668.88,698.11 658.72,696.64 654.21,691.44 C652.42,689.37 652.17,688.50 653.08,687.40 C654.74,685.40 655.94,685.65 658.15,688.46 C661.77,693.06 670.61,693.05 673.63,688.44 C676.53,684.02 674.36,681.45 665.58,678.89 C656.42,676.23 653.49,673.55 653.64,667.95 C653.76,663.35 655.28,661.20 659.72,659.35 C666.07,656.69 675.61,658.54 677.93,662.87 C678.84,664.56 678.67,665.11 676.97,666.02 C675.27,666.93 674.60,666.73 673.12,664.90 C669.51,660.44 658.00,662.91 658.00,668.13 C658.00,670.56 661.15,672.49 669.10,674.95 C676.36,677.19 678.67,679.12 679.59,683.68 C680.30,687.27 678.03,692.30 674.73,694.39 ZM 313.80 693.79 C313.52,695.27 311.90,695.54 301.93,695.78 C295.59,695.93 290.06,695.73 289.66,695.33 C289.26,694.93 288.98,686.59 289.05,676.80 L 289.16 659.00 L 301.66 659.00 C313.01,659.00 314.12,659.16 313.81,660.75 C313.52,662.25 312.08,662.54 303.69,662.79 L 293.90 663.07 L 294.20 668.79 L 294.50 674.50 L 302.82 674.79 C310.03,675.04 311.09,675.31 310.80,676.79 C310.53,678.21 309.07,678.55 302.19,678.79 L 293.91 679.08 L 294.20 685.29 L 294.50 691.50 L 304.32 691.79 C312.96,692.04 314.09,692.28 313.80,693.79 ZM 564.80 688.18 C564.52,694.90 564.32,695.53 562.25,695.82 C560.08,696.13 560.00,695.85 560.00,688.42 C560.00,680.90 559.88,680.51 555.14,673.10 C552.47,668.92 549.53,664.04 548.62,662.25 L 546.95 659.00 L 549.51 659.00 C551.33,659.00 552.62,659.93 553.99,662.25 C555.05,664.04 557.44,667.90 559.30,670.84 L 562.68 676.18 L 567.65 667.90 C571.49,661.49 573.27,659.44 575.51,658.84 C577.10,658.41 578.53,658.19 578.68,658.35 C578.84,658.50 575.84,663.63 572.03,669.75 C565.28,680.56 565.08,681.06 564.80,688.18 ZM 502.22 691.25 C502.03,695.26 501.69,696.00 500.00,696.00 C498.08,696.00 498.00,695.33 498.00,679.55 L 498.00 663.10 L 491.76 662.80 C486.93,662.57 485.45,662.13 485.21,660.87 C484.80,658.73 488.14,658.36 503.30,658.84 C513.58,659.17 515.06,659.43 514.79,660.86 C514.55,662.11 513.11,662.57 508.74,662.80 L 503.00 663.10 L 502.78 668.30 C502.67,671.16 502.54,676.42 502.50,680.00 C502.46,683.58 502.33,688.64 502.22,691.25 ZM 861.75 677.43 C862.16,677.85 865.15,678.00 868.40,677.77 C873.03,677.44 874.70,676.86 876.15,675.06 C878.58,672.06 878.50,667.91 875.96,665.19 C874.27,663.37 872.82,663.00 867.46,663.00 L 861.00 663.00 L 861.00 669.83 C861.00,673.59 861.34,677.01 861.75,677.43 ZM 229.75 691.43 C230.16,691.85 233.29,692.01 236.69,691.80 C243.82,691.35 247.00,689.23 247.00,684.92 C247.00,680.26 244.75,679.00 236.43,679.00 L 229.00 679.00 L 229.00 684.83 C229.00,688.04 229.34,691.01 229.75,691.43 ZM 229.67 674.33 C230.77,675.44 239.97,675.08 242.32,673.85 C245.08,672.39 245.97,671.06 245.98,668.32 C246.01,664.36 243.45,663.00 235.93,663.00 L 229.00 663.00 L 229.00 668.33 C229.00,671.27 229.30,673.97 229.67,674.33 ZM 359.78 681.45 C360.09,681.75 363.18,682.00 366.67,682.00 C371.08,682.00 372.99,681.62 372.97,680.75 C372.92,678.49 367.42,665.84 366.49,665.83 C365.38,665.82 359.01,680.67 359.78,681.45 ZM 739.90 359.38 C740.80,360.46 740.61,360.87 739.02,361.28 C737.45,361.70 737.00,361.33 737.00,359.63 C737.00,356.59 731.80,350.61 727.28,348.46 C722.23,346.07 724.63,345.46 731.38,347.42 C734.37,348.29 738.31,349.01 740.15,349.01 C744.81,349.03 748.09,350.04 747.36,351.23 C747.02,351.77 747.36,352.62 748.12,353.10 C750.33,354.50 747.27,354.21 741.59,352.49 C738.88,351.67 736.47,351.20 736.23,351.44 C735.98,351.68 736.76,353.26 737.96,354.94 C739.16,356.62 739.83,358.00 739.45,358.00 C739.07,358.00 739.27,358.62 739.90,359.38 ZM 594.42 239.67 C592.46,242.05 590.45,244.00 589.93,244.00 C588.49,244.00 588.77,243.30 591.98,238.87 C593.61,236.61 595.24,233.24 595.59,231.38 C595.94,229.52 596.67,228.00 597.22,228.00 C597.77,228.00 597.95,228.68 597.64,229.50 C596.48,232.51 599.04,230.89 601.63,226.98 C604.67,222.39 605.93,222.31 603.57,226.86 C602.71,228.53 602.00,230.14 602.00,230.44 C602.00,230.73 604.51,230.03 607.57,228.89 C610.63,227.74 613.31,226.98 613.53,227.20 C613.89,227.56 611.22,228.99 601.73,233.53 C599.66,234.52 596.37,237.28 594.42,239.67 ZM 556.00 270.03 C556.00,270.57 554.91,271.00 553.59,271.00 L 551.17 271.00 L 553.28 266.00 C555.37,261.06 557.30,259.13 556.29,263.00 C555.63,265.51 556.79,265.51 560.00,263.00 C561.38,261.92 563.11,261.03 563.86,261.02 C564.60,261.01 566.96,259.61 569.11,257.92 C571.78,255.79 573.00,255.29 573.00,256.29 C573.00,257.10 569.17,260.30 564.50,263.41 C559.83,266.52 556.00,269.50 556.00,270.03 ZM 715.36 305.58 C714.43,305.23 712.90,305.69 711.86,306.63 C710.83,307.55 710.00,307.85 710.00,307.28 C710.00,306.71 710.67,305.68 711.50,305.00 C712.33,304.32 713.00,302.41 713.00,300.77 C713.00,298.46 713.36,297.92 714.58,298.39 C715.45,298.73 716.35,299.00 716.58,299.00 C716.81,299.00 717.00,300.62 717.00,302.61 C717.00,305.54 716.69,306.10 715.36,305.58 ZM 490.62 319.00 C490.72,325.24 490.02,327.47 488.65,325.25 C487.87,323.98 487.79,316.63 488.53,314.25 C489.79,310.23 490.50,311.85 490.62,319.00 ZM 397.99 343.25 C397.99,343.94 397.19,345.70 396.23,347.17 C394.84,349.27 394.10,349.63 392.73,348.87 C390.66,347.71 390.42,345.00 392.39,345.00 C393.16,345.00 394.05,344.33 394.36,343.50 C395.06,341.69 398.00,341.49 397.99,343.25 ZM 599.84 223.60 C598.17,227.03 596.70,227.55 594.62,225.47 C592.44,223.29 592.35,220.21 594.52,222.02 C595.76,223.05 596.40,222.95 598.02,221.48 C600.64,219.12 601.52,220.15 599.84,223.60 ZM 517.50 279.00 C517.16,279.55 516.39,280.00 515.79,280.00 C515.18,280.00 515.45,279.17 516.37,278.14 C517.36,277.04 517.78,275.58 517.38,274.56 C516.85,273.17 517.19,272.89 519.11,273.16 C522.25,273.61 523.18,278.00 520.13,278.00 C519.02,278.00 517.84,278.45 517.50,279.00 ZM 512.44 267.38 C512.08,268.82 511.23,270.00 510.55,270.00 C508.91,270.00 505.99,266.72 506.03,264.92 C506.05,263.92 506.49,264.07 507.53,265.44 C508.98,267.36 509.01,267.36 510.42,265.44 C512.23,262.97 513.29,263.99 512.44,267.38 ZM 762.38 346.54 C762.70,347.39 762.38,349.53 761.66,351.29 C760.39,354.39 760.31,354.43 759.21,352.38 C758.58,351.22 758.39,349.94 758.79,349.55 C759.18,349.15 759.56,348.42 759.62,347.92 C759.69,347.41 759.81,346.55 759.88,346.00 C760.07,344.46 761.72,344.82 762.38,346.54 ZM 423.00 325.74 C423.00,327.43 422.42,328.00 420.70,328.00 C418.67,328.00 418.45,327.60 418.80,324.56 C419.17,321.46 419.40,321.23 421.10,322.30 C422.15,322.95 423.00,324.50 423.00,325.74 ZM 613.14 213.03 C610.13,215.54 609.37,215.51 608.66,212.83 C607.95,210.09 608.87,208.47 610.31,209.91 C610.91,210.51 612.32,211.01 613.45,211.03 C615.42,211.07 615.40,211.15 613.14,213.03 ZM 621.00 224.56 C621.00,226.24 619.98,226.76 617.71,226.24 C616.38,225.94 616.09,225.27 616.58,223.67 C616.95,222.48 617.41,221.32 617.60,221.11 C618.23,220.40 621.00,223.21 621.00,224.56 ZM 642.67 397.51 C642.86,398.06 642.10,399.08 641.00,399.77 C639.90,400.45 638.96,400.90 638.92,400.76 C638.87,400.62 638.72,399.47 638.58,398.20 C638.38,396.41 638.77,395.97 640.34,396.20 C641.44,396.37 642.49,396.95 642.67,397.51 ZM 785.00 367.56 C785.00,369.12 781.47,369.56 780.57,368.11 C779.82,366.90 782.67,364.67 783.96,365.47 C784.53,365.83 785.00,366.77 785.00,367.56 ZM 606.00 406.00 C606.00,407.37 605.33,408.00 603.89,408.00 C602.38,408.00 601.96,407.55 602.39,406.42 C602.73,405.55 603.00,404.65 603.00,404.42 C603.00,404.19 603.67,404.00 604.50,404.00 C605.33,404.00 606.00,404.89 606.00,406.00 ZM 705.39 337.42 C704.46,339.85 703.00,339.29 703.00,336.50 C703.00,334.94 703.57,334.00 704.50,334.00 C706.11,334.00 706.35,334.92 705.39,337.42 ZM 599.50 396.99 C598.69,398.30 597.29,398.28 596.46,396.93 C595.54,395.44 596.61,394.63 598.52,395.37 C599.40,395.71 599.85,396.44 599.50,396.99 Z" fill="rgb(21,21,21)"/>
<path d="M 694.00 318.00 C694.00,319.95 691.16,320.83 689.67,319.33 C688.15,317.82 689.15,316.00 691.50,316.00 C693.33,316.00 694.00,316.53 694.00,318.00 ZM 512.44 267.38 C512.48,267.23 512.51,267.08 512.54,266.94 C512.53,267.34 512.51,267.77 512.47,268.25 C512.27,270.59 512.08,273.51 512.05,274.75 C512.02,275.99 511.50,277.00 510.89,277.00 C510.20,277.00 509.95,275.76 510.25,273.78 C510.54,271.77 510.34,270.67 509.31,269.57 C509.76,269.84 510.18,270.00 510.55,270.00 C511.23,270.00 512.08,268.82 512.44,267.38 ZM 698.45 342.84 C699.01,343.07 700.37,342.95 703.09,342.59 C707.49,342.01 708.26,342.12 707.23,343.16 C706.58,343.82 703.86,344.23 698.15,344.48 C699.34,344.33 700.00,344.16 700.00,343.96 C700.00,343.43 699.50,343.00 698.89,343.00 C698.71,343.00 698.56,342.94 698.45,342.84 ZM 679.91 344.95 C674.54,345.14 669.96,345.39 668.07,345.62 C664.68,346.04 663.42,346.21 663.49,346.71 C663.41,346.20 664.67,346.02 668.07,345.57 C670.14,345.30 674.81,345.07 679.91,344.95 ZM 511.92 264.10 C511.53,264.19 511.01,264.63 510.42,265.44 C510.19,265.76 509.99,266.03 509.82,266.24 C509.91,266.10 510.00,265.93 510.11,265.75 C510.87,264.41 511.49,263.88 511.92,264.10 ZM 508.69 266.78 C508.40,266.59 508.06,266.14 507.53,265.44 C506.65,264.28 506.20,263.99 506.07,264.55 C506.18,263.81 506.52,264.10 507.59,265.50 C508.08,266.14 508.42,266.56 508.69,266.78 ZM 506.03 265.06 C506.08,265.79 506.56,266.73 507.22,267.60 C506.50,266.74 506.02,265.80 506.03,265.18 C506.03,265.14 506.03,265.10 506.03,265.06 Z" fill="rgb(78,77,75)"/>
<path d="M 630.36 382.50 C629.67,384.30 626.86,384.46 625.20,382.80 C623.63,381.23 623.66,379.02 625.25,378.92 C625.94,378.88 627.26,378.70 628.18,378.52 C630.08,378.16 631.23,380.25 630.36,382.50 ZM 755.08 372.13 C750.88,373.05 747.44,371.48 748.85,369.28 C749.78,367.84 753.30,366.91 754.60,367.77 C755.74,368.53 756.11,371.90 755.08,372.13 ZM 590.24 336.58 C589.96,336.30 588.92,336.51 587.93,337.04 C585.47,338.35 582.42,334.40 584.22,332.23 C585.20,331.06 585.52,331.18 586.19,332.99 C586.92,334.96 587.13,335.01 588.57,333.58 C590.64,331.51 590.75,331.56 590.75,334.54 C590.75,335.94 590.52,336.86 590.24,336.58 ZM 588.75 393.66 C586.76,394.91 585.58,394.85 584.25,393.42 C581.49,390.46 583.52,388.37 587.43,390.15 C590.26,391.44 590.65,392.47 588.75,393.66 ZM 500.40 291.74 C498.94,293.20 497.61,293.43 498.45,292.09 C498.76,291.58 498.45,290.96 497.76,290.71 C496.75,290.34 496.75,289.99 497.75,288.92 C498.44,288.20 499.00,286.79 499.00,285.80 C499.00,284.81 499.44,284.00 499.97,284.00 C500.50,284.00 500.64,284.79 500.28,285.75 C499.74,287.19 499.89,287.29 501.10,286.31 C502.30,285.33 502.57,285.46 502.57,286.98 C502.57,288.01 502.16,288.60 501.66,288.29 C501.15,287.98 500.95,288.34 501.20,289.10 C501.45,289.86 501.09,291.05 500.40,291.74 ZM 535.56 305.29 C535.96,306.34 535.38,306.75 533.48,306.75 C530.51,306.75 528.97,304.26 531.10,302.91 C532.93,301.76 535.00,301.76 535.00,302.92 C535.00,303.42 535.25,304.49 535.56,305.29 ZM 676.99 356.98 C676.41,356.04 676.15,356.05 675.83,357.00 C675.54,357.87 675.05,357.76 674.10,356.62 C673.37,355.74 673.08,354.24 673.44,353.29 C674.01,351.81 674.24,351.77 675.04,353.03 C675.64,353.97 675.97,354.06 675.98,353.28 C675.99,352.61 676.61,352.30 677.35,352.58 C678.19,352.90 678.52,354.06 678.22,355.64 C677.91,357.28 677.47,357.75 676.99,356.98 ZM 476.05 336.72 C474.97,336.44 473.93,336.70 473.73,337.31 C473.52,337.93 473.12,337.75 472.79,336.90 C472.47,336.07 472.83,334.30 473.57,332.95 C474.32,331.60 474.95,331.09 474.96,331.81 C474.98,332.53 475.45,332.84 476.00,332.50 C476.55,332.16 477.00,332.32 477.00,332.86 C477.00,333.39 476.44,334.06 475.75,334.34 C475.00,334.64 475.20,334.87 476.25,334.92 C477.21,334.96 478.00,335.50 478.00,336.12 C478.00,336.73 477.12,337.00 476.05,336.72 ZM 759.40 348.63 C759.24,348.97 759.01,349.32 758.79,349.55 C758.43,349.90 758.55,350.97 759.03,352.03 C758.35,351.34 757.15,351.00 755.39,351.00 C753.53,351.00 752.00,350.55 752.00,350.00 C752.00,349.45 753.80,349.00 756.00,349.00 C757.47,349.00 758.74,348.85 759.40,348.63 ZM 469.00 338.88 C469.00,339.31 467.65,339.67 466.00,339.67 C462.63,339.67 462.44,339.42 464.32,337.54 C465.64,336.21 469.00,337.18 469.00,338.88 ZM 411.85 361.24 C411.84,360.72 411.75,360.12 411.58,359.44 C411.17,357.81 410.50,357.04 409.68,357.13 C412.02,355.35 414.67,354.29 414.67,355.66 C414.67,356.35 414.30,356.69 413.86,356.42 C413.42,356.14 412.78,357.17 412.45,358.71 C412.22,359.74 412.03,360.57 411.85,361.24 ZM 681.13 329.66 C682.68,331.53 681.94,331.30 679.00,329.00 L 676.50 327.04 L 678.92 327.02 C680.25,327.01 681.04,327.30 680.68,327.66 C680.31,328.02 680.52,328.92 681.13,329.66 ZM 470.00 331.38 C470.00,332.14 469.39,333.26 468.64,333.89 C467.53,334.80 467.37,334.54 467.75,332.51 C468.26,329.88 470.00,329.00 470.00,331.38 ZM 459.50 340.00 C458.73,341.24 457.92,341.24 456.00,340.00 C454.84,339.25 455.13,339.03 457.31,339.02 C458.93,339.01 459.86,339.42 459.50,340.00 ZM 528.33 298.47 C527.29,299.62 525.31,301.05 523.38,301.95 C520.56,303.28 519.24,304.46 519.59,305.37 C519.92,306.25 519.21,306.98 517.64,307.38 C517.08,307.52 516.53,307.71 515.98,307.97 C517.11,307.32 518.00,306.31 518.00,305.64 C518.00,304.94 520.18,303.37 522.83,302.17 C525.02,301.19 527.24,299.67 528.33,298.47 ZM 472.98 330.75 C472.98,331.16 472.53,332.17 472.00,333.00 C471.22,334.21 471.03,334.07 471.02,332.25 C471.01,331.01 471.45,330.00 472.00,330.00 C472.55,330.00 472.99,330.34 472.98,330.75 ZM 752.00 369.00 C752.00,369.55 752.45,370.00 753.00,370.00 C753.55,370.00 754.00,369.55 754.00,369.00 C754.00,368.45 753.55,368.00 753.00,368.00 C752.45,368.00 752.00,368.45 752.00,369.00 ZM 513.97 309.13 C511.34,310.98 508.84,314.02 506.86,317.83 C508.95,313.68 511.11,311.03 513.97,309.13 ZM 408.59 364.00 C407.18,364.00 404.58,364.98 401.99,366.36 C404.57,364.99 407.14,364.00 408.50,364.00 C409.44,364.00 410.18,363.86 410.71,363.56 C410.23,363.94 409.59,364.00 408.59,364.00 ZM 762.38 346.54 C762.02,345.62 761.38,345.08 760.84,345.03 C761.34,344.93 761.93,345.38 762.38,346.54 ZM 398.21 365.54 C398.64,365.97 400.19,365.38 401.86,364.39 C400.19,365.40 398.66,365.99 398.21,365.54 Z" fill="rgb(184,171,168)"/>
<path d="M 459.50 340.00 C459.86,339.42 458.93,339.01 457.31,339.02 C455.56,339.02 455.02,339.17 455.49,339.62 L 453.84 338.94 C452.19,338.25 450.19,337.05 449.41,336.27 C447.40,334.26 447.64,328.64 449.83,326.65 C452.34,324.38 458.17,324.56 461.27,327.00 C464.52,329.55 465.36,329.54 463.97,326.94 C462.48,324.16 463.67,319.34 466.30,317.50 C471.77,313.67 478.73,318.11 477.65,324.75 C477.09,328.21 477.99,328.92 479.95,326.56 C480.61,325.76 482.58,324.98 484.32,324.81 C487.28,324.52 487.51,324.22 487.68,320.50 C487.76,318.73 487.97,317.03 488.25,315.63 C487.83,318.71 487.99,324.17 488.65,325.25 C489.97,327.37 490.66,325.42 490.63,319.76 C490.80,322.76 491.35,325.80 491.97,326.96 L 493.30 329.42 L 493.45 329.25 C492.57,330.60 492.00,331.85 492.00,332.58 C492.00,334.99 486.84,340.00 484.36,340.00 C483.55,340.00 483.18,340.48 483.54,341.07 C483.85,341.56 484.53,341.82 485.17,341.72 L 483.99 342.06 L 485.58 344.48 C488.60,349.09 484.61,354.27 478.05,354.27 C474.46,354.27 473.46,354.90 467.72,360.84 C472.02,356.39 474.04,353.56 473.65,352.54 C472.66,349.96 470.88,350.76 464.57,356.90 C468.61,352.89 471.64,349.23 471.34,348.74 C471.03,348.24 469.30,349.25 467.50,351.00 C465.29,353.14 463.15,354.22 460.87,354.33 C457.56,354.50 457.49,354.59 457.20,359.50 L 456.90 364.47 L 456.87 364.50 L 457.12 359.27 C457.26,356.40 457.12,353.79 456.81,353.47 C456.32,352.99 455.25,355.39 454.58,357.88 C454.74,357.27 454.92,356.65 455.11,356.10 C456.03,353.48 455.94,352.59 454.61,351.13 C452.52,348.81 452.58,347.20 454.93,343.34 L 456.71 340.43 C458.14,341.22 458.83,341.08 459.50,340.00 ZM 681.86 342.94 C680.98,342.94 680.06,342.94 679.09,342.92 C676.08,342.86 671.54,342.91 666.93,343.03 C672.11,342.47 671.67,341.48 669.37,338.60 L 666.80 335.38 L 663.80 338.19 C660.53,341.24 656.80,341.78 652.50,339.82 C650.92,339.10 650.15,338.95 649.05,339.72 C650.18,338.41 650.33,337.56 649.79,336.58 C649.18,335.51 649.21,333.82 649.87,331.95 C650.29,330.74 650.52,329.71 650.49,329.25 C650.58,329.26 650.66,329.29 650.73,329.34 C651.17,329.60 652.59,329.26 653.88,328.56 L 656.24 327.30 L 653.35 326.72 C651.75,326.40 649.18,325.15 647.64,323.93 C645.17,321.99 644.91,321.28 645.50,318.11 C645.88,316.12 646.64,313.94 647.21,313.25 C648.86,311.26 655.41,311.74 658.37,314.07 L 661.00 316.15 L 661.00 311.80 C661.00,305.68 663.13,303.00 668.00,303.00 C670.88,303.00 672.29,303.57 673.44,305.22 C675.24,307.79 675.45,311.29 673.96,314.07 C673.25,315.40 673.25,316.00 673.96,316.00 C674.53,316.00 675.00,315.56 675.00,315.03 C675.00,313.44 680.92,310.85 683.78,311.19 C685.65,311.41 686.59,312.23 687.01,314.00 C687.46,315.95 687.99,316.39 690.19,316.23 C688.84,316.76 688.47,318.14 689.67,319.33 C690.17,319.84 690.82,320.07 691.47,320.08 C690.43,320.38 689.12,321.42 688.32,322.64 C687.37,324.09 685.09,325.90 683.26,326.67 C681.24,327.51 680.47,327.88 680.55,328.58 C680.45,328.19 680.48,327.85 680.68,327.66 C681.04,327.30 680.25,327.01 678.92,327.02 L 676.50 327.04 L 679.00 329.00 C680.70,330.33 681.67,330.97 681.88,330.91 C683.55,333.85 683.22,337.49 681.00,339.50 C679.90,340.50 679.00,341.69 679.00,342.15 C679.00,342.62 680.16,342.87 681.86,342.94 ZM 546.83 293.62 C548.73,293.00 550.00,292.33 550.00,291.76 C550.00,291.20 548.97,291.10 547.42,291.50 C548.98,291.04 551.26,289.65 552.54,288.37 L 554.92 285.99 L 551.38 284.51 C547.86,283.04 547.82,283.04 543.00,287.19 C547.31,283.48 547.86,282.61 546.95,280.91 C545.95,279.05 545.64,279.19 541.70,283.23 C541.13,283.81 540.47,284.44 539.75,285.07 C543.32,281.80 546.00,278.32 546.00,276.48 C546.00,275.03 547.12,273.34 548.92,272.06 C550.19,271.15 551.75,269.13 552.82,267.11 L 551.17 271.00 L 553.59 271.00 C554.52,271.00 555.33,270.79 555.73,270.47 C555.76,271.28 556.75,272.69 558.15,273.83 L 561.00 276.15 L 561.00 272.80 C561.00,267.64 563.37,265.00 568.02,265.00 C572.80,265.00 574.47,267.43 573.70,273.22 C573.20,276.91 573.28,277.06 574.91,275.58 C576.99,273.70 583.56,273.48 584.66,275.25 C585.46,276.53 585.79,277.64 586.65,282.00 C587.04,283.98 586.53,284.86 584.17,286.25 C582.53,287.21 580.23,288.00 579.07,288.00 L 576.94 288.00 L 579.09 290.90 C580.82,293.25 581.05,294.35 580.29,296.65 C579.15,300.08 575.42,302.24 572.01,301.43 C568.55,300.61 567.23,299.32 566.51,296.06 L 565.90 293.26 L 562.95 296.21 C560.46,298.69 559.48,299.05 556.75,298.50 C554.96,298.15 552.52,296.77 551.32,295.45 L 549.14 293.05 ZM 504.33 311.11 C505.14,309.24 505.93,307.32 506.68,305.39 C506.92,304.77 505.72,303.99 504.02,303.65 C502.33,303.32 499.83,301.84 498.47,300.37 C496.84,298.61 496.00,298.21 496.00,299.18 C496.00,301.29 491.86,304.65 489.50,304.46 C483.45,303.96 480.32,300.85 481.43,296.43 C481.76,295.12 483.26,293.38 484.76,292.57 C487.40,291.14 487.41,291.08 485.20,291.04 C482.22,290.99 477.03,288.30 476.89,286.72 C476.58,283.29 477.31,280.37 478.76,279.25 C481.00,277.53 486.10,277.68 488.78,279.56 C490.95,281.08 491.00,281.03 491.00,277.49 C491.00,271.84 492.46,270.00 496.91,270.00 C501.46,270.00 503.40,271.90 503.40,276.37 L 503.40 279.55 L 506.60 278.03 C508.45,277.15 509.66,275.80 510.18,274.34 C510.01,275.99 510.27,277.00 510.89,277.00 C511.50,277.00 512.02,275.99 512.05,274.75 C512.08,273.58 512.25,270.89 512.44,268.62 C512.42,269.28 512.39,269.95 512.35,270.63 C511.94,276.66 512.12,277.83 513.56,278.38 C514.64,278.80 515.80,278.51 516.64,277.82 C516.55,277.93 516.46,278.04 516.37,278.14 C515.45,279.17 515.18,280.00 515.79,280.00 C516.25,280.00 516.82,279.73 517.21,279.35 C516.20,280.46 515.64,282.15 515.84,284.00 C516.14,286.94 512.29,290.97 509.12,291.03 C507.91,291.06 508.16,291.65 510.12,293.38 C512.67,295.62 512.71,295.81 511.31,299.59 C510.52,301.74 509.60,304.40 509.28,305.50 C509.08,306.17 508.96,306.60 508.97,306.81 C508.93,306.59 509.05,306.06 509.26,305.19 C509.63,303.72 509.44,303.02 508.71,303.26 C508.17,303.44 506.31,306.81 504.33,311.11 ZM 573.00 256.29 C573.00,255.29 571.78,255.79 569.11,257.92 C568.44,258.44 567.75,258.94 567.10,259.38 C568.03,258.22 567.79,258.00 565.78,258.00 C563.16,258.00 560.00,255.25 560.00,252.99 C560.00,252.24 560.90,250.68 561.99,249.51 L 563.98 247.39 L 560.49 246.13 C557.48,245.05 557.00,244.42 557.00,241.64 C557.00,239.86 557.54,237.86 558.20,237.20 C559.87,235.53 564.56,235.70 566.36,237.50 C568.51,239.65 569.00,239.38 569.00,236.07 C569.00,233.28 571.16,230.00 573.01,230.00 C573.48,230.00 575.02,230.44 576.43,230.98 C578.53,231.77 579.00,232.61 579.00,235.54 C579.00,238.79 579.21,239.07 581.25,238.49 C582.49,238.13 584.26,237.63 585.19,237.37 C586.30,237.06 587.38,237.84 588.31,239.63 L 589.67 242.22 C588.78,243.70 588.98,244.00 589.93,244.00 C590.14,244.00 590.60,243.68 591.20,243.14 C588.53,245.92 585.90,248.21 584.97,248.51 C583.40,249.01 583.20,249.51 584.00,251.00 C585.68,254.14 585.14,255.95 581.92,257.90 C579.43,259.42 578.32,259.57 576.02,258.70 C573.44,257.73 572.43,258.14 564.72,263.27 C569.29,260.20 573.00,257.09 573.00,256.29 ZM 760.00 380.51 C758.16,382.71 755.40,382.33 753.23,379.56 C751.46,377.31 751.18,377.25 749.68,378.75 C748.25,380.18 747.74,380.20 745.41,378.95 C742.07,377.17 741.33,375.30 742.95,372.72 C744.00,371.03 743.94,370.55 742.60,369.80 C740.95,368.87 740.55,366.35 741.61,363.58 C742.30,361.78 746.07,361.47 747.67,363.07 C748.44,363.84 748.93,363.40 749.40,361.54 C750.08,358.84 754.23,356.49 756.67,357.43 C757.42,357.71 758.00,359.44 758.00,361.36 C758.00,364.76 758.03,364.78 761.50,364.00 C764.85,363.24 765.00,363.33 765.00,365.98 C765.00,369.00 766.38,370.58 769.50,371.15 C770.77,371.38 771.61,372.44 771.80,374.04 C772.04,376.10 771.66,376.57 769.80,376.58 C768.53,376.58 766.83,375.78 766.00,374.80 C763.78,372.16 760.16,373.39 760.77,376.58 C761.03,377.92 760.68,379.68 760.00,380.51 ZM 594.17 344.35 C591.88,346.42 591.80,346.41 588.79,344.05 C587.40,342.96 585.91,342.47 585.40,342.94 C584.91,343.41 583.08,344.09 581.34,344.45 C578.42,345.07 578.13,344.89 577.50,341.99 C577.00,339.70 577.28,338.35 578.56,336.93 C580.02,335.33 580.06,335.00 578.81,335.00 C577.98,335.00 576.58,334.20 575.69,333.21 C572.00,329.13 577.82,323.71 581.91,327.42 C583.63,328.98 583.77,328.91 584.33,326.12 C585.36,320.93 592.00,320.81 592.00,325.97 C592.00,328.50 592.30,328.72 595.68,328.61 C599.23,328.50 599.38,328.64 599.75,332.26 C600.11,335.79 599.94,336.06 597.01,336.65 C594.80,337.09 594.19,337.59 594.94,338.34 C596.54,339.94 596.22,342.49 594.17,344.35 ZM 679.91 344.95 C682.17,344.91 684.51,344.88 686.75,344.89 C687.37,344.89 687.98,344.89 688.57,344.88 C687.92,344.89 687.26,344.90 686.58,344.91 C682.23,344.96 679.00,345.33 679.40,345.74 C679.81,346.14 680.89,346.48 681.80,346.49 C682.72,346.49 683.64,347.37 683.84,348.43 C684.05,349.49 684.84,350.99 685.61,351.75 C686.37,352.52 687.00,354.01 687.00,355.07 C687.00,356.13 687.45,357.00 688.00,357.00 C688.55,357.00 689.00,357.72 689.00,358.61 C689.00,359.64 688.46,360.00 687.50,359.61 C686.67,359.27 685.36,358.74 684.57,358.42 C683.52,358.00 683.29,358.39 683.69,359.93 C684.76,364.02 679.70,366.75 677.02,363.53 C675.95,362.23 675.62,362.23 674.33,363.53 C671.27,366.59 666.57,361.52 668.95,357.72 C670.00,356.03 669.94,355.55 668.60,354.80 C667.72,354.30 667.00,353.30 667.00,352.57 C667.00,351.83 664.52,350.23 661.50,349.00 C659.14,348.04 657.67,347.52 656.31,347.35 C657.73,347.45 659.05,347.93 661.16,348.84 C666.33,351.07 668.06,350.68 664.78,348.02 C664.27,347.61 663.89,347.30 663.68,347.05 L 664.84 348.02 C666.65,349.53 667.62,349.74 669.11,348.94 C670.17,348.37 671.43,348.15 671.91,348.44 C672.38,348.74 673.02,348.04 673.32,346.89 C673.57,345.93 673.60,345.42 673.28,345.24 C675.21,345.14 677.48,345.04 679.91,344.95 ZM 580.32 379.37 C582.94,380.76 585.19,381.50 585.49,381.02 C585.77,380.56 585.00,379.64 583.74,378.87 C583.93,378.97 584.12,379.07 584.30,379.16 C586.06,380.02 588.74,381.31 590.25,382.03 C592.03,382.88 593.00,384.12 593.00,385.55 C593.00,386.97 593.77,387.97 595.13,388.32 C596.80,388.76 597.15,389.44 596.76,391.48 C596.40,393.36 596.80,394.36 598.24,395.13 C599.06,395.57 599.49,395.92 599.57,396.30 C599.44,395.93 599.06,395.58 598.52,395.37 C596.92,394.75 595.91,395.22 596.16,396.26 C595.47,395.54 594.59,395.00 594.02,395.00 C593.06,395.00 593.03,395.33 593.89,396.37 C594.76,397.42 594.59,398.28 593.14,400.07 C591.35,402.29 591.14,402.32 588.77,400.77 C586.58,399.33 586.11,399.31 584.81,400.62 C582.47,402.96 578.00,400.53 578.00,396.92 C578.00,395.41 578.56,393.96 579.25,393.70 C580.13,393.37 579.96,392.81 578.66,391.81 C577.52,390.93 576.94,389.45 577.16,387.94 C577.43,386.02 578.18,385.43 580.66,385.19 C585.72,384.70 585.56,382.52 580.32,379.37 ZM 634.55 388.94 C632.20,391.54 630.50,391.55 628.70,388.98 C627.40,387.13 627.07,387.08 624.48,388.43 C622.49,389.46 621.12,389.60 619.83,388.91 C617.50,387.66 617.53,386.88 620.00,384.23 C622.36,381.70 622.49,381.00 620.61,381.00 C618.63,381.00 617.81,378.22 619.09,375.83 C619.86,374.40 620.89,373.94 622.57,374.26 C624.27,374.58 625.13,374.18 625.55,372.86 C625.94,371.60 627.09,371.00 629.07,371.00 C631.64,371.00 632.00,371.36 632.00,373.91 C632.00,376.34 632.33,376.73 634.03,376.28 C635.15,375.99 636.84,376.42 637.78,377.24 C638.73,378.07 640.17,378.96 641.00,379.23 C641.96,379.55 641.02,380.38 638.36,381.55 C634.81,383.12 634.38,383.63 635.31,385.13 C636.17,386.50 636.00,387.34 634.55,388.94 ZM 523.07 302.10 C523.17,302.05 523.27,302.00 523.38,301.95 C525.31,301.05 527.29,299.62 528.33,298.47 C528.57,298.21 528.75,297.96 528.87,297.74 C529.88,295.86 530.91,295.50 535.29,295.49 C537.36,295.49 539.81,295.21 542.11,294.78 C538.69,295.66 536.42,296.64 537.02,297.01 C537.64,297.40 538.01,298.51 537.83,299.48 C537.59,300.78 538.26,301.33 540.41,301.57 C542.01,301.75 543.67,302.47 544.10,303.17 C544.98,304.58 543.39,307.00 541.59,307.00 C540.95,307.00 540.44,308.24 540.46,309.75 C540.49,311.89 539.98,312.57 538.13,312.83 C536.83,313.02 535.31,312.71 534.75,312.15 C534.05,311.45 533.19,311.78 532.06,313.18 L 530.39 315.24 L 527.56 312.80 C525.15,310.73 524.90,310.06 525.85,308.29 C526.73,306.63 526.66,306.08 525.48,305.63 C524.67,305.32 524.00,304.37 524.00,303.53 C524.00,302.41 523.82,301.96 523.07,302.10 ZM 705.39 337.42 C706.35,334.92 706.11,334.00 704.50,334.00 C703.99,334.00 703.59,334.28 703.34,334.78 C703.38,333.60 703.19,332.62 702.83,332.40 C701.42,331.53 701.91,327.32 703.58,325.93 C704.77,324.94 705.60,324.89 706.94,325.73 C708.32,326.59 709.08,326.49 710.29,325.29 C712.56,323.01 715.35,324.40 714.75,327.51 C714.34,329.69 714.63,330.00 717.14,330.00 C719.38,330.00 720.00,330.46 720.00,332.09 C720.00,333.34 719.20,334.40 718.02,334.70 C716.46,335.11 716.25,335.60 717.02,337.04 C717.73,338.37 717.57,339.29 716.43,340.43 C714.46,342.40 712.60,342.43 711.01,340.51 C710.33,339.69 709.40,339.26 708.93,339.54 C708.47,339.83 706.90,339.76 705.45,339.40 C704.90,339.26 704.46,339.12 704.12,338.95 C704.54,338.91 705.01,338.41 705.39,337.42 ZM 715.36 305.58 C716.69,306.10 717.00,305.54 717.00,302.61 C717.00,300.62 716.81,299.00 716.58,299.00 C716.35,299.00 715.45,298.73 714.58,298.39 C714.09,298.21 713.74,298.18 713.50,298.36 C714.79,290.64 722.11,284.59 723.54,290.29 C723.85,291.55 723.64,293.83 723.06,295.35 C722.47,296.88 722.00,298.22 722.00,298.32 C722.00,298.43 724.03,298.35 726.50,298.16 C729.06,297.95 731.00,298.23 731.00,298.80 C731.00,299.34 729.37,301.23 727.37,302.98 C724.12,305.84 723.20,306.13 718.52,305.83 C715.14,305.62 712.73,305.98 711.65,306.87 C711.09,307.34 710.58,307.59 710.28,307.57 C710.61,307.56 711.19,307.23 711.86,306.63 C712.90,305.69 714.43,305.23 715.36,305.58 ZM 762.38 346.54 C762.01,345.60 761.55,345.12 761.12,345.03 C762.55,343.60 764.72,342.17 766.75,341.55 C768.42,341.04 769.00,341.27 769.00,342.43 C769.00,343.44 769.90,344.00 771.49,344.00 L 773.98 344.00 L 770.84 347.00 C769.12,348.65 767.23,350.00 766.65,350.00 C766.00,350.00 766.05,350.45 766.80,351.20 C767.46,351.86 768.00,353.39 768.00,354.59 C768.00,358.85 762.09,358.37 760.14,353.96 C760.10,353.86 760.05,353.76 760.01,353.66 C760.47,354.11 760.78,353.43 761.66,351.29 C762.38,349.53 762.70,347.39 762.38,346.54 ZM 423.00 325.74 C423.00,324.50 422.15,322.95 421.10,322.30 C419.99,321.60 419.50,321.46 419.20,322.30 C420.30,315.48 420.87,314.38 423.50,313.18 C425.58,312.23 426.12,312.35 426.98,313.96 C427.67,315.24 427.67,316.73 427.00,318.50 C426.45,319.95 426.00,321.23 426.00,321.34 C426.00,321.46 427.91,321.39 430.25,321.18 L 434.50 320.82 L 431.34 324.05 C428.85,326.60 427.15,327.38 423.22,327.75 L 421.75 327.89 C422.67,327.66 423.00,327.03 423.00,325.74 ZM 642.67 397.51 C642.49,396.95 641.44,396.37 640.34,396.20 C640.12,396.17 639.92,396.15 639.75,396.15 C641.09,395.34 643.58,394.99 647.38,395.03 C650.64,395.06 654.71,399.04 653.49,401.01 C652.70,402.30 648.30,402.29 647.50,401.00 C646.31,399.08 644.89,399.93 645.96,401.93 C646.53,402.99 646.72,404.56 646.39,405.43 C644.99,409.07 640.59,405.79 639.03,400.78 C639.32,400.73 640.11,400.33 641.00,399.77 C642.10,399.08 642.86,398.06 642.67,397.51 ZM 517.71 273.09 C517.65,269.46 518.44,267.78 520.40,267.04 C521.72,266.53 523.10,265.65 523.46,265.06 C524.89,262.75 525.78,264.20 525.27,268.00 C524.84,271.25 525.04,272.00 526.37,272.00 C527.27,272.00 528.00,272.66 528.00,273.47 C528.00,275.15 523.07,278.00 520.17,278.00 C523.17,277.96 522.24,273.60 519.11,273.16 C518.48,273.07 518.02,273.04 517.71,273.09 ZM 606.00 406.00 C606.00,405.19 605.64,404.50 605.13,404.18 C605.67,404.06 606.27,404.00 606.93,404.00 C610.94,404.00 615.00,407.18 615.00,410.33 C615.00,411.88 614.69,411.90 611.56,410.59 C608.17,409.17 608.11,409.19 607.81,411.75 C607.39,415.26 605.63,415.61 603.64,412.57 C601.67,409.56 601.43,407.02 602.72,405.51 C602.62,405.79 602.51,406.11 602.39,406.42 C601.96,407.55 602.38,408.00 603.89,408.00 C605.33,408.00 606.00,407.37 606.00,406.00 ZM 397.00 342.00 C397.54,342.00 397.99,342.55 397.99,343.23 C397.98,341.49 395.05,341.70 394.36,343.50 C394.05,344.33 393.16,345.00 392.39,345.00 C390.42,345.00 390.66,347.71 392.73,348.87 C394.09,349.63 394.83,349.28 396.20,347.21 L 394.41 349.93 L 391.20 347.98 C388.03,346.05 387.08,343.69 389.00,342.50 C389.55,342.16 390.00,340.14 390.00,338.00 C390.00,335.86 390.52,333.79 391.16,333.40 C392.73,332.43 396.00,336.62 396.00,339.61 C396.00,340.92 396.45,342.00 397.00,342.00 ZM 414.24 355.07 C413.40,354.85 411.45,355.78 409.68,357.13 C409.07,357.19 408.38,357.72 407.64,358.70 C408.00,357.80 407.60,357.42 406.39,356.52 C404.88,355.40 404.72,354.75 405.61,353.31 C406.23,352.31 407.68,351.49 408.84,351.47 C410.01,351.46 411.51,350.89 412.18,350.22 C415.63,346.77 417.33,350.66 414.27,355.03 ZM 621.00 224.56 C621.00,223.21 618.23,220.40 617.60,221.11 C619.26,217.19 620.57,216.04 623.36,216.02 C624.82,216.00 625.09,216.51 624.62,218.40 C624.19,220.08 624.50,220.98 625.64,221.42 C627.14,221.99 627.13,222.20 625.58,223.92 C624.17,225.47 621.94,226.37 619.65,226.40 C620.57,226.25 621.00,225.65 621.00,224.56 ZM 411.85 361.24 C412.03,360.57 412.22,359.74 412.45,358.71 C412.58,358.10 412.76,357.57 412.96,357.17 L 413.90 356.44 C414.28,356.65 414.60,356.39 414.66,355.84 L 415.41 355.25 C418.41,352.89 421.00,352.31 421.00,353.99 C421.00,354.54 420.19,355.49 419.19,356.11 C417.92,356.90 417.51,358.10 417.80,360.12 C418.04,361.70 417.84,363.04 417.36,363.09 C416.89,363.14 414.18,363.35 411.34,363.57 C411.10,363.59 410.85,363.61 410.61,363.64 C410.65,363.62 410.68,363.59 410.71,363.56 C411.50,363.13 411.87,362.37 411.85,361.24 ZM 785.00 367.56 C785.00,366.77 784.53,365.83 783.96,365.47 C783.29,365.06 782.20,365.46 781.41,366.10 C782.64,364.11 785.07,361.56 786.80,360.90 C788.52,360.23 789.59,360.47 791.08,361.86 C792.99,363.64 793.00,363.78 791.27,365.92 C789.92,367.58 785.49,368.99 782.77,368.99 C783.90,368.95 785.00,368.43 785.00,367.56 ZM 511.92 264.10 C511.49,263.88 510.87,264.41 510.11,265.75 C510.00,265.93 509.91,266.10 509.82,266.24 C509.34,266.84 509.06,267.02 508.69,266.78 C508.42,266.56 508.08,266.14 507.59,265.50 C506.64,264.25 506.26,263.89 506.11,264.34 C505.48,260.90 506.36,257.00 508.66,257.00 C510.44,257.00 511.77,259.84 512.25,264.10 C512.15,264.07 512.04,264.07 511.92,264.10 ZM 614.88 211.27 C614.82,211.07 614.34,211.05 613.45,211.03 C612.32,211.01 610.91,210.51 610.31,209.91 C609.40,209.00 608.69,209.31 608.48,210.36 C608.60,207.54 609.81,204.70 611.62,203.51 C614.31,201.75 614.55,202.04 615.26,207.81 C615.45,209.36 615.38,210.38 614.88,211.27 ZM 599.43 218.15 C599.83,218.97 600.12,219.63 600.28,220.21 C599.84,220.13 599.07,220.53 598.02,221.48 C596.40,222.95 595.76,223.05 594.52,222.02 C593.97,221.56 593.57,221.42 593.31,221.49 C593.35,220.94 593.42,220.32 593.54,219.61 C594.64,212.83 596.53,212.36 599.43,218.15 ZM 604.97 231.98 C610.54,229.28 612.91,228.02 613.44,227.47 C613.27,227.80 612.32,228.45 610.51,229.42 L 607.10 231.26 L 609.30 233.07 C611.49,234.86 611.49,234.88 609.50,236.40 C607.66,237.81 604.00,238.59 604.00,237.57 C604.00,237.33 604.44,235.98 604.98,234.57 C605.55,233.05 605.51,232.21 604.97,231.98 ZM 409.46 343.31 C410.43,342.96 411.68,342.77 413.53,342.54 C416.54,342.16 419.03,341.55 419.08,341.18 C419.12,340.81 419.30,339.71 419.49,338.75 C419.62,338.05 419.64,337.56 419.51,337.31 C420.23,337.11 420.99,337.00 421.68,337.00 C424.33,337.00 424.69,337.33 424.60,339.75 C424.52,342.05 424.09,342.47 422.00,342.29 C420.62,342.17 416.93,342.32 413.79,342.63 C411.78,342.83 410.46,342.98 409.46,343.31 ZM 630.36 382.50 C631.23,380.25 630.08,378.16 628.18,378.52 C627.26,378.70 625.94,378.88 625.25,378.92 C623.66,379.02 623.63,381.23 625.20,382.80 C626.86,384.46 629.67,384.30 630.36,382.50 ZM 755.08 372.13 C756.11,371.90 755.74,368.53 754.60,367.77 C753.30,366.91 749.78,367.84 748.85,369.28 C747.44,371.48 750.88,373.05 755.08,372.13 ZM 592.00 288.50 C590.59,290.20 587.43,290.50 586.51,289.02 C585.67,287.66 587.78,284.00 589.41,284.00 C590.15,284.00 591.32,284.67 592.00,285.50 C592.99,286.70 592.99,287.30 592.00,288.50 ZM 590.24 336.58 C590.52,336.86 590.75,335.94 590.75,334.54 C590.75,331.56 590.64,331.51 588.57,333.58 C587.13,335.01 586.92,334.96 586.19,332.99 C585.52,331.18 585.20,331.06 584.22,332.23 C582.42,334.40 585.47,338.35 587.93,337.04 C588.92,336.51 589.96,336.30 590.24,336.58 ZM 588.75 393.66 C590.65,392.47 590.26,391.44 587.43,390.15 C583.52,388.37 581.49,390.46 584.25,393.42 C585.58,394.85 586.76,394.91 588.75,393.66 ZM 500.40 291.74 C501.09,291.05 501.45,289.86 501.20,289.10 C500.95,288.34 501.15,287.98 501.66,288.29 C502.16,288.60 502.57,288.01 502.57,286.98 C502.57,285.46 502.30,285.33 501.10,286.31 C499.89,287.29 499.74,287.19 500.28,285.75 C500.64,284.79 500.50,284.00 499.97,284.00 C499.44,284.00 499.00,284.81 499.00,285.80 C499.00,286.79 498.44,288.20 497.75,288.92 C496.75,289.99 496.75,290.34 497.76,290.71 C498.45,290.96 498.76,291.58 498.45,292.09 C497.61,293.43 498.94,293.20 500.40,291.74 ZM 535.56 305.29 C535.25,304.49 535.00,303.42 535.00,302.92 C535.00,301.76 532.93,301.76 531.10,302.91 C528.97,304.26 530.51,306.75 533.48,306.75 C535.38,306.75 535.96,306.34 535.56,305.29 ZM 676.99 356.98 C677.47,357.75 677.91,357.28 678.22,355.64 C678.52,354.06 678.19,352.90 677.35,352.58 C676.61,352.30 675.99,352.61 675.98,353.28 C675.97,354.06 675.64,353.97 675.04,353.03 C674.24,351.77 674.01,351.81 673.44,353.29 C673.08,354.24 673.37,355.74 674.10,356.62 C675.05,357.76 675.54,357.87 675.83,357.00 C676.15,356.05 676.41,356.04 676.99,356.98 ZM 476.05 336.72 C477.12,337.00 478.00,336.73 478.00,336.12 C478.00,335.50 477.21,334.96 476.25,334.92 C475.20,334.87 475.00,334.64 475.75,334.34 C476.44,334.06 477.00,333.39 477.00,332.86 C477.00,332.32 476.55,332.16 476.00,332.50 C475.45,332.84 474.98,332.53 474.96,331.81 C474.95,331.09 474.32,331.60 473.57,332.95 C472.83,334.30 472.47,336.07 472.79,336.90 C473.12,337.75 473.52,337.93 473.73,337.31 C473.93,336.70 474.97,336.44 476.05,336.72 ZM 664.32 327.75 C663.85,329.10 663.99,329.24 664.94,328.37 C667.01,326.46 665.82,322.55 663.05,322.15 C660.96,321.86 660.78,322.03 661.85,323.32 C662.89,324.57 662.79,324.91 661.30,325.30 C660.12,325.61 660.43,325.81 662.22,325.88 C664.35,325.98 664.81,326.38 664.32,327.75 ZM 493.25 291.34 C495.36,292.19 496.00,292.05 495.98,290.75 C495.96,288.64 494.29,286.71 493.11,287.43 C491.62,288.35 491.70,290.71 493.25,291.34 ZM 469.00 338.88 C469.00,337.18 465.64,336.21 464.32,337.54 C462.44,339.42 462.63,339.67 466.00,339.67 C467.65,339.67 469.00,339.31 469.00,338.88 ZM 668.00 326.06 C668.00,327.13 668.48,328.00 669.06,328.00 C669.64,328.00 669.86,327.58 669.55,327.08 C669.23,326.57 669.64,326.00 670.46,325.83 C671.45,325.61 671.66,325.04 671.09,324.12 C669.97,322.33 668.00,323.57 668.00,326.06 ZM 544.27 339.66 C546.10,338.28 545.78,337.00 543.13,337.00 C543.08,337.00 543.04,337.00 542.98,337.01 C546.47,335.89 549.50,335.18 549.87,335.54 C550.12,335.79 547.09,337.92 544.27,339.66 ZM 470.00 331.38 C470.00,329.00 468.26,329.88 467.75,332.51 C467.37,334.54 467.53,334.80 468.64,333.89 C469.39,333.26 470.00,332.14 470.00,331.38 ZM 472.98 330.75 C472.99,330.34 472.55,330.00 472.00,330.00 C471.45,330.00 471.01,331.01 471.02,332.25 C471.03,334.07 471.22,334.21 472.00,333.00 C472.53,332.17 472.98,331.16 472.98,330.75 ZM 752.00 369.00 C752.00,368.45 752.45,368.00 753.00,368.00 C753.55,368.00 754.00,368.45 754.00,369.00 C754.00,369.55 753.55,370.00 753.00,370.00 C752.45,370.00 752.00,369.55 752.00,369.00 ZM 665.02 346.03 C665.75,345.91 666.74,345.79 668.07,345.62 C668.90,345.52 670.25,345.42 671.96,345.32 C671.87,345.34 671.78,345.36 671.68,345.39 C670.48,345.71 667.92,345.99 666.00,346.02 ZM 420.65 328.00 L 418.26 328.23 L 418.72 325.32 C418.51,327.65 418.85,327.99 420.65,328.00 ZM 401.68 366.53 C401.79,366.47 401.89,366.42 401.99,366.36 L 402.00 366.36 C404.53,365.01 407.07,364.04 408.49,364.00 C406.23,364.50 403.88,365.38 401.68,366.53 ZM 712.98 301.23 C712.87,302.75 712.25,304.38 711.50,305.00 C710.68,305.68 710.01,306.69 710.00,307.26 L 710.00 307.24 C710.00,306.69 710.62,305.73 711.37,305.11 C711.91,304.66 712.53,303.10 712.98,301.23 ZM 594.42 239.67 C595.67,238.14 597.47,236.46 599.14,235.19 C597.70,236.41 596.08,237.95 594.34,239.76 ZM 617.26 226.11 C616.74,226.00 616.41,225.89 616.24,225.66 C615.99,225.30 616.16,224.65 616.72,223.24 C616.67,223.38 616.63,223.53 616.58,223.67 C616.15,225.07 616.32,225.76 617.26,226.11 ZM 534.95 340.09 C532.59,341.18 530.56,342.00 530.15,342.00 C529.68,342.00 525.97,344.38 521.90,347.28 C525.97,344.38 529.62,342.00 530.02,342.00 C530.39,342.00 532.53,341.16 534.95,340.09 ZM 491.19 339.96 C491.45,339.89 491.70,339.82 491.95,339.75 C491.28,339.96 490.55,340.18 489.75,340.41 L 485.64 341.59 C486.49,341.28 488.92,340.56 491.19,339.96 ZM 693.99 318.16 C693.93,319.31 693.37,319.91 692.27,319.99 C693.18,319.76 693.92,319.09 693.99,318.16 ZM 539.02 343.09 C539.28,343.60 541.86,344.00 545.04,344.00 C541.72,344.00 539.00,343.63 539.00,343.19 C539.00,343.16 539.01,343.12 539.02,343.09 ZM 553.98 264.45 C554.98,262.13 556.00,260.77 556.39,260.95 C556.01,260.87 555.06,262.18 553.98,264.45 ZM 593.57 236.32 C594.54,234.49 595.35,232.50 595.60,231.23 C595.79,230.28 596.10,229.41 596.42,228.82 C596.09,229.44 595.78,230.36 595.59,231.38 C595.36,232.62 594.56,234.52 593.57,236.32 ZM 517.50 279.00 C517.84,278.45 519.02,278.00 520.13,278.00 C519.04,278.01 518.08,278.47 517.34,279.22 C517.40,279.15 517.45,279.08 517.50,279.00 ZM 759.78 346.75 C759.72,347.17 759.67,347.61 759.62,347.92 C759.62,347.98 759.60,348.05 759.58,348.12 C759.41,347.77 759.50,347.29 759.78,346.75 ZM 692.65 316.10 C693.74,316.20 694.00,316.70 694.00,317.92 L 694.00 317.96 C693.99,316.88 693.61,316.32 692.65,316.10 ZM 490.42 314.68 C490.24,312.82 489.96,311.96 489.58,312.12 C489.67,312.04 489.77,312.00 489.87,312.00 C490.08,312.00 490.28,313.06 490.42,314.68 ZM 510.33 271.65 C510.15,270.89 509.77,270.15 509.18,269.48 C509.22,269.51 509.27,269.54 509.31,269.57 C509.91,270.20 510.23,270.84 510.33,271.65 ZM 613.14 213.03 C613.69,212.58 614.10,212.23 614.39,211.96 C614.08,212.32 613.69,212.67 613.20,213.06 C612.44,213.66 611.82,214.11 611.31,214.41 C611.81,214.10 612.41,213.64 613.14,213.03 ZM 696.80 344.61 C697.31,344.57 697.76,344.52 698.15,344.48 C698.95,344.44 699.69,344.40 700.37,344.36 C699.29,344.45 698.10,344.54 696.80,344.61 ZM 540.67 341.70 C541.22,341.36 541.86,341.00 542.55,340.68 C542.61,340.65 542.66,340.63 542.71,340.60 C541.92,341.06 541.21,341.45 540.67,341.70 ZM 638.55 397.83 C638.55,397.95 638.57,398.07 638.58,398.20 C638.65,398.80 638.71,399.37 638.77,399.82 C638.67,399.38 638.60,398.93 638.55,398.47 C638.52,398.25 638.52,398.04 638.55,397.83 ZM 402.37 364.08 C402.20,364.19 402.03,364.29 401.86,364.39 C400.19,365.38 398.64,365.97 398.21,365.54 C398.66,365.98 400.50,365.23 402.37,364.08 ZM 556.70 269.19 C558.00,267.98 561.02,265.73 564.50,263.41 C561.15,265.65 558.15,267.89 556.70,269.19 ZM 647.54 331.94 C646.70,333.39 646.05,335.06 646.03,336.20 C646.05,334.95 646.70,333.31 647.54,331.94 ZM 608.72 213.04 C609.11,214.43 609.53,215.03 610.35,214.84 C609.50,215.06 609.10,214.50 608.76,213.19 C608.75,213.14 608.73,213.09 608.72,213.04 ZM 780.68 368.27 C781.01,368.66 781.54,368.88 782.13,368.96 C781.53,368.90 781.07,368.75 780.80,368.48 C780.75,368.42 780.71,368.35 780.68,368.27 ZM 573.66 376.01 C573.22,376.02 573.85,377.64 575.09,379.64 C573.85,377.64 573.17,376.00 573.59,376.00 C573.61,376.00 573.63,376.00 573.66,376.01 ZM 599.74 223.81 C598.91,225.51 598.10,226.45 597.22,226.65 C598.12,226.43 598.95,225.43 599.84,223.61 C599.81,223.67 599.77,223.74 599.74,223.81 ZM 642.63 348.87 C645.03,348.80 647.56,348.60 649.55,348.30 C647.62,348.60 645.07,348.81 642.63,348.87 ZM 644.58 344.09 L 644.50 344.10 L 645.40 343.26 ZM 759.40 348.63 C759.02,348.76 758.43,348.86 757.71,348.93 C758.52,348.85 759.13,348.71 759.43,348.55 C759.42,348.57 759.41,348.60 759.40,348.63 ZM 707.39 342.99 C707.56,342.80 707.64,342.64 707.64,342.53 C707.69,342.63 707.63,342.75 707.48,342.91 C707.45,342.94 707.42,342.97 707.39,342.99 ZM 546.88 291.64 C545.09,292.10 542.81,292.39 541.01,292.48 C542.80,292.39 545.07,292.10 546.88,291.64 ZM 611.53 227.56 C610.46,227.86 609.06,228.33 607.57,228.89 C609.23,228.27 610.56,227.82 611.53,227.56 ZM 497.35 337.00 C497.56,336.52 497.43,336.02 496.99,335.49 C497.44,336.03 497.58,336.52 497.35,337.00 ZM 758.63 351.70 C758.78,351.80 758.91,351.91 759.03,352.02 C759.05,352.06 759.06,352.09 759.08,352.12 C758.93,351.96 758.79,351.82 758.63,351.70 ZM 594.04 224.82 C594.20,225.02 594.37,225.22 594.55,225.41 C594.36,225.22 594.19,225.02 594.04,224.82 ZM 519.54 305.16 C519.55,305.23 519.56,305.30 519.59,305.37 C519.56,305.30 519.55,305.23 519.54,305.16 Z" fill="rgb(186,52,48)"/>
<path d="M 0.00 494.50 L 0.00 0.00 L 530.00 0.00 L 1060.00 0.00 L 1060.00 494.50 L 1060.00 989.00 L 530.00 989.00 L 0.00 989.00 L 0.00 494.50 ZM 441.96 694.75 C448.93,691.18 450.00,688.12 450.00,671.77 L 450.00 658.00 L 447.50 658.00 L 445.00 658.00 L 445.00 670.95 C445.00,685.19 444.17,688.34 439.85,690.58 C434.68,693.25 428.41,691.40 426.19,686.53 C425.47,684.94 425.00,678.98 425.00,671.45 L 425.00 659.00 L 422.50 659.00 L 420.00 659.00 L 420.00 672.25 C420.00,688.19 421.10,691.29 427.96,694.75 C430.42,695.99 433.58,697.00 435.00,697.00 C436.42,697.00 439.55,695.99 441.96,694.75 ZM 674.73 694.39 C678.03,692.30 680.30,687.27 679.59,683.68 C678.67,679.12 676.36,677.19 669.10,674.95 C661.15,672.49 658.00,670.56 658.00,668.13 C658.00,662.91 669.51,660.44 673.12,664.90 C674.60,666.73 675.27,666.93 676.97,666.02 C678.67,665.11 678.84,664.56 677.93,662.87 C675.61,658.54 666.07,656.69 659.72,659.35 C655.28,661.20 653.76,663.35 653.64,667.95 C653.49,673.55 656.42,676.23 665.58,678.89 C674.36,681.45 676.53,684.02 673.63,688.44 C670.61,693.05 661.77,693.06 658.15,688.46 C655.94,685.65 654.74,685.40 653.08,687.40 C652.17,688.50 652.42,689.37 654.21,691.44 C658.72,696.64 668.88,698.11 674.73,694.39 ZM 809.85 694.21 C811.86,693.17 814.82,690.45 816.44,688.15 C818.99,684.56 819.40,683.06 819.44,677.17 C819.49,671.32 819.10,669.75 816.68,666.10 C809.29,654.93 791.50,655.48 785.03,667.07 C783.21,670.32 782.56,672.97 782.58,677.00 C782.66,692.24 796.61,701.04 809.85,694.21 ZM 248.60 692.60 C253.06,688.14 253.40,682.20 249.40,678.49 L 246.79 676.08 L 248.90 673.40 C251.37,670.27 251.57,667.00 249.54,663.07 C247.58,659.28 246.52,659.00 234.42,659.00 L 224.00 659.00 L 224.00 677.50 L 224.00 696.00 L 234.60 696.00 L 245.20 696.00 L 248.60 692.60 ZM 313.80 693.79 C314.09,692.28 312.96,692.04 304.32,691.79 L 294.50 691.50 L 294.20 685.29 L 293.91 679.08 L 302.19 678.79 C309.07,678.55 310.53,678.21 310.80,676.79 C311.09,675.31 310.03,675.04 302.82,674.79 L 294.50 674.50 L 294.20 668.79 L 293.90 663.07 L 303.69 662.79 C312.08,662.54 313.52,662.25 313.81,660.75 C314.12,659.16 313.01,659.00 301.66,659.00 L 289.16 659.00 L 289.05 676.80 C288.98,686.59 289.26,694.93 289.66,695.33 C290.06,695.73 295.59,695.93 301.93,695.78 C311.90,695.54 313.52,695.27 313.80,693.79 ZM 355.19 691.00 L 357.27 686.00 L 366.43 686.00 L 375.60 686.00 L 377.72 691.00 C379.29,694.73 380.36,696.00 381.91,696.00 C383.06,696.00 383.98,695.44 383.96,694.75 C383.94,694.06 380.66,685.62 376.66,676.00 C369.68,659.22 369.27,658.50 366.58,658.50 C363.89,658.50 363.44,659.28 355.89,676.89 C351.55,687.00 348.00,695.44 348.00,695.64 C348.00,695.84 349.15,696.00 350.56,696.00 C352.68,696.00 353.46,695.15 355.19,691.00 ZM 502.22 691.25 C502.33,688.64 502.46,683.58 502.50,680.00 C502.54,676.42 502.67,671.16 502.78,668.30 L 503.00 663.10 L 508.74 662.80 C513.11,662.57 514.55,662.11 514.79,660.86 C515.06,659.43 513.58,659.17 503.30,658.84 C488.14,658.36 484.80,658.73 485.21,660.87 C485.45,662.13 486.93,662.57 491.76,662.80 L 498.00 663.10 L 498.00 679.55 C498.00,695.33 498.08,696.00 500.00,696.00 C501.69,696.00 502.03,695.26 502.22,691.25 ZM 564.80 688.18 C565.08,681.06 565.28,680.56 572.03,669.75 C575.84,663.63 578.84,658.50 578.68,658.35 C578.53,658.19 577.10,658.41 575.51,658.84 C573.27,659.44 571.49,661.49 567.65,667.90 L 562.68 676.18 L 559.30 670.84 C557.44,667.90 555.05,664.04 553.99,662.25 C552.62,659.93 551.33,659.00 549.51,659.00 L 546.95 659.00 L 548.62 662.25 C549.53,664.04 552.47,668.92 555.14,673.10 C559.88,680.51 560.00,680.90 560.00,688.42 C560.00,695.85 560.08,696.13 562.25,695.82 C564.32,695.53 564.52,694.90 564.80,688.18 ZM 720.79 687.25 L 721.08 679.00 L 731.04 679.00 L 741.00 679.00 L 741.00 687.57 C741.00,695.88 741.07,696.13 743.25,695.82 C745.48,695.50 745.50,695.32 745.77,677.25 L 746.05 659.00 L 743.56 659.00 C741.16,659.00 741.07,659.24 740.79,666.75 L 740.50 674.50 L 731.00 674.50 L 721.50 674.50 L 721.21 666.75 C720.93,659.26 720.83,659.00 718.46,659.00 L 716.00 659.00 L 716.00 677.57 L 716.00 696.14 L 718.25 695.82 C720.35,695.52 720.52,694.94 720.79,687.25 ZM 860.79 689.36 C861.08,683.40 861.17,683.22 864.17,682.62 C865.86,682.28 868.96,682.00 871.05,682.00 C878.63,682.00 884.86,672.91 882.01,666.02 C879.59,660.18 876.88,659.00 865.87,659.00 L 856.00 659.00 L 856.00 676.83 C856.00,686.64 856.32,694.98 856.70,695.37 C857.09,695.75 858.10,695.94 858.95,695.77 C860.11,695.55 860.57,693.93 860.79,689.36 ZM 391.03 601.07 C407.70,595.88 418.63,582.90 419.77,566.96 C420.40,558.15 418.68,551.36 413.96,544.07 C408.80,536.08 401.71,530.76 382.28,520.30 C364.34,510.65 356.55,505.12 351.99,498.82 C342.09,485.16 348.16,466.76 364.34,461.39 C371.48,459.02 383.78,459.83 391.05,463.16 C401.24,467.83 406.91,474.52 411.56,487.39 C412.78,490.75 414.17,493.50 414.64,493.50 C415.11,493.50 415.62,485.51 415.77,475.75 C415.96,463.70 415.70,458.00 414.98,458.00 C414.40,458.00 412.58,458.99 410.94,460.20 C408.30,462.15 407.54,462.27 404.23,461.27 C402.18,460.65 397.35,459.19 393.50,458.02 C385.04,455.45 370.07,454.92 362.00,456.89 C343.06,461.54 331.78,475.16 331.68,493.50 C331.62,503.63 332.99,508.32 338.27,516.15 C343.84,524.40 351.91,530.38 372.49,541.50 C396.43,554.44 401.93,560.46 401.98,573.78 C402.01,583.97 397.55,591.45 388.50,596.34 C385.12,598.16 382.86,598.50 373.98,598.50 C364.02,598.50 363.08,598.32 356.51,595.08 C344.78,589.30 336.31,578.86 332.33,565.25 C331.30,561.72 329.93,559.00 329.20,559.00 C328.15,559.00 328.02,562.96 328.53,579.25 C328.88,590.39 329.37,600.16 329.63,600.97 C329.98,602.05 330.76,601.61 332.54,599.33 C336.13,594.75 338.65,594.55 348.18,598.10 C364.46,604.18 378.02,605.12 391.03,601.07 ZM 930.50 538.00 C930.50,474.49 930.56,472.38 932.50,468.53 C934.79,463.99 938.92,461.25 945.07,460.20 C947.42,459.80 949.53,458.92 949.75,458.24 C950.07,457.28 945.05,457.00 927.50,457.00 C910.19,457.00 904.93,457.29 905.24,458.21 C905.46,458.88 908.31,459.92 911.57,460.52 C919.56,461.99 921.83,463.41 924.06,468.33 C925.84,472.23 925.96,475.57 925.98,520.75 C925.99,547.29 925.66,568.99 925.25,568.97 C924.37,568.94 921.46,564.87 878.36,503.43 L 845.79 457.00 L 829.90 457.00 C816.43,457.00 814.00,457.23 814.00,458.50 C814.00,459.46 815.00,460.02 816.75,460.06 C821.99,460.16 826.22,462.36 828.14,465.98 C829.89,469.26 830.00,472.89 829.99,527.48 C829.99,564.16 829.61,586.86 828.96,589.20 C827.72,593.68 824.14,596.68 818.33,598.15 C815.95,598.75 814.00,599.63 814.00,600.12 C814.00,600.60 823.22,601.00 834.50,601.00 C855.11,601.00 859.60,600.15 849.95,598.08 C842.55,596.50 839.27,594.45 837.00,590.00 C835.04,586.16 834.99,584.51 835.24,531.27 L 835.50 476.50 L 842.92 487.00 C852.18,500.10 870.98,526.79 884.85,546.50 C890.65,554.75 898.60,566.00 902.50,571.50 C906.40,577.00 913.18,586.58 917.55,592.78 C924.42,602.53 925.84,604.03 928.00,603.78 L 930.50 603.50 L 930.50 538.00 ZM 161.41 600.15 C161.70,599.68 160.16,598.76 157.98,598.11 C151.64,596.21 148.75,593.12 148.82,588.32 C148.86,585.00 154.05,569.66 161.53,550.73 C162.17,549.10 164.14,548.99 187.83,549.23 L 213.44 549.50 L 220.79 568.00 C230.38,592.13 230.51,595.71 221.88,598.03 C219.75,598.61 218.00,599.51 218.00,600.04 C218.00,601.25 264.66,601.35 265.41,600.15 C265.70,599.68 264.12,598.75 261.91,598.09 C259.69,597.43 256.13,595.30 253.99,593.38 C250.41,590.13 248.38,585.52 227.19,532.18 C214.59,500.46 202.52,469.89 200.39,464.25 C197.64,457.02 196.02,454.00 194.87,454.00 C193.66,454.00 191.65,458.38 187.18,470.75 C183.85,479.96 177.96,495.60 174.11,505.50 C170.25,515.40 161.92,536.93 155.58,553.35 C149.25,569.77 142.90,585.21 141.47,587.65 C138.51,592.69 131.82,598.00 128.41,598.00 C126.03,598.00 124.59,599.25 125.69,600.36 C126.66,601.33 160.80,601.13 161.41,600.15 ZM 545.45 600.07 C545.77,599.56 543.56,598.64 540.55,598.01 C532.37,596.31 529.37,593.05 528.54,584.94 C528.17,581.40 528.01,553.67 528.18,523.32 C528.55,459.09 527.74,463.74 539.04,460.90 C551.67,457.73 547.91,457.00 519.00,457.00 C497.88,457.00 491.92,457.27 492.25,458.24 C492.47,458.92 494.51,459.79 496.78,460.18 C502.38,461.13 504.76,462.55 507.05,466.31 C508.92,469.38 508.99,471.78 508.94,528.00 C508.90,570.60 508.56,587.44 507.69,589.97 C506.26,594.13 501.60,597.49 496.01,598.38 C493.71,598.75 492.17,599.47 492.51,600.02 C493.30,601.29 544.67,601.35 545.45,600.07 ZM 650.47 600.05 C650.80,599.52 649.31,598.62 647.16,598.04 C645.02,597.47 642.08,596.06 640.63,594.92 C636.30,591.52 636.99,586.61 644.64,566.46 L 651.28 548.97 L 676.72 549.23 L 702.16 549.50 L 709.58 568.34 C713.66,578.70 717.00,588.64 717.00,590.43 C717.00,594.11 714.93,596.43 710.19,598.09 C708.43,598.70 707.00,599.60 707.00,600.10 C707.00,600.61 717.20,601.00 730.50,601.00 C750.72,601.00 754.00,600.79 754.00,599.50 C754.00,598.62 753.08,597.99 751.75,597.98 C747.89,597.96 741.63,593.67 739.33,589.47 C736.17,583.73 691.74,472.11 685.47,454.17 C684.43,451.20 682.33,454.14 679.10,463.08 C669.02,491.00 636.17,575.60 631.90,584.65 C628.55,591.73 623.75,596.40 618.05,598.10 C615.86,598.76 614.30,599.68 614.59,600.15 C615.32,601.33 649.74,601.23 650.47,600.05 ZM 297.00 451.04 C309.16,448.30 311.16,447.63 314.68,445.12 C316.69,443.68 320.62,440.15 323.42,437.28 C330.64,429.85 335.28,428.12 350.95,427.00 C364.44,426.04 368.20,424.92 373.00,420.44 C377.42,416.31 384.85,413.70 393.01,413.40 C397.15,413.25 401.79,412.65 403.33,412.06 C404.87,411.48 407.14,411.00 408.37,411.00 C409.60,411.00 412.13,409.88 413.99,408.51 C415.88,407.11 419.45,405.74 422.11,405.39 C427.67,404.65 433.00,401.71 433.72,398.98 C434.33,396.62 443.23,393.07 451.00,392.08 C454.02,391.69 457.94,390.62 459.70,389.69 C461.46,388.76 463.40,388.00 464.00,388.00 C464.60,388.00 468.79,385.01 473.30,381.35 C483.79,372.85 487.85,371.11 505.58,367.47 C506.72,367.24 508.88,365.91 510.38,364.52 C511.88,363.14 513.58,362.00 514.16,362.00 C514.74,362.00 516.58,360.85 518.25,359.44 C519.92,358.04 523.58,355.72 526.39,354.28 C535.60,349.58 554.97,350.17 560.74,355.33 C563.41,357.72 568.21,367.55 569.39,373.06 C570.08,376.28 574.04,382.19 575.92,382.81 C576.89,383.13 576.62,382.13 575.09,379.64 C573.85,377.64 573.21,376.00 573.67,376.01 C574.13,376.01 576.85,377.37 579.72,379.01 C585.55,382.35 585.90,384.68 580.66,385.19 C578.18,385.43 577.43,386.02 577.16,387.94 C576.94,389.45 577.52,390.93 578.66,391.81 C579.96,392.81 580.13,393.37 579.25,393.70 C578.56,393.96 578.00,395.41 578.00,396.92 C578.00,400.53 582.47,402.96 584.81,400.62 C586.11,399.31 586.58,399.33 588.77,400.77 C591.14,402.32 591.35,402.29 593.14,400.07 C594.59,398.28 594.76,397.42 593.89,396.37 C593.03,395.33 593.06,395.00 594.02,395.00 C594.71,395.00 595.86,395.79 596.57,396.75 C597.55,398.08 598.15,398.22 599.04,397.34 C599.94,396.46 599.75,395.94 598.24,395.13 C596.80,394.36 596.40,393.36 596.76,391.48 C597.15,389.44 596.80,388.76 595.13,388.32 C593.77,387.97 593.00,386.97 593.00,385.55 C593.00,384.12 592.03,382.88 590.25,382.03 C588.74,381.31 586.06,380.02 584.30,379.16 C579.02,376.59 571.00,368.62 570.97,365.91 C570.95,364.58 569.89,361.35 568.60,358.73 L 566.26 353.96 L 569.88 354.55 C574.75,355.34 581.44,356.69 587.50,358.12 C590.25,358.77 596.33,359.36 601.00,359.44 C607.41,359.54 610.30,360.05 612.74,361.50 C615.33,363.04 616.23,363.17 617.23,362.17 C618.77,360.63 616.75,359.04 613.25,359.02 C608.98,358.99 611.06,357.49 621.56,353.03 C631.26,348.91 632.67,348.58 639.30,348.85 C643.26,349.02 648.64,348.62 651.25,347.96 C655.50,346.89 656.57,347.00 661.50,349.00 C664.52,350.23 667.00,351.83 667.00,352.57 C667.00,353.30 667.72,354.30 668.60,354.80 C669.94,355.55 670.00,356.03 668.95,357.72 C666.57,361.52 671.27,366.59 674.33,363.53 C675.62,362.23 675.95,362.23 677.02,363.53 C679.70,366.75 684.76,364.02 683.69,359.93 C683.29,358.39 683.52,358.00 684.57,358.42 C685.36,358.74 686.67,359.27 687.50,359.61 C688.46,360.00 689.00,359.64 689.00,358.61 C689.00,357.72 688.55,357.00 688.00,357.00 C687.45,357.00 687.00,356.13 687.00,355.07 C687.00,354.01 686.37,352.52 685.61,351.75 C684.84,350.99 684.05,349.49 683.84,348.43 C683.64,347.37 682.72,346.49 681.80,346.49 C680.89,346.48 679.81,346.14 679.40,345.74 C679.00,345.33 682.23,344.96 686.58,344.91 C698.78,344.78 706.35,344.05 707.48,342.91 C708.18,342.20 706.82,342.10 703.09,342.59 C698.30,343.22 697.74,343.11 698.30,341.65 C699.07,339.65 698.61,339.63 693.50,341.47 C689.15,343.04 679.00,343.52 679.00,342.15 C679.00,341.69 679.90,340.50 681.00,339.50 C683.39,337.34 683.59,333.28 681.46,330.25 C680.00,328.16 680.08,327.99 683.26,326.67 C685.09,325.90 687.37,324.09 688.32,322.64 C689.27,321.19 690.94,320.00 692.02,320.00 C693.36,320.00 694.00,319.33 694.00,317.92 C694.00,316.19 693.48,315.90 690.80,316.17 C688.08,316.45 687.50,316.12 687.01,314.00 C686.59,312.23 685.65,311.41 683.78,311.19 C680.92,310.85 675.00,313.44 675.00,315.03 C675.00,315.56 674.53,316.00 673.96,316.00 C673.25,316.00 673.25,315.40 673.96,314.07 C675.45,311.29 675.24,307.79 673.44,305.22 C672.29,303.57 670.88,303.00 668.00,303.00 C663.13,303.00 661.00,305.68 661.00,311.80 L 661.00 316.15 L 658.37 314.07 C655.41,311.74 648.86,311.26 647.21,313.25 C646.64,313.94 645.88,316.12 645.50,318.11 C644.91,321.28 645.17,321.99 647.64,323.93 C649.18,325.15 651.75,326.40 653.35,326.72 L 656.24 327.30 L 653.88 328.56 C652.59,329.26 651.17,329.60 650.73,329.34 C649.39,328.50 646.07,333.35 646.03,336.20 C646.01,338.11 644.93,339.71 642.34,341.69 C639.26,344.04 637.52,344.54 631.20,344.85 C624.84,345.18 622.66,345.80 616.61,349.07 C607.86,353.78 598.29,355.24 593.23,352.62 C591.51,351.73 588.67,351.00 586.92,351.00 C584.04,351.00 576.20,349.20 575.03,348.27 C574.77,348.06 575.21,347.49 576.00,347.00 C576.79,346.51 577.13,345.80 576.75,345.41 C576.36,345.03 575.44,345.22 574.69,345.85 C572.60,347.58 567.28,347.52 558.79,345.68 C554.55,344.75 548.37,344.00 545.04,344.00 C541.68,344.00 539.00,343.56 539.00,343.00 C539.00,342.45 539.36,342.00 539.80,342.00 C540.93,342.00 550.31,335.98 549.87,335.54 C549.24,334.92 540.75,337.46 535.62,339.79 C532.94,341.00 530.42,342.00 530.02,342.00 C529.62,342.00 525.97,344.38 521.90,347.28 C511.32,354.84 504.27,359.00 502.04,359.00 C500.98,359.00 497.99,360.12 495.40,361.50 C492.15,363.23 489.12,364.00 485.57,364.00 C480.23,364.00 479.31,364.44 470.50,371.08 C466.35,374.22 456.00,379.62 456.00,378.65 C456.00,378.50 457.17,375.95 458.60,372.99 C460.03,370.03 464.09,364.60 467.63,360.94 C473.45,354.91 474.44,354.27 478.05,354.27 C484.61,354.27 488.60,349.09 485.58,344.48 L 483.99 342.06 L 489.75 340.41 C496.68,338.42 498.44,337.23 496.99,335.49 C496.24,334.58 496.95,333.06 499.63,329.87 C501.66,327.47 504.57,322.75 506.11,319.38 C509.02,313.00 513.40,308.44 517.64,307.38 C519.18,306.99 519.92,306.24 519.60,305.39 C519.31,304.64 519.93,303.57 520.97,303.02 C523.52,301.65 524.00,301.73 524.00,303.53 C524.00,304.37 524.67,305.32 525.48,305.63 C526.66,306.08 526.73,306.63 525.85,308.29 C524.90,310.06 525.15,310.73 527.56,312.80 L 530.39 315.24 L 532.06 313.18 C533.19,311.78 534.05,311.45 534.75,312.15 C535.31,312.71 536.83,313.02 538.13,312.83 C539.98,312.57 540.49,311.89 540.46,309.75 C540.44,308.24 540.95,307.00 541.59,307.00 C543.39,307.00 544.98,304.58 544.10,303.17 C543.67,302.47 542.01,301.75 540.41,301.57 C538.26,301.33 537.59,300.78 537.83,299.48 C538.01,298.51 537.64,297.40 537.02,297.01 C536.40,296.63 538.87,295.58 542.51,294.68 L 549.14 293.05 L 551.32 295.45 C552.52,296.77 554.96,298.15 556.75,298.50 C559.48,299.05 560.46,298.69 562.95,296.21 L 565.90 293.26 L 566.51 296.06 C567.23,299.32 568.55,300.61 572.01,301.43 C575.42,302.24 579.15,300.08 580.29,296.65 C581.05,294.35 580.82,293.25 579.09,290.90 L 576.94 288.00 L 579.07 288.00 C580.23,288.00 582.53,287.21 584.17,286.25 C586.53,284.86 587.04,283.98 586.65,282.00 C585.79,277.64 585.46,276.53 584.66,275.25 C583.56,273.48 576.99,273.70 574.91,275.58 C573.28,277.06 573.20,276.91 573.70,273.22 C574.47,267.43 572.80,265.00 568.02,265.00 C563.37,265.00 561.00,267.64 561.00,272.80 L 561.00 276.15 L 558.15 273.83 C556.58,272.55 555.51,270.92 555.77,270.20 C556.04,269.49 560.06,266.37 564.72,263.27 C572.43,258.14 573.44,257.73 576.02,258.70 C578.32,259.57 579.43,259.42 581.92,257.90 C585.14,255.95 585.68,254.14 584.00,251.00 C583.20,249.51 583.40,249.01 584.97,248.51 C586.05,248.17 589.43,245.12 592.49,241.75 C600.75,232.62 607.10,228.96 604.98,234.57 C604.44,235.98 604.00,237.33 604.00,237.57 C604.00,238.59 607.66,237.81 609.50,236.40 C611.49,234.88 611.49,234.86 609.30,233.07 L 607.10 231.26 L 610.51 229.42 C615.47,226.75 613.99,226.48 607.57,228.89 C604.51,230.03 602.00,230.73 602.00,230.44 C602.00,230.14 602.71,228.53 603.57,226.86 C605.93,222.31 604.67,222.39 601.63,226.98 C599.04,230.89 596.48,232.51 597.64,229.50 C597.95,228.68 597.77,228.00 597.23,228.00 C596.69,228.00 595.96,229.46 595.60,231.23 C595.25,233.01 593.78,236.24 592.35,238.41 L 589.74 242.35 L 588.31 239.63 C587.38,237.84 586.30,237.06 585.19,237.37 C584.26,237.63 582.49,238.13 581.25,238.49 C579.21,239.07 579.00,238.79 579.00,235.54 C579.00,232.61 578.53,231.77 576.43,230.98 C575.02,230.44 573.48,230.00 573.01,230.00 C571.16,230.00 569.00,233.28 569.00,236.07 C569.00,239.38 568.51,239.65 566.36,237.50 C564.56,235.70 559.87,235.53 558.20,237.20 C557.54,237.86 557.00,239.86 557.00,241.64 C557.00,244.42 557.48,245.05 560.49,246.13 L 563.98 247.39 L 561.99 249.51 C560.90,250.68 560.00,252.24 560.00,252.99 C560.00,255.25 563.16,258.00 565.78,258.00 C567.86,258.00 568.05,258.24 567.00,259.50 C566.32,260.33 565.02,261.01 564.13,261.02 C563.23,261.03 561.38,261.92 560.00,263.00 C556.79,265.51 555.63,265.51 556.29,263.00 C557.29,259.18 555.26,261.03 553.56,265.49 C552.61,267.96 550.53,270.91 548.92,272.06 C547.12,273.34 546.00,275.03 546.00,276.48 C546.00,279.42 539.15,286.57 532.76,290.30 C527.86,293.16 513.95,302.91 510.59,305.84 C508.79,307.41 508.72,307.39 509.28,305.50 C509.60,304.40 510.52,301.74 511.31,299.59 C512.71,295.81 512.67,295.62 510.12,293.38 C508.16,291.65 507.91,291.06 509.12,291.03 C512.29,290.97 516.14,286.94 515.84,284.00 C515.49,280.74 517.48,278.00 520.17,278.00 C523.07,278.00 528.00,275.15 528.00,273.47 C528.00,272.66 527.27,272.00 526.37,272.00 C525.04,272.00 524.84,271.25 525.27,268.00 C525.78,264.20 524.89,262.75 523.46,265.06 C523.10,265.65 521.72,266.53 520.40,267.04 C518.10,267.91 517.41,270.06 517.81,275.15 C517.99,277.39 515.63,279.18 513.56,278.38 C512.12,277.83 511.94,276.66 512.35,270.63 C512.87,262.98 511.25,257.00 508.66,257.00 C505.17,257.00 504.94,266.02 508.36,268.71 C511.77,271.39 510.90,275.98 506.60,278.03 L 503.40 279.55 L 503.40 276.37 C503.40,271.90 501.46,270.00 496.91,270.00 C492.46,270.00 491.00,271.84 491.00,277.49 C491.00,281.03 490.95,281.08 488.78,279.56 C486.10,277.68 481.00,277.53 478.76,279.25 C477.31,280.37 476.58,283.29 476.89,286.72 C477.03,288.30 482.22,290.99 485.20,291.04 C487.41,291.08 487.40,291.14 484.76,292.57 C483.26,293.38 481.76,295.12 481.43,296.43 C480.32,300.85 483.45,303.96 489.50,304.46 C491.86,304.65 496.00,301.29 496.00,299.18 C496.00,298.21 496.84,298.61 498.47,300.37 C499.83,301.84 502.33,303.32 504.02,303.65 C505.72,303.99 506.92,304.77 506.68,305.39 C503.27,314.21 498.88,322.95 496.40,325.83 L 493.30 329.42 L 491.97 326.96 C491.24,325.61 490.62,321.69 490.57,318.25 C490.53,314.81 490.21,312.00 489.87,312.00 C488.91,312.00 487.88,316.01 487.68,320.50 C487.51,324.22 487.28,324.52 484.32,324.81 C482.58,324.98 480.61,325.76 479.95,326.56 C477.99,328.92 477.09,328.21 477.65,324.75 C478.73,318.11 471.77,313.67 466.30,317.50 C463.67,319.34 462.48,324.16 463.97,326.94 C465.36,329.54 464.52,329.55 461.27,327.00 C458.17,324.56 452.34,324.38 449.83,326.65 C447.64,328.64 447.40,334.26 449.41,336.27 C450.19,337.05 452.19,338.25 453.84,338.94 L 456.86 340.18 L 454.93 343.34 C452.58,347.20 452.52,348.81 454.61,351.13 C455.94,352.59 456.03,353.48 455.11,356.10 C454.50,357.86 454.00,360.26 454.00,361.43 C454.00,364.70 447.60,377.18 444.37,380.18 C442.79,381.65 439.25,383.75 436.50,384.84 C433.75,385.94 429.02,388.21 426.00,389.90 C422.98,391.58 419.44,392.97 418.14,392.98 C416.85,392.99 412.80,394.43 409.14,396.17 C403.85,398.70 401.07,399.38 395.50,399.51 C391.65,399.61 386.92,400.38 385.00,401.24 C381.61,402.74 368.00,406.07 368.00,405.39 C368.00,405.21 369.29,403.13 370.87,400.78 C372.44,398.43 374.46,395.29 375.34,393.82 C376.23,392.35 379.64,389.71 382.92,387.96 C390.22,384.07 391.29,382.88 393.41,376.37 C394.33,373.54 395.85,370.58 396.79,369.79 C400.82,366.38 406.53,363.94 411.34,363.57 C414.18,363.35 416.89,363.14 417.36,363.09 C417.84,363.04 418.04,361.70 417.80,360.12 C417.51,358.10 417.92,356.90 419.19,356.11 C420.19,355.49 421.00,354.54 421.00,353.99 C421.00,352.31 418.41,352.89 415.41,355.25 L 412.54 357.50 L 414.27 355.03 C417.33,350.66 415.63,346.77 412.18,350.22 C411.51,350.89 410.01,351.46 408.84,351.47 C407.68,351.49 406.23,352.31 405.61,353.31 C404.72,354.75 404.88,355.40 406.39,356.52 C408.19,357.86 408.20,358.05 406.56,360.54 C405.09,362.79 399.07,366.40 398.21,365.54 C397.49,364.83 402.51,352.06 405.16,347.84 C407.98,343.36 408.30,343.17 413.79,342.63 C416.93,342.32 420.62,342.17 422.00,342.29 C424.09,342.47 424.52,342.05 424.60,339.75 C424.69,337.33 424.33,337.00 421.68,337.00 C420.02,337.00 417.92,337.67 417.01,338.49 C414.98,340.33 409.00,341.64 409.00,340.25 C409.00,339.70 409.67,338.68 410.50,338.00 C411.33,337.32 412.00,336.28 412.00,335.69 C412.00,332.92 405.92,340.95 401.94,348.97 C397.53,357.86 396.08,359.61 395.91,356.25 C395.86,355.29 395.19,357.99 394.42,362.25 C391.74,377.06 385.02,385.51 374.60,387.19 C373.53,387.37 371.14,390.10 369.10,393.45 C363.26,403.12 347.07,415.11 342.03,413.51 C340.91,413.16 338.04,413.96 335.09,415.45 C332.33,416.85 329.37,418.00 328.52,418.00 C327.68,418.00 324.34,420.43 321.12,423.39 C317.89,426.36 314.33,429.08 313.20,429.44 C312.06,429.80 309.80,432.46 308.17,435.35 C304.74,441.43 299.65,446.23 293.39,449.27 C290.98,450.44 289.00,451.81 289.00,452.31 C289.00,452.81 289.56,453.00 290.25,452.75 C290.94,452.49 293.98,451.73 297.00,451.04 ZM 607.81 411.75 C608.11,409.19 608.17,409.17 611.56,410.59 C614.69,411.90 615.00,411.88 615.00,410.33 C615.00,407.18 610.94,404.00 606.93,404.00 C601.82,404.00 600.42,407.66 603.64,412.57 C605.63,415.61 607.39,415.26 607.81,411.75 ZM 646.39 405.43 C646.72,404.56 646.53,402.99 645.96,401.93 C644.89,399.93 646.31,399.08 647.50,401.00 C648.30,402.29 652.70,402.30 653.49,401.01 C654.71,399.04 650.64,395.06 647.38,395.03 C640.96,394.97 638.28,396.01 638.55,398.47 C639.23,404.68 644.78,409.61 646.39,405.43 ZM 634.55 388.94 C636.00,387.34 636.17,386.50 635.31,385.13 C634.38,383.63 634.81,383.12 638.36,381.55 C641.02,380.38 641.96,379.55 641.00,379.23 C640.17,378.96 638.73,378.07 637.78,377.24 C636.84,376.42 635.15,375.99 634.03,376.28 C632.33,376.73 632.00,376.34 632.00,373.91 C632.00,371.36 631.64,371.00 629.07,371.00 C627.09,371.00 625.94,371.60 625.55,372.86 C625.13,374.18 624.27,374.58 622.57,374.26 C620.89,373.94 619.86,374.40 619.09,375.83 C617.81,378.22 618.63,381.00 620.61,381.00 C622.49,381.00 622.36,381.70 620.00,384.23 C617.53,386.88 617.50,387.66 619.83,388.91 C621.12,389.60 622.49,389.46 624.48,388.43 C627.07,387.08 627.40,387.13 628.70,388.98 C630.50,391.55 632.20,391.54 634.55,388.94 ZM 760.00 380.51 C760.68,379.68 761.03,377.92 760.77,376.58 C760.16,373.39 763.78,372.16 766.00,374.80 C766.83,375.78 768.53,376.58 769.80,376.58 C771.66,376.57 772.04,376.10 771.80,374.04 C771.61,372.44 770.77,371.38 769.50,371.15 C766.38,370.58 765.00,369.00 765.00,365.98 C765.00,363.33 764.85,363.24 761.50,364.00 C758.03,364.78 758.00,364.76 758.00,361.36 C758.00,359.44 757.42,357.71 756.67,357.43 C754.23,356.49 750.08,358.84 749.40,361.54 C748.93,363.40 748.44,363.84 747.67,363.07 C746.07,361.47 742.30,361.78 741.61,363.58 C740.55,366.35 740.95,368.87 742.60,369.80 C743.94,370.55 744.00,371.03 742.95,372.72 C741.33,375.30 742.07,377.17 745.41,378.95 C747.74,380.20 748.25,380.18 749.68,378.75 C751.18,377.25 751.46,377.31 753.23,379.56 C755.40,382.33 758.16,382.71 760.00,380.51 ZM 791.27 365.92 C793.00,363.78 792.99,363.64 791.08,361.86 C789.59,360.47 788.52,360.23 786.80,360.90 C784.14,361.92 779.78,367.44 780.80,368.48 C782.21,369.91 789.48,368.13 791.27,365.92 ZM 739.90 359.38 C739.27,358.62 739.07,358.00 739.45,358.00 C739.83,358.00 739.16,356.62 737.96,354.94 C736.76,353.26 735.98,351.68 736.23,351.44 C736.47,351.20 738.88,351.67 741.59,352.49 C747.27,354.21 750.33,354.50 748.12,353.10 C747.36,352.62 747.02,351.77 747.36,351.23 C748.09,350.04 744.81,349.03 740.15,349.01 C738.31,349.01 734.37,348.29 731.38,347.42 C724.63,345.46 722.23,346.07 727.28,348.46 C731.80,350.61 737.00,356.59 737.00,359.63 C737.00,361.33 737.45,361.70 739.02,361.28 C740.61,360.87 740.80,360.46 739.90,359.38 ZM 768.00 354.59 C768.00,353.39 767.46,351.86 766.80,351.20 C766.05,350.45 766.00,350.00 766.65,350.00 C767.23,350.00 769.12,348.65 770.84,347.00 L 773.98 344.00 L 771.49 344.00 C769.90,344.00 769.00,343.44 769.00,342.43 C769.00,341.27 768.42,341.04 766.75,341.55 C762.97,342.70 758.69,346.69 759.62,348.20 C759.90,348.64 758.29,349.00 756.06,349.00 C753.83,349.00 752.00,349.45 752.00,350.00 C752.00,350.55 753.54,351.00 755.42,351.00 C758.24,351.00 759.06,351.51 760.14,353.96 C762.09,358.37 768.00,358.85 768.00,354.59 ZM 397.99 343.25 C398.00,342.56 397.55,342.00 397.00,342.00 C396.45,342.00 396.00,340.92 396.00,339.61 C396.00,336.62 392.73,332.43 391.16,333.40 C390.52,333.79 390.00,335.86 390.00,338.00 C390.00,340.14 389.55,342.16 389.00,342.50 C387.08,343.69 388.03,346.05 391.20,347.98 L 394.41 349.93 L 396.20 347.21 C397.18,345.72 397.99,343.94 397.99,343.25 ZM 594.17 344.35 C596.22,342.49 596.54,339.94 594.94,338.34 C594.19,337.59 594.80,337.09 597.01,336.65 C599.94,336.06 600.11,335.79 599.75,332.26 C599.38,328.64 599.23,328.50 595.68,328.61 C592.30,328.72 592.00,328.50 592.00,325.97 C592.00,320.81 585.36,320.93 584.33,326.12 C583.77,328.91 583.63,328.98 581.91,327.42 C577.82,323.71 572.00,329.13 575.69,333.21 C576.58,334.20 577.98,335.00 578.81,335.00 C580.06,335.00 580.02,335.33 578.56,336.93 C577.28,338.35 577.00,339.70 577.50,341.99 C578.13,344.89 578.42,345.07 581.34,344.45 C583.08,344.09 584.91,343.41 585.40,342.94 C585.91,342.47 587.40,342.96 588.79,344.05 C591.80,346.41 591.88,346.42 594.17,344.35 ZM 716.43 340.43 C717.57,339.29 717.73,338.37 717.02,337.04 C716.25,335.60 716.46,335.11 718.02,334.70 C719.20,334.40 720.00,333.34 720.00,332.09 C720.00,330.46 719.38,330.00 717.14,330.00 C714.63,330.00 714.34,329.69 714.75,327.51 C715.35,324.40 712.56,323.01 710.29,325.29 C709.08,326.49 708.32,326.59 706.94,325.73 C705.60,324.89 704.77,324.94 703.58,325.93 C701.91,327.32 701.42,331.53 702.83,332.40 C703.29,332.68 703.47,334.22 703.24,335.82 C702.88,338.30 703.21,338.84 705.45,339.40 C706.90,339.76 708.47,339.83 708.93,339.54 C709.40,339.26 710.33,339.69 711.01,340.51 C712.60,342.43 714.46,342.40 716.43,340.43 ZM 431.34 324.05 L 434.50 320.82 L 430.25 321.18 C427.91,321.39 426.00,321.46 426.00,321.34 C426.00,321.23 426.45,319.95 427.00,318.50 C427.67,316.73 427.67,315.24 426.98,313.96 C426.12,312.35 425.58,312.23 423.50,313.18 C420.77,314.43 420.27,315.56 419.08,323.07 L 418.26 328.23 L 423.22 327.75 C427.15,327.38 428.85,326.60 431.34,324.05 ZM 718.52 305.83 C723.20,306.13 724.12,305.84 727.37,302.98 C729.37,301.23 731.00,299.34 731.00,298.80 C731.00,298.23 729.06,297.95 726.50,298.16 C724.03,298.35 722.00,298.43 722.00,298.32 C722.00,298.22 722.47,296.88 723.06,295.35 C723.64,293.83 723.85,291.55 723.54,290.29 C722.08,284.47 714.48,290.91 713.42,298.85 C713.05,301.67 712.13,304.48 711.37,305.11 C710.62,305.73 710.00,306.69 710.00,307.24 C710.00,307.79 710.74,307.63 711.65,306.87 C712.73,305.98 715.14,305.62 718.52,305.83 ZM 592.00 288.50 C592.99,287.30 592.99,286.70 592.00,285.50 C591.32,284.67 590.15,284.00 589.41,284.00 C587.78,284.00 585.67,287.66 586.51,289.02 C587.43,290.50 590.59,290.20 592.00,288.50 ZM 599.74 223.81 C600.76,221.72 600.71,220.72 599.43,218.15 C596.53,212.36 594.64,212.83 593.54,219.61 C593.02,222.78 593.26,224.12 594.55,225.41 C596.66,227.52 598.16,227.06 599.74,223.81 ZM 625.58 223.92 C627.13,222.20 627.14,221.99 625.64,221.42 C624.50,220.98 624.19,220.08 624.62,218.40 C625.09,216.51 624.82,216.00 623.36,216.02 C620.53,216.04 619.22,217.22 617.54,221.25 C615.63,225.82 615.63,225.78 617.75,226.22 C620.66,226.82 623.78,225.90 625.58,223.92 ZM 613.20 213.06 C615.15,211.52 615.58,210.42 615.26,207.81 C614.55,202.04 614.31,201.75 611.62,203.51 C609.19,205.10 607.84,209.68 608.76,213.19 C609.36,215.49 610.14,215.46 613.20,213.06 ZM 795.12 690.29 C788.33,686.95 785.52,678.14 788.84,670.64 C791.18,665.34 794.98,662.99 801.20,663.01 C807.21,663.04 810.13,664.79 812.81,670.00 C819.32,682.70 807.42,696.35 795.12,690.29 ZM 229.75 691.43 C229.34,691.01 229.00,688.04 229.00,684.83 L 229.00 679.00 L 236.43 679.00 C244.75,679.00 247.00,680.26 247.00,684.92 C247.00,689.23 243.82,691.35 236.69,691.80 C233.29,692.01 230.16,691.85 229.75,691.43 ZM 229.67 674.33 C229.30,673.97 229.00,671.27 229.00,668.33 L 229.00 663.00 L 235.93 663.00 C243.45,663.00 246.01,664.36 245.98,668.32 C245.97,671.06 245.08,672.39 242.32,673.85 C239.97,675.08 230.77,675.44 229.67,674.33 ZM 359.78 681.45 C359.01,680.67 365.38,665.82 366.49,665.83 C367.42,665.84 372.92,678.49 372.97,680.75 C372.99,681.62 371.08,682.00 366.67,682.00 C363.18,682.00 360.09,681.75 359.78,681.45 ZM 861.75 677.43 C861.34,677.01 861.00,673.59 861.00,669.83 L 861.00 663.00 L 867.46 663.00 C872.82,663.00 874.27,663.37 875.96,665.19 C878.50,667.91 878.58,672.06 876.15,675.06 C874.70,676.86 873.03,677.44 868.40,677.77 C865.15,678.00 862.16,677.85 861.75,677.43 ZM 164.68 544.25 C164.26,543.53 184.95,488.98 186.74,486.08 C187.35,485.08 191.15,493.51 199.28,513.97 C205.70,530.09 210.71,543.67 210.41,544.14 C209.76,545.19 165.29,545.30 164.68,544.25 ZM 654.00 543.65 C654.00,542.91 656.05,536.95 658.55,530.40 C661.06,523.86 665.89,511.19 669.30,502.25 C672.70,493.31 675.88,486.13 676.35,486.28 C677.48,486.66 699.93,543.27 699.34,544.25 C699.09,544.66 688.78,545.00 676.44,545.00 C658.29,545.00 654.00,544.74 654.00,543.65 ZM 457.20 359.50 C457.49,354.59 457.56,354.50 460.87,354.33 C463.15,354.22 465.29,353.14 467.50,351.00 C469.30,349.25 471.03,348.24 471.34,348.74 C471.65,349.24 468.52,352.99 464.40,357.07 L 456.90 364.50 L 457.20 359.50 ZM 664.84 348.02 L 662.50 346.07 L 666.00 346.02 C667.92,345.99 670.48,345.71 671.68,345.39 C673.51,344.90 673.78,345.14 673.32,346.89 C673.02,348.04 672.38,348.74 671.91,348.44 C671.43,348.15 670.17,348.37 669.11,348.94 C667.62,349.74 666.65,349.53 664.84,348.02 ZM 647.20 341.41 C649.61,338.94 650.19,338.77 652.50,339.82 C656.80,341.78 660.53,341.24 663.80,338.19 L 666.80 335.38 L 669.37 338.60 C672.69,342.75 672.13,342.97 656.50,343.65 L 644.50 344.18 L 647.20 341.41 ZM 664.32 327.75 C664.81,326.38 664.35,325.98 662.22,325.88 C660.43,325.81 660.12,325.61 661.30,325.30 C662.79,324.91 662.89,324.57 661.85,323.32 C660.78,322.03 660.96,321.86 663.05,322.15 C665.82,322.55 667.01,326.46 664.94,328.37 C663.99,329.24 663.85,329.10 664.32,327.75 ZM 668.00 326.06 C668.00,323.57 669.97,322.33 671.09,324.12 C671.66,325.04 671.45,325.61 670.46,325.83 C669.64,326.00 669.23,326.57 669.55,327.08 C669.86,327.58 669.64,328.00 669.06,328.00 C668.48,328.00 668.00,327.13 668.00,326.06 ZM 538.00 292.08 C538.00,291.76 540.21,289.59 542.92,287.27 C547.82,283.04 547.84,283.04 551.38,284.51 L 554.92 285.99 L 552.54 288.37 C551.24,289.67 548.89,291.09 547.33,291.52 C543.78,292.51 538.00,292.85 538.00,292.08 ZM 493.25 291.34 C491.70,290.71 491.62,288.35 493.11,287.43 C494.29,286.71 495.96,288.64 495.98,290.75 C496.00,292.05 495.36,292.19 493.25,291.34 Z" fill="none"/>
</g>
</svg>