<svg xmlns="http://www.w3.org/2000/svg" width="1774" height="591" viewBox="0 0 1774 591">
<g>
<path d="M 548.00 324.04 C548.00,324.62 541.21,325.00 531.00,325.00 C521.29,325.00 514.00,324.60 514.00,324.08 C514.00,323.57 515.61,322.62 517.59,321.97 C523.29,320.09 528.05,315.16 531.56,307.50 C535.13,299.70 567.61,216.54 573.64,199.75 C576.42,192.02 577.96,189.00 579.14,189.00 C580.10,189.00 581.07,190.14 581.47,191.74 C582.54,196.00 627.67,308.47 630.59,314.16 C632.41,317.70 636.41,320.74 641.10,322.15 C643.21,322.78 644.70,323.68 644.41,324.15 C643.70,325.29 600.00,325.25 600.00,324.11 C600.00,323.62 601.24,322.91 602.75,322.54 C612.00,320.27 612.05,316.96 603.18,294.50 L 596.46 277.50 L 572.48 277.23 L 548.50 276.97 L 542.61 292.14 C539.37,300.48 536.51,309.15 536.26,311.40 C535.68,316.65 538.52,320.52 544.05,322.01 C546.22,322.60 548.00,323.51 548.00,324.04 ZM 1021.00 324.04 C1021.00,324.62 1014.21,325.00 1004.00,325.00 C994.65,325.00 987.00,324.62 987.00,324.16 C987.00,323.70 988.78,322.78 990.95,322.13 C995.25,320.85 1000.18,316.48 1002.58,311.85 C1005.34,306.50 1032.90,236.29 1041.57,212.50 C1044.58,204.25 1047.74,195.59 1048.60,193.25 C1049.46,190.91 1050.74,189.00 1051.45,189.00 C1052.16,189.00 1054.20,192.94 1056.00,197.75 C1059.63,207.48 1091.24,286.34 1098.35,303.40 C1103.41,315.54 1107.34,320.48 1113.21,322.06 C1121.36,324.25 1116.73,325.00 1095.06,325.00 C1082.99,325.00 1072.88,324.62 1072.59,324.15 C1072.30,323.68 1073.85,322.76 1076.04,322.11 C1078.30,321.43 1080.74,319.81 1081.70,318.34 C1082.02,317.84 1082.30,317.44 1082.48,317.00 C1083.41,314.82 1082.21,311.74 1074.60,292.19 L 1074.23 291.25 L 1068.68 277.00 L 1021.30 277.00 L 1015.51 292.15 C1012.33,300.48 1009.51,309.14 1009.26,311.40 C1008.68,316.65 1011.52,320.52 1017.05,322.01 C1019.22,322.60 1021.00,323.51 1021.00,324.04 ZM 1292.00 266.00 C1291.51,325.70 1291.47,326.50 1289.48,326.79 C1289.23,326.83 1289.01,326.88 1288.80,326.89 C1287.15,326.99 1285.35,324.51 1261.22,291.21 L 1257.45 286.00 C1235.27,255.39 1231.05,249.56 1215.77,228.45 C1211.77,222.92 1207.38,216.73 1206.00,214.70 C1204.62,212.67 1203.16,211.01 1202.75,211.01 C1202.34,211.00 1202.00,233.39 1202.00,260.75 C1202.00,306.12 1202.16,310.81 1203.75,313.98 C1205.97,318.40 1210.92,321.71 1216.56,322.56 C1225.85,323.95 1219.15,325.00 1200.94,325.00 C1183.05,325.00 1177.57,324.11 1185.25,322.46 C1190.82,321.26 1194.09,319.01 1195.83,315.18 C1197.32,311.89 1197.50,305.82 1197.50,257.46 C1197.50,206.79 1197.39,203.24 1195.67,200.62 C1193.69,197.59 1188.55,195.00 1184.53,195.00 C1183.14,195.00 1182.00,194.60 1182.00,194.12 C1182.00,192.55 1186.24,192.03 1199.11,192.01 L 1211.72 192.00 L 1221.54 205.75 C1232.43,221.01 1269.97,272.64 1280.04,286.21 C1283.59,291.00 1286.84,294.93 1287.25,294.96 C1288.40,295.02 1288.15,209.09 1287.00,204.93 C1285.50,199.55 1282.05,196.91 1274.80,195.61 C1263.48,193.59 1268.08,192.51 1289.50,192.18 C1306.84,191.91 1310.00,192.08 1310.00,193.30 C1310.00,194.22 1308.49,194.99 1305.84,195.41 C1300.42,196.28 1296.72,198.53 1294.39,202.39 C1292.61,205.32 1292.47,208.99 1292.00,266.00 ZM 767.97 325.35 C755.77,328.78 744.10,327.91 730.77,322.57 C722.04,319.08 717.08,319.32 715.16,323.35 C714.41,324.91 713.45,325.81 713.02,325.35 C712.59,324.88 711.93,315.84 711.55,305.25 C710.97,289.03 711.09,286.00 712.27,286.00 C713.16,286.00 714.13,287.99 714.89,291.40 C717.63,303.63 729.04,316.63 740.94,321.08 C752.12,325.26 764.53,323.52 772.69,316.62 C777.07,312.92 780.37,304.01 779.65,297.82 C778.39,286.90 772.51,280.72 754.50,271.38 C738.56,263.12 728.67,256.59 723.61,250.99 C712.49,238.69 711.00,219.59 720.11,206.34 C723.72,201.09 727.77,197.93 735.54,194.29 C741.12,191.68 742.32,191.50 754.50,191.54 C765.97,191.58 768.43,191.90 775.38,194.29 C784.80,197.53 786.39,197.61 789.00,195.00 C790.10,193.90 791.22,193.00 791.50,193.00 C792.27,193.00 792.09,224.57 791.33,225.34 C790.95,225.71 789.35,222.66 787.77,218.55 C784.17,209.23 778.02,202.14 770.20,198.30 C765.17,195.83 763.38,195.50 754.97,195.50 C746.72,195.50 744.78,195.84 740.48,198.05 C733.61,201.59 729.73,207.95 729.18,216.56 C728.66,224.70 731.21,230.28 738.27,236.45 C743.17,240.74 746.09,242.50 768.94,254.85 C781.65,261.72 788.95,268.16 792.71,275.81 C795.17,280.83 795.50,282.62 795.50,291.00 C795.50,299.39 795.17,301.17 792.69,306.21 C788.20,315.36 779.47,322.12 767.97,325.35 ZM 920.43 324.11 C919.68,325.33 872.00,325.27 872.00,324.05 C872.00,323.52 873.69,322.79 875.75,322.43 C880.70,321.56 883.62,319.64 885.50,315.99 C886.85,313.38 887.01,305.91 886.77,256.92 L 886.50 200.83 L 883.77 198.48 C882.26,197.18 879.01,195.82 876.52,195.45 C874.03,195.08 872.00,194.43 872.00,194.01 C872.00,192.49 878.68,192.00 899.71,192.00 C915.99,192.00 921.07,192.29 920.77,193.20 C920.54,193.87 918.82,194.78 916.93,195.24 C911.08,196.67 908.50,197.97 906.97,200.28 C904.77,203.61 904.23,310.21 906.39,315.39 C907.96,319.15 911.43,321.43 917.28,322.52 C919.31,322.91 920.73,323.62 920.43,324.11 ZM 551.00 271.82 C551.00,273.18 592.53,273.57 593.36,272.22 C593.63,271.79 589.56,260.88 584.33,247.97 C579.09,235.06 574.32,223.04 573.73,221.25 C573.15,219.46 572.39,218.00 572.05,218.00 C571.35,218.00 551.00,270.02 551.00,271.82 ZM 1024.00 271.47 C1024.00,272.80 1026.80,273.00 1045.00,273.00 C1059.61,273.00 1066.00,272.67 1066.00,271.90 C1066.00,271.29 1061.75,260.16 1056.55,247.15 C1051.36,234.14 1046.60,222.15 1045.98,220.50 C1045.58,219.41 1045.30,218.59 1044.91,218.52 C1043.92,218.37 1042.18,222.94 1035.72,239.95 L 1035.06 241.69 C1030.70,253.13 1026.43,264.17 1025.57,266.22 C1024.71,268.26 1024.00,270.63 1024.00,271.47 ZM 1160.54 403.12 C1153.32,406.40 1146.41,405.06 1140.79,399.28 C1134.54,392.86 1133.43,383.72 1137.99,376.24 C1141.11,371.13 1145.47,369.01 1152.85,369.00 C1164.38,369.00 1170.07,373.79 1170.82,384.15 C1171.05,387.33 1170.96,391.03 1170.62,392.39 C1169.68,396.14 1165.04,401.08 1160.54,403.12 ZM 609.60 400.60 L 606.20 404.00 L 586.00 404.00 L 586.00 368.82 L 596.59 369.16 C606.87,369.49 607.25,369.58 609.69,372.42 C611.69,374.75 612.09,376.06 611.65,378.80 C611.34,380.70 610.36,383.05 609.47,384.03 C608.09,385.56 608.06,385.94 609.28,386.66 C611.32,387.86 613.00,391.43 613.00,394.53 C613.00,396.23 611.77,398.43 609.60,400.60 ZM 1146.30 398.04 C1153.23,402.27 1162.45,399.34 1165.40,391.96 C1167.37,387.03 1167.40,384.90 1165.56,380.49 C1163.41,375.34 1158.70,372.80 1152.18,373.28 C1144.93,373.82 1140.93,377.66 1140.25,384.74 C1139.67,390.75 1141.72,395.25 1146.30,398.04 ZM 1212.80 397.24 C1212.56,402.25 1212.15,403.55 1210.75,403.81 C1209.14,404.12 1209.00,402.77 1209.00,386.48 L 1209.00 368.81 L 1218.58 369.15 C1227.96,369.49 1228.23,369.57 1231.08,372.77 C1234.38,376.46 1234.84,380.47 1232.51,384.99 C1230.08,389.68 1227.30,391.00 1219.83,391.00 L 1213.10 391.00 ZM 712.00 399.50 C710.62,402.73 709.50,404.00 708.04,404.00 C706.92,404.00 706.00,403.56 706.00,403.03 C706.00,402.50 709.12,394.73 712.93,385.78 C719.48,370.42 720.03,369.48 722.77,369.20 C725.63,368.90 725.76,369.11 732.38,385.20 C736.07,394.16 739.18,401.94 739.29,402.48 C739.41,403.01 738.56,403.60 737.40,403.78 C735.73,404.03 734.96,403.19 733.57,399.55 L 731.83 395.00 L 713.93 395.00 ZM 1075.00 395.96 C1075.00,403.09 1074.79,404.00 1073.17,404.00 C1072.16,404.00 1071.03,403.70 1070.67,403.33 C1070.30,402.97 1070.00,395.09 1070.00,385.83 L 1070.00 369.00 L 1072.50 369.00 C1074.94,369.00 1075.00,369.17 1075.00,376.50 L 1075.00 384.00 L 1093.77 384.00 L 1094.46 377.53 C1094.84,373.97 1094.87,370.59 1094.52,370.03 C1094.15,369.43 1094.94,369.00 1096.44,369.00 L 1099.00 369.00 L 1099.00 386.50 C1099.00,403.21 1098.91,404.00 1097.04,404.00 C1095.29,404.00 1095.05,403.18 1094.79,396.25 L 1094.50 388.50 L 1084.75 388.21 L 1075.00 387.93 ZM 795.02 403.14 C789.22,406.24 782.28,404.98 777.46,399.96 C774.51,396.88 774.50,396.83 774.17,382.94 L 773.85 369.00 L 779.00 369.00 L 779.00 382.05 C779.00,394.56 779.10,395.19 781.45,397.55 C784.97,401.06 791.71,401.00 795.08,397.42 C797.34,395.01 797.52,393.99 797.83,381.92 L 798.16 369.00 L 803.20 369.00 L 802.85 381.75 C802.45,396.25 801.12,399.87 795.02,403.14 ZM 1026.28 403.64 C1020.36,406.14 1013.50,404.58 1009.49,399.80 C1007.00,396.85 1006.93,396.52 1008.53,395.36 C1009.99,394.28 1010.69,394.54 1013.20,397.05 C1016.90,400.75 1023.78,401.22 1027.00,398.00 C1031.35,393.65 1028.93,390.50 1019.00,387.60 C1010.56,385.12 1007.29,381.50 1008.51,375.95 C1009.54,371.25 1013.31,369.00 1020.18,369.00 C1028.90,369.00 1035.82,373.42 1031.09,375.95 C1029.69,376.70 1028.83,376.47 1027.47,374.97 C1026.17,373.53 1024.39,373.00 1020.92,373.00 C1015.57,373.00 1012.71,374.98 1013.20,378.34 C1013.55,380.80 1016.37,382.37 1024.29,384.51 C1028.87,385.75 1030.49,386.75 1032.08,389.29 C1035.49,394.76 1033.06,400.77 1026.28,403.64 ZM 672.81 401.75 C672.52,403.27 671.01,403.54 661.24,403.78 C655.06,403.94 649.95,403.71 649.88,403.28 C649.82,402.85 649.71,394.96 649.63,385.75 L 649.50 369.01 L 660.75 369.00 C671.33,369.00 672.00,369.12 672.00,371.00 C672.00,372.85 671.33,373.00 662.95,373.00 L 653.90 373.00 L 654.50 383.50 L 662.32 383.79 C669.05,384.05 670.09,384.32 669.80,385.79 C669.54,387.20 668.10,387.55 661.74,387.79 L 654.00 388.08 L 654.00 400.00 L 663.57 400.00 C672.15,400.00 673.11,400.18 672.81,401.75 ZM 915.00 396.49 C914.60,402.11 914.16,403.55 912.75,403.81 C911.22,404.10 911.00,403.28 911.00,397.30 C911.00,393.12 910.47,389.68 909.63,388.47 C908.87,387.39 905.72,382.56 902.62,377.75 L 896.99 369.00 L 899.86 369.00 C902.37,369.00 903.32,369.98 907.56,377.00 C910.22,381.40 912.67,385.00 913.01,385.00 C913.34,385.00 915.76,381.40 918.38,377.00 C922.63,369.85 923.45,369.00 926.12,369.00 L 929.10 369.00 L 926.21 373.25 C915.95,388.33 915.52,389.23 915.00,396.49 ZM 853.78 388.29 C853.53,401.83 853.31,403.51 851.75,403.81 C850.79,404.00 849.94,403.89 849.88,403.57 C849.81,403.26 849.64,402.55 849.50,402.00 C849.36,401.45 849.19,394.70 849.12,387.00 L 849.00 373.00 L 843.50 373.00 C838.67,373.00 838.00,372.76 838.00,371.00 C838.00,369.09 838.67,369.00 852.07,369.00 C864.94,369.00 866.12,369.15 865.81,370.75 C865.55,372.13 864.27,372.56 859.77,372.80 L 854.05 373.10 ZM 1218.78 373.00 L 1213.00 373.00 L 1213.00 387.00 L 1218.69 387.00 C1225.63,387.00 1229.00,384.51 1229.00,379.38 C1229.00,374.84 1226.05,373.00 1218.78,373.00 ZM 591.00 388.00 L 591.00 400.00 L 597.28 400.00 C605.16,400.00 608.00,398.27 608.00,393.48 C608.00,389.06 605.97,388.00 597.57,388.00 ZM 591.00 373.00 L 591.00 384.00 L 597.17 384.00 C604.27,384.00 607.00,382.30 607.00,377.88 C607.00,374.18 604.60,373.00 597.07,373.00 ZM 716.42 389.25 C715.93,390.80 716.63,391.00 722.43,391.00 C729.95,391.00 730.07,390.80 726.94,383.38 C725.81,380.69 724.43,377.39 723.87,376.04 C722.91,373.72 722.67,374.00 719.91,380.54 C718.30,384.36 716.73,388.28 716.42,389.25 Z" fill="rgb(11,11,10)"/>
<path d="M 0.00 295.50 L 0.00 0.00 L 887.00 0.00 L 1774.00 0.00 L 1774.00 295.50 L 1774.00 591.00 L 887.00 591.00 L 0.00 591.00 L 0.00 295.50 ZM 795.02 403.14 C801.12,399.87 802.45,396.25 802.85,381.75 L 803.20 369.00 L 800.68 369.00 L 798.16 369.00 L 797.83 381.92 C797.52,393.99 797.34,395.01 795.08,397.42 C791.71,401.00 784.97,401.06 781.45,397.55 C779.10,395.19 779.00,394.56 779.00,382.05 L 779.00 369.00 L 776.42 369.00 L 773.85 369.00 L 774.17 382.94 C774.50,396.83 774.51,396.88 777.46,399.96 C782.28,404.98 789.22,406.24 795.02,403.14 ZM 1026.28 403.64 C1033.06,400.77 1035.49,394.76 1032.08,389.29 C1030.49,386.75 1028.87,385.75 1024.29,384.51 C1016.37,382.37 1013.55,380.80 1013.20,378.34 C1012.71,374.98 1015.57,373.00 1020.92,373.00 C1024.39,373.00 1026.17,373.53 1027.47,374.97 C1028.83,376.47 1029.69,376.70 1031.09,375.95 C1035.82,373.42 1028.90,369.00 1020.18,369.00 C1013.31,369.00 1009.54,371.25 1008.51,375.95 C1007.29,381.50 1010.56,385.12 1019.00,387.60 C1028.93,390.50 1031.35,393.65 1027.00,398.00 C1023.78,401.22 1016.90,400.75 1013.20,397.05 C1010.69,394.54 1009.99,394.28 1008.53,395.36 C1006.93,396.52 1007.00,396.85 1009.49,399.80 C1013.50,404.58 1020.36,406.14 1026.28,403.64 ZM 1160.54 403.12 C1165.04,401.08 1169.68,396.14 1170.62,392.39 C1170.96,391.03 1171.05,387.33 1170.82,384.15 C1170.07,373.79 1164.38,369.00 1152.85,369.00 C1145.47,369.01 1141.11,371.13 1137.99,376.24 C1133.43,383.72 1134.54,392.86 1140.79,399.28 C1146.41,405.06 1153.32,406.40 1160.54,403.12 ZM 609.60 400.60 C611.77,398.43 613.00,396.23 613.00,394.53 C613.00,391.43 611.32,387.86 609.28,386.66 C608.06,385.94 608.09,385.56 609.47,384.03 C610.36,383.05 611.34,380.70 611.65,378.80 C612.09,376.06 611.69,374.75 609.69,372.42 C607.25,369.58 606.87,369.49 596.59,369.16 L 586.00 368.82 L 586.00 386.41 L 586.00 404.00 L 596.10 404.00 L 606.20 404.00 L 609.60 400.60 ZM 672.81 401.75 C673.11,400.18 672.15,400.00 663.57,400.00 L 654.00 400.00 L 654.00 394.04 L 654.00 388.08 L 661.74 387.79 C668.10,387.55 669.54,387.20 669.80,385.79 C670.09,384.32 669.05,384.05 662.32,383.79 L 654.50 383.50 L 654.20 378.25 L 653.90 373.00 L 662.95 373.00 C671.33,373.00 672.00,372.85 672.00,371.00 C672.00,369.12 671.33,369.00 660.75,369.00 L 649.50 369.01 L 649.63 385.75 C649.71,394.96 649.82,402.85 649.88,403.28 C649.95,403.71 655.06,403.94 661.24,403.78 C671.01,403.54 672.52,403.27 672.81,401.75 ZM 712.00 399.50 L 713.93 395.00 L 722.88 395.00 L 731.83 395.00 L 733.57 399.55 C734.96,403.19 735.73,404.03 737.40,403.78 C738.56,403.60 739.41,403.01 739.29,402.48 C739.18,401.94 736.07,394.16 732.38,385.20 C725.76,369.11 725.63,368.90 722.77,369.20 C720.03,369.48 719.48,370.42 712.93,385.78 C709.12,394.73 706.00,402.50 706.00,403.03 C706.00,403.56 706.92,404.00 708.04,404.00 C709.50,404.00 710.62,402.73 712.00,399.50 ZM 853.78 388.29 L 854.05 373.10 L 859.77 372.80 C864.27,372.56 865.55,372.13 865.81,370.75 C866.12,369.15 864.94,369.00 852.07,369.00 C838.67,369.00 838.00,369.09 838.00,371.00 C838.00,372.76 838.67,373.00 843.50,373.00 L 849.00 373.00 L 849.12 387.00 C849.19,394.70 849.36,401.45 849.50,402.00 C849.64,402.55 849.81,403.26 849.88,403.57 C849.94,403.89 850.79,404.00 851.75,403.81 C853.31,403.51 853.53,401.83 853.78,388.29 ZM 915.00 396.49 C915.52,389.23 915.95,388.33 926.21,373.25 L 929.10 369.00 L 926.12 369.00 C923.45,369.00 922.63,369.85 918.38,377.00 C915.76,381.40 913.34,385.00 913.01,385.00 C912.67,385.00 910.22,381.40 907.56,377.00 C903.32,369.98 902.37,369.00 899.86,369.00 L 896.99 369.00 L 902.62 377.75 C905.72,382.56 908.87,387.39 909.63,388.47 C910.47,389.68 911.00,393.12 911.00,397.30 C911.00,403.28 911.22,404.10 912.75,403.81 C914.16,403.55 914.60,402.11 915.00,396.49 ZM 1075.00 395.96 L 1075.00 387.93 L 1084.75 388.21 L 1094.50 388.50 L 1094.79 396.25 C1095.05,403.18 1095.29,404.00 1097.04,404.00 C1098.91,404.00 1099.00,403.21 1099.00,386.50 L 1099.00 369.00 L 1096.44 369.00 C1094.94,369.00 1094.15,369.43 1094.52,370.03 C1094.87,370.59 1094.84,373.97 1094.46,377.53 L 1093.77 384.00 L 1084.38 384.00 L 1075.00 384.00 L 1075.00 376.50 C1075.00,369.17 1074.94,369.00 1072.50,369.00 L 1070.00 369.00 L 1070.00 385.83 C1070.00,395.09 1070.30,402.97 1070.67,403.33 C1071.03,403.70 1072.16,404.00 1073.17,404.00 C1074.79,404.00 1075.00,403.09 1075.00,395.96 ZM 1212.80 397.24 L 1213.10 391.00 L 1219.83 391.00 C1227.30,391.00 1230.08,389.68 1232.51,384.99 C1234.84,380.47 1234.38,376.46 1231.08,372.77 C1228.23,369.57 1227.96,369.49 1218.58,369.15 L 1209.00 368.81 L 1209.00 386.48 C1209.00,402.77 1209.14,404.12 1210.75,403.81 C1212.15,403.55 1212.56,402.25 1212.80,397.24 ZM 767.97 325.35 C779.47,322.12 788.20,315.36 792.69,306.21 C795.17,301.17 795.50,299.39 795.50,291.00 C795.50,282.62 795.17,280.83 792.71,275.81 C788.95,268.16 781.65,261.72 768.94,254.85 C746.09,242.50 743.17,240.74 738.27,236.45 C731.21,230.28 728.66,224.70 729.18,216.56 C729.73,207.95 733.61,201.59 740.48,198.05 C744.78,195.84 746.72,195.50 754.97,195.50 C763.38,195.50 765.17,195.83 770.20,198.30 C778.02,202.14 784.17,209.23 787.77,218.55 C789.35,222.66 790.95,225.71 791.33,225.34 C792.09,224.57 792.27,193.00 791.50,193.00 C791.22,193.00 790.10,193.90 789.00,195.00 C786.39,197.61 784.80,197.53 775.38,194.29 C768.43,191.90 765.97,191.58 754.50,191.54 C742.32,191.50 741.12,191.68 735.54,194.29 C727.77,197.93 723.72,201.09 720.11,206.34 C711.00,219.59 712.49,238.69 723.61,250.99 C728.67,256.59 738.56,263.12 754.50,271.38 C772.51,280.72 778.39,286.90 779.65,297.82 C780.37,304.01 777.07,312.92 772.69,316.62 C764.53,323.52 752.12,325.26 740.94,321.08 C729.04,316.63 717.63,303.63 714.89,291.40 C714.13,287.99 713.16,286.00 712.27,286.00 C711.09,286.00 710.97,289.03 711.55,305.25 C711.93,315.84 712.59,324.88 713.02,325.35 C713.45,325.81 714.41,324.91 715.16,323.35 C717.08,319.32 722.04,319.08 730.77,322.57 C744.10,327.91 755.77,328.78 767.97,325.35 ZM 1292.00 266.00 C1292.47,208.99 1292.61,205.32 1294.39,202.39 C1296.72,198.53 1300.42,196.28 1305.84,195.41 C1308.49,194.99 1310.00,194.22 1310.00,193.30 C1310.00,192.08 1306.84,191.91 1289.50,192.18 C1268.08,192.51 1263.48,193.59 1274.80,195.61 C1282.05,196.91 1285.50,199.55 1287.00,204.93 C1288.15,209.09 1288.40,295.02 1287.25,294.96 C1286.84,294.93 1283.59,291.00 1280.04,286.21 C1269.97,272.64 1232.43,221.01 1221.54,205.75 L 1211.72 192.00 L 1199.11 192.01 C1186.24,192.03 1182.00,192.55 1182.00,194.12 C1182.00,194.60 1183.14,195.00 1184.53,195.00 C1188.55,195.00 1193.69,197.59 1195.67,200.62 C1197.39,203.24 1197.50,206.79 1197.50,257.46 C1197.50,305.82 1197.32,311.89 1195.83,315.18 C1194.09,319.01 1190.82,321.26 1185.25,322.46 C1177.57,324.11 1183.05,325.00 1200.94,325.00 C1219.15,325.00 1225.85,323.95 1216.56,322.56 C1210.92,321.71 1205.97,318.40 1203.75,313.98 C1202.16,310.81 1202.00,306.12 1202.00,260.75 C1202.00,233.39 1202.34,211.00 1202.75,211.01 C1203.16,211.01 1204.62,212.67 1206.00,214.70 C1207.38,216.73 1211.77,222.92 1215.77,228.45 C1231.05,249.56 1235.27,255.39 1257.45,286.00 C1288.61,329.00 1287.14,327.13 1289.48,326.79 C1291.47,326.50 1291.51,325.70 1292.00,266.00 ZM 548.00 324.04 C548.00,323.51 546.22,322.60 544.05,322.01 C538.52,320.52 535.68,316.65 536.26,311.40 C536.51,309.15 539.37,300.48 542.61,292.14 L 548.50 276.97 L 572.48 277.23 L 596.46 277.50 L 603.18 294.50 C612.05,316.96 612.00,320.27 602.75,322.54 C601.24,322.91 600.00,323.62 600.00,324.11 C600.00,325.25 643.70,325.29 644.41,324.15 C644.70,323.68 643.21,322.78 641.10,322.15 C636.41,320.74 632.41,317.70 630.59,314.16 C627.67,308.47 582.54,196.00 581.47,191.74 C581.07,190.14 580.10,189.00 579.14,189.00 C577.96,189.00 576.42,192.02 573.64,199.75 C567.61,216.54 535.13,299.70 531.56,307.50 C528.05,315.16 523.29,320.09 517.59,321.97 C515.61,322.62 514.00,323.57 514.00,324.08 C514.00,324.60 521.29,325.00 531.00,325.00 C541.21,325.00 548.00,324.62 548.00,324.04 ZM 920.43 324.11 C920.73,323.62 919.31,322.91 917.28,322.52 C911.43,321.43 907.96,319.15 906.39,315.39 C904.23,310.21 904.77,203.61 906.97,200.28 C908.50,197.97 911.08,196.67 916.93,195.24 C918.82,194.78 920.54,193.87 920.77,193.20 C921.07,192.29 915.99,192.00 899.71,192.00 C878.68,192.00 872.00,192.49 872.00,194.01 C872.00,194.43 874.03,195.08 876.52,195.45 C879.01,195.82 882.26,197.18 883.77,198.48 L 886.50 200.83 L 886.77 256.92 C887.01,305.91 886.85,313.38 885.50,315.99 C883.62,319.64 880.70,321.56 875.75,322.43 C873.69,322.79 872.00,323.52 872.00,324.05 C872.00,325.27 919.68,325.33 920.43,324.11 ZM 1021.00 324.04 C1021.00,323.51 1019.22,322.60 1017.05,322.01 C1011.52,320.52 1008.68,316.65 1009.26,311.40 C1009.51,309.14 1012.33,300.48 1015.51,292.15 L 1021.30 277.00 L 1044.99 277.00 L 1068.68 277.00 L 1074.23 291.25 C1083.75,315.71 1083.65,315.35 1081.70,318.34 C1080.74,319.81 1078.30,321.43 1076.04,322.11 C1073.85,322.76 1072.30,323.68 1072.59,324.15 C1072.88,324.62 1082.99,325.00 1095.06,325.00 C1116.73,325.00 1121.36,324.25 1113.21,322.06 C1107.34,320.48 1103.41,315.54 1098.35,303.40 C1091.24,286.34 1059.63,207.48 1056.00,197.75 C1054.20,192.94 1052.16,189.00 1051.45,189.00 C1050.74,189.00 1049.46,190.91 1048.60,193.25 C1047.74,195.59 1044.58,204.25 1041.57,212.50 C1032.90,236.29 1005.34,306.50 1002.58,311.85 C1000.18,316.48 995.25,320.85 990.95,322.13 C988.78,322.78 987.00,323.70 987.00,324.16 C987.00,324.62 994.65,325.00 1004.00,325.00 C1014.21,325.00 1021.00,324.62 1021.00,324.04 ZM 1146.30 398.04 C1141.72,395.25 1139.67,390.75 1140.25,384.74 C1140.93,377.66 1144.93,373.82 1152.18,373.28 C1158.70,372.80 1163.41,375.34 1165.56,380.49 C1167.40,384.90 1167.37,387.03 1165.40,391.96 C1162.45,399.34 1153.23,402.27 1146.30,398.04 ZM 591.00 394.00 L 591.00 388.00 L 597.57 388.00 C605.97,388.00 608.00,389.06 608.00,393.48 C608.00,398.27 605.16,400.00 597.28,400.00 L 591.00 400.00 L 591.00 394.00 ZM 591.00 378.50 L 591.00 373.00 L 597.07 373.00 C604.60,373.00 607.00,374.18 607.00,377.88 C607.00,382.30 604.27,384.00 597.17,384.00 L 591.00 384.00 L 591.00 378.50 ZM 716.42 389.25 C716.73,388.28 718.30,384.36 719.91,380.54 C722.67,374.00 722.91,373.72 723.87,376.04 C724.43,377.39 725.81,380.69 726.94,383.38 C730.07,390.80 729.95,391.00 722.43,391.00 C716.63,391.00 715.93,390.80 716.42,389.25 ZM 1213.00 380.00 L 1213.00 373.00 L 1218.78 373.00 C1226.05,373.00 1229.00,374.84 1229.00,379.38 C1229.00,384.51 1225.63,387.00 1218.69,387.00 L 1213.00 387.00 L 1213.00 380.00 ZM 551.00 271.82 C551.00,270.02 571.35,218.00 572.05,218.00 C572.39,218.00 573.15,219.46 573.73,221.25 C574.32,223.04 579.09,235.06 584.33,247.97 C589.56,260.88 593.63,271.79 593.36,272.22 C592.53,273.57 551.00,273.18 551.00,271.82 ZM 1024.00 271.47 C1024.00,270.63 1024.71,268.26 1025.57,266.22 C1026.43,264.17 1030.70,253.13 1035.06,241.69 C1044.79,216.09 1044.52,216.61 1045.98,220.50 C1046.60,222.15 1051.36,234.14 1056.55,247.15 C1061.75,260.16 1066.00,271.29 1066.00,271.90 C1066.00,272.67 1059.61,273.00 1045.00,273.00 C1026.80,273.00 1024.00,272.80 1024.00,271.47 Z" fill="none"/>
</g>
</svg>